SplineFontDB: 3.0
FontName: Petrucci
FullName: Petrucci
FamilyName: Petrucci
Weight: Demi
Copyright: 
Version: 001.001
ItalicAngle: 0
UnderlinePosition: -79.872
UnderlineWidth: 9.216
Ascent: 819
Descent: 205
InvalidEm: 0
sfntRevision: 0x00010042
LayerCount: 2
Layer: 0 1 "Back" 1
Layer: 1 1 "Fore" 0
XUID: [1021 434 1578887590 6216404]
StyleMap: 0x0040
FSType: 260
OS2Version: 2
OS2_WeightWidthSlopeOnly: 0
OS2_UseTypoMetrics: 0
CreationTime: 1263339790
ModificationTime: 1580407884
PfmFamily: 17
TTFWeight: 550
TTFWidth: 5
LineGap: 0
VLineGap: 0
Panose: 2 0 6 6 2 0 0 2 0 4
OS2TypoAscent: 498
OS2TypoAOffset: 0
OS2TypoDescent: -152
OS2TypoDOffset: 0
OS2TypoLinegap: 49
OS2WinAscent: 1350
OS2WinAOffset: 0
OS2WinDescent: 977
OS2WinDOffset: 0
HheadAscent: 768
HheadAOffset: 0
HheadDescent: -174
HheadDOffset: 0
OS2SubXSize: 717
OS2SubYSize: 666
OS2SubXOff: 0
OS2SubYOff: 143
OS2SupXSize: 717
OS2SupYSize: 666
OS2SupXOff: 0
OS2SupYOff: 488
OS2StrikeYSize: 51
OS2StrikeYPos: 256
OS2CapHeight: 507
OS2XHeight: 878
OS2Vendor: 'PYRS'
OS2CodePages: 00000001.00000000
OS2UnicodeRanges: 800000a7.00000040.00000000.00000000
Lookup: 6 0 0 "'frac' Diagonal Fractions in Latin lookup 0" { "'frac' Diagonal Fractions in Latin lookup 0 contextual 0"  "'frac' Diagonal Fractions in Latin lookup 0 contextual 1"  "'frac' Diagonal Fractions in Latin lookup 0 contextual 2"  "'frac' Diagonal Fractions in Latin lookup 0 contextual 3"  } ['frac' ('latn' <'dflt' > ) ]
Lookup: 6 0 0 "'ordn' Ordinals in Latin lookup 1" { "'ordn' Ordinals in Latin lookup 1 contextual 0"  "'ordn' Ordinals in Latin lookup 1 contextual 1"  "'ordn' Ordinals in Latin lookup 1 contextual 2"  "'ordn' Ordinals in Latin lookup 1 contextual 3"  } ['ordn' ('latn' <'dflt' > ) ]
Lookup: 4 0 0 "Ligature Substitution lookup 2" { "Ligature Substitution lookup 2 subtable"  } []
Lookup: 1 0 0 "Single Substitution lookup 3" { "Single Substitution lookup 3 subtable"  } []

StartChar: numbersign
Encoding: 35 35 4
Width: 242
Flags: W
LayerCount: 2
Fore
SplineSet
74 -101 m 1,0,-1
 144 -73 l 1,1,-1
 144 99 l 1,2,-1
 74 72 l 1,3,-1
 74 -101 l 1,0,-1
144 389 m 1,4,-1
 173 389 l 1,5,-1
 173 220 l 1,6,-1
 216 238 l 1,7,-1
 216 130 l 1,8,-1
 173 112 l 1,9,-1
 173 -61 l 1,10,-1
 216 -43 l 1,11,-1
 216 -151 l 1,12,-1
 173 -169 l 1,13,-1
 173 -346 l 1,14,-1
 144 -346 l 1,15,-1
 144 -181 l 1,16,-1
 74 -209 l 1,17,-1
 74 -389 l 1,18,-1
 45 -389 l 1,19,-1
 45 -221 l 1,20,-1
 1 -238 l 1,21,-1
 1 -130 l 1,22,-1
 45 -113 l 1,23,-1
 45 60 l 1,24,-1
 1 43 l 1,25,-1
 1 152 l 1,26,-1
 45 167 l 1,27,-1
 45 346 l 1,28,-1
 74 346 l 1,29,-1
 74 180 l 1,30,-1
 144 208 l 1,31,-1
 144 389 l 1,4,-1
EndSplineSet
Validated: 1
EndChar

StartChar: dollar
Encoding: 36 36 5
Width: 296
Flags: W
LayerCount: 2
Fore
SplineSet
166 45 m 1,0,-1
 166 227 l 1,1,-1
 57 45 l 1,2,-1
 166 45 l 1,0,-1
180 -114 m 1,3,-1
 218 -99 l 1,4,-1
 218 -28 l 1,5,-1
 230 -28 l 1,6,-1
 230 -94 l 1,7,-1
 258 -82 l 1,8,-1
 258 -134 l 1,9,-1
 230 -145 l 1,10,-1
 230 -237 l 1,11,-1
 258 -225 l 1,12,-1
 258 -276 l 1,13,-1
 230 -289 l 1,14,-1
 230 -360 l 1,15,-1
 218 -360 l 1,16,-1
 218 -294 l 1,17,-1
 180 -308 l 1,18,-1
 180 -391 l 1,19,-1
 166 -391 l 1,20,-1
 166 -314 l 1,21,-1
 137 -326 l 1,22,-1
 137 -275 l 1,23,-1
 166 -264 l 1,24,-1
 166 -172 l 1,25,-1
 137 -183 l 1,26,-1
 137 -133 l 1,27,-1
 166 -121 l 1,28,-1
 166 29 l 1,29,-1
 39 29 l 1,30,-1
 39 45 l 1,31,-1
 166 255 l 1,32,-1
 180 255 l 1,33,-1
 180 45 l 1,34,-1
 219 45 l 1,35,-1
 219 29 l 1,36,-1
 180 29 l 1,37,-1
 180 -114 l 1,3,-1
218 -150 m 1,38,-1
 180 -166 l 1,39,-1
 180 -258 l 1,40,-1
 218 -243 l 1,41,-1
 218 -150 l 1,38,-1
EndSplineSet
Validated: 1
EndChar

StartChar: percent
Encoding: 37 37 6
Width: 583
Flags: W
LayerCount: 2
Fore
SplineSet
226 315 m 1,0,1
 185 340 185 340 147 369 c 128,-1,2
 109 398 109 398 79 429.5 c 128,-1,3
 49 461 49 461 31 493.5 c 128,-1,4
 13 526 13 526 13 558 c 0,5,6
 13 587 13 587 25 614.5 c 128,-1,7
 37 642 37 642 57.5 663.5 c 128,-1,8
 78 685 78 685 107 698 c 128,-1,9
 136 711 136 711 172 711 c 0,10,11
 196 711 196 711 221.5 702 c 128,-1,12
 247 693 247 693 268.5 677.5 c 128,-1,13
 290 662 290 662 304.5 640 c 128,-1,14
 319 618 319 618 323 593 c 0,15,16
 324 583 324 583 321.5 571 c 128,-1,17
 319 559 319 559 313.5 550 c 128,-1,18
 308 541 308 541 300 534.5 c 128,-1,19
 292 528 292 528 280 529 c 0,20,21
 260 530 260 530 242.5 541 c 128,-1,22
 225 552 225 552 223 575 c 0,23,24
 222 584 222 584 225 591.5 c 128,-1,25
 228 599 228 599 232 605.5 c 128,-1,26
 236 612 236 612 238 619.5 c 128,-1,27
 240 627 240 627 237 635 c 0,28,29
 230 655 230 655 215.5 663 c 128,-1,30
 201 671 201 671 170 671 c 0,31,32
 134 671 134 671 113 649.5 c 128,-1,33
 92 628 92 628 91 604 c 0,34,35
 89 563 89 563 108 535 c 128,-1,36
 127 507 127 507 156.5 485.5 c 128,-1,37
 186 464 186 464 222.5 447 c 128,-1,38
 259 430 259 430 293 413 c 1,39,-1
 494 706 l 1,40,-1
 545 706 l 1,41,-1
 331 392 l 1,42,43
 374 365 374 365 410.5 339.5 c 128,-1,44
 447 314 447 314 475.5 286 c 128,-1,45
 504 258 504 258 521 226 c 128,-1,46
 538 194 538 194 540 155 c 0,47,48
 541 126 541 126 529.5 98.5 c 128,-1,49
 518 71 518 71 496.5 49 c 128,-1,50
 475 27 475 27 445.5 13.5 c 128,-1,51
 416 0 416 0 381 0 c 0,52,53
 356 0 356 0 329.5 9 c 128,-1,54
 303 18 303 18 280 34 c 128,-1,55
 257 50 257 50 241 72 c 128,-1,56
 225 94 225 94 222 120 c 0,57,58
 221 130 221 130 224.5 143.5 c 128,-1,59
 228 157 228 157 234.5 168 c 128,-1,60
 241 179 241 179 250 186.5 c 128,-1,61
 259 194 259 194 268 194 c 0,62,63
 295 192 295 192 305.5 178 c 128,-1,64
 316 164 316 164 323 137 c 0,65,66
 325 128 325 128 322 121 c 128,-1,67
 319 114 319 114 316 106 c 128,-1,68
 313 98 313 98 310.5 91 c 128,-1,69
 308 84 308 84 311 75 c 0,70,71
 318 57 318 57 339 47.5 c 128,-1,72
 360 38 360 38 392 40 c 0,73,74
 408 41 408 41 421.5 48 c 128,-1,75
 435 55 435 55 444 66 c 128,-1,76
 453 77 453 77 457.5 89 c 128,-1,77
 462 101 462 101 462 113 c 0,78,79
 461 148 461 148 442.5 174.5 c 128,-1,80
 424 201 424 201 396 222 c 128,-1,81
 368 243 368 243 333 261 c 128,-1,82
 298 279 298 279 264 296 c 1,83,84
 250 274 250 274 233 251 c 0,85,86
 219 231 219 231 202 205 c 128,-1,87
 185 179 185 179 167 153 c 0,88,89
 124 90 124 90 70 10 c 1,90,-1
 17 10 l 1,91,92
 75 95 75 95 122 163 c 0,93,94
 141 192 141 192 160 219.5 c 128,-1,95
 179 247 179 247 194 268 c 0,96,97
 211 293 211 293 226 315 c 1,0,1
467 472 m 0,98,99
 485 472 485 472 498 459 c 128,-1,100
 511 446 511 446 511 428 c 0,101,102
 511 411 511 411 498 398 c 128,-1,103
 485 385 485 385 467 385 c 0,104,105
 450 385 450 385 437 398 c 128,-1,106
 424 411 424 411 424 428 c 0,107,108
 424 446 424 446 437 459 c 128,-1,109
 450 472 450 472 467 472 c 0,98,99
87 333 m 0,110,111
 104 333 104 333 117 320.5 c 128,-1,112
 130 308 130 308 130 290 c 0,113,114
 130 273 130 273 117 260 c 128,-1,115
 104 247 104 247 87 247 c 0,116,117
 69 247 69 247 56 259.5 c 128,-1,118
 43 272 43 272 43 290 c 256,119,120
 43 308 43 308 56 320.5 c 128,-1,121
 69 333 69 333 87 333 c 0,110,111
EndSplineSet
Validated: 33
Ligature2: "Ligature Substitution lookup 2 subtable" zero slash zero
EndChar

StartChar: ampersand
Encoding: 38 38 7
Width: 692
Flags: W
LayerCount: 2
Fore
SplineSet
474 -220 m 1,0,1
 510 -212 510 -212 538.5 -193 c 128,-1,2
 567 -174 567 -174 586.5 -147 c 128,-1,3
 606 -120 606 -120 615.5 -87 c 128,-1,4
 625 -54 625 -54 621 -17 c 0,5,6
 616 25 616 25 595 59.5 c 128,-1,7
 574 94 574 94 544 117 c 128,-1,8
 514 140 514 140 476.5 150.5 c 128,-1,9
 439 161 439 161 399 155 c 1,10,-1
 474 -220 l 1,0,1
483 882 m 0,11,12
 480 898 480 898 477.5 915 c 128,-1,13
 475 932 475 932 469 945.5 c 128,-1,14
 463 959 463 959 451.5 968.5 c 128,-1,15
 440 978 440 978 421 979 c 0,16,17
 404 980 404 980 385.5 959.5 c 128,-1,18
 367 939 367 939 350.5 905.5 c 128,-1,19
 334 872 334 872 321 832.5 c 128,-1,20
 308 793 308 793 301 755 c 0,21,22
 299 743 299 743 300.5 715.5 c 128,-1,23
 302 688 302 688 305.5 659 c 128,-1,24
 309 630 309 630 313 604.5 c 128,-1,25
 317 579 317 579 321 569 c 1,26,-1
 357 603 l 2,27,28
 361 604 361 604 384.5 628.5 c 128,-1,29
 408 653 408 653 433 691.5 c 128,-1,30
 458 730 458 730 474.5 780 c 128,-1,31
 491 830 491 830 483 882 c 0,11,12
332 401 m 1,32,33
 324 395 324 395 306 377 c 128,-1,34
 288 359 288 359 267.5 337 c 128,-1,35
 247 315 247 315 226.5 291.5 c 128,-1,36
 206 268 206 268 194 252 c 0,37,38
 169 221 169 221 146.5 185.5 c 128,-1,39
 124 150 124 150 109 111 c 128,-1,40
 94 72 94 72 90.5 29.5 c 128,-1,41
 87 -13 87 -13 101 -59 c 0,42,43
 103 -67 103 -67 112.5 -84.5 c 128,-1,44
 122 -102 122 -102 138.5 -124 c 128,-1,45
 155 -146 155 -146 178 -168.5 c 128,-1,46
 201 -191 201 -191 230 -209 c 128,-1,47
 259 -227 259 -227 295.5 -238.5 c 128,-1,48
 332 -250 332 -250 375 -248 c 0,49,50
 401 -247 401 -247 417.5 -243 c 128,-1,51
 434 -239 434 -239 453 -232 c 1,52,-1
 375 155 l 1,53,54
 332 149 332 149 303.5 128.5 c 128,-1,55
 275 108 275 108 258 81 c 128,-1,56
 241 54 241 54 233 26 c 128,-1,57
 225 -2 225 -2 225 -24 c 0,58,59
 224 -59 224 -59 245 -89 c 128,-1,60
 266 -119 266 -119 294.5 -141.5 c 128,-1,61
 323 -164 323 -164 350 -177 c 128,-1,62
 377 -190 377 -190 389 -190 c 1,63,-1
 389 -201 l 1,64,65
 375 -200 375 -200 345 -187.5 c 128,-1,66
 315 -175 315 -175 283 -152.5 c 128,-1,67
 251 -130 251 -130 224 -96 c 128,-1,68
 197 -62 197 -62 187 -17 c 0,69,70
 178 29 178 29 186.5 73.5 c 128,-1,71
 195 118 195 118 218 154.5 c 128,-1,72
 241 191 241 191 277 218.5 c 128,-1,73
 313 246 313 246 359 257 c 1,74,-1
 332 401 l 1,32,33
411 1103 m 0,75,76
 433 1103 433 1103 452.5 1073 c 128,-1,77
 472 1043 472 1043 488 1000 c 128,-1,78
 504 957 504 957 514 909.5 c 128,-1,79
 524 862 524 862 526 826 c 0,80,81
 528 786 528 786 522.5 735 c 128,-1,82
 517 684 517 684 497.5 629 c 128,-1,83
 478 574 478 574 442.5 520 c 128,-1,84
 407 466 407 466 350 420 c 1,85,-1
 381 261 l 1,86,87
 463 273 463 273 522 250.5 c 128,-1,88
 581 228 581 228 618 185 c 128,-1,89
 655 142 655 142 672 86 c 128,-1,90
 689 30 689 30 686 -25 c 0,91,92
 682 -117 682 -117 626.5 -178.5 c 128,-1,93
 571 -240 571 -240 481 -260 c 1,94,-1
 523 -495 l 2,95,96
 530 -534 530 -534 519.5 -567.5 c 128,-1,97
 509 -601 509 -601 486 -627 c 128,-1,98
 463 -653 463 -653 431 -671.5 c 128,-1,99
 399 -690 399 -690 364 -698 c 0,100,101
 322 -707 322 -707 283 -692 c 128,-1,102
 244 -677 244 -677 215 -649 c 128,-1,103
 186 -621 186 -621 171.5 -586.5 c 128,-1,104
 157 -552 157 -552 163 -522 c 0,105,106
 171 -478 171 -478 202.5 -449.5 c 128,-1,107
 234 -421 234 -421 280 -423 c 0,108,109
 324 -424 324 -424 355.5 -452.5 c 128,-1,110
 387 -481 387 -481 388 -525 c 0,111,112
 388 -549 388 -549 379.5 -571 c 128,-1,113
 371 -593 371 -593 354.5 -608.5 c 128,-1,114
 338 -624 338 -624 315 -632 c 128,-1,115
 292 -640 292 -640 265 -636 c 1,116,117
 269 -640 269 -640 278.5 -647.5 c 128,-1,118
 288 -655 288 -655 300 -662 c 128,-1,119
 312 -669 312 -669 328.5 -674 c 128,-1,120
 345 -679 345 -679 364 -677 c 0,121,122
 367 -677 367 -677 380.5 -672.5 c 128,-1,123
 394 -668 394 -668 411.5 -658.5 c 128,-1,124
 429 -649 429 -649 447.5 -635 c 128,-1,125
 466 -621 466 -621 480.5 -601 c 128,-1,126
 495 -581 495 -581 501.5 -553.5 c 128,-1,127
 508 -526 508 -526 502 -492 c 2,128,-1
 462 -268 l 1,129,130
 448 -271 448 -271 435.5 -272.5 c 128,-1,131
 423 -274 423 -274 411 -274.5 c 128,-1,132
 399 -275 399 -275 387 -275.5 c 128,-1,133
 375 -276 375 -276 359 -276 c 0,134,135
 286 -278 286 -278 221.5 -250 c 128,-1,136
 157 -222 157 -222 107 -172 c 128,-1,137
 57 -122 57 -122 28.5 -55 c 128,-1,138
 0 12 0 12 0 87 c 0,139,140
 0 133 0 133 22 185.5 c 128,-1,141
 44 238 44 238 77 289.5 c 128,-1,142
 110 341 110 341 147.5 388.5 c 128,-1,143
 185 436 185 436 218.5 472.5 c 128,-1,144
 252 509 252 509 275 531 c 128,-1,145
 298 553 298 553 300 554 c 0,146,147
 296 564 296 564 290 589 c 128,-1,148
 284 614 284 614 278 645 c 128,-1,149
 272 676 272 676 267 706 c 128,-1,150
 262 736 262 736 260 757 c 0,151,152
 256 787 256 787 259 824 c 128,-1,153
 262 861 262 861 271.5 899.5 c 128,-1,154
 281 938 281 938 295 974.5 c 128,-1,155
 309 1011 309 1011 327 1039.5 c 128,-1,156
 345 1068 345 1068 366.5 1085.5 c 128,-1,157
 388 1103 388 1103 411 1103 c 0,75,76
EndSplineSet
Validated: 33
EndChar

StartChar: quotesingle
Encoding: 39 39 8
Width: 130
Flags: W
LayerCount: 2
Fore
SplineSet
65 130 m 1,0,-1
 130 0 l 1,1,-1
 0 0 l 1,2,-1
 65 130 l 1,0,-1
EndSplineSet
Validated: 1
EndChar

StartChar: parenleft
Encoding: 40 40 9
Width: 246
Flags: W
LayerCount: 2
Fore
SplineSet
195 584 m 1,0,1
 149 550 149 550 121.5 518.5 c 128,-1,2
 94 487 94 487 79.5 454.5 c 128,-1,3
 65 422 65 422 60 385.5 c 128,-1,4
 55 349 55 349 55 303 c 256,5,6
 55 257 55 257 60 220 c 128,-1,7
 65 183 65 183 79 150.5 c 128,-1,8
 93 118 93 118 120.5 87 c 128,-1,9
 148 56 148 56 195 22 c 1,10,11
 164 33 164 33 129.5 59.5 c 128,-1,12
 95 86 95 86 66.5 123 c 128,-1,13
 38 160 38 160 19 206 c 128,-1,14
 0 252 0 252 0 303 c 0,15,16
 0 348 0 348 19 393 c 128,-1,17
 38 438 38 438 66.5 476.5 c 128,-1,18
 95 515 95 515 129.5 544 c 128,-1,19
 164 573 164 573 195 584 c 1,0,1
EndSplineSet
Validated: 1
EndChar

StartChar: parenright
Encoding: 41 41 10
Width: 246
Flags: W
LayerCount: 2
Fore
SplineSet
145 303 m 256,0,1
 145 349 145 349 140.5 385.5 c 128,-1,2
 136 422 136 422 121 454.5 c 128,-1,3
 106 487 106 487 78.5 518.5 c 128,-1,4
 51 550 51 550 6 584 c 1,5,6
 37 573 37 573 71 544 c 128,-1,7
 105 515 105 515 134.5 476.5 c 128,-1,8
 164 438 164 438 183 393 c 128,-1,9
 202 348 202 348 201 303 c 0,10,11
 200 252 200 252 180.5 206 c 128,-1,12
 161 160 161 160 132.5 123 c 128,-1,13
 104 86 104 86 70.5 59.5 c 128,-1,14
 37 33 37 33 6 22 c 1,15,16
 52 57 52 57 79 87.5 c 128,-1,17
 106 118 106 118 121 150.5 c 128,-1,18
 136 183 136 183 140.5 220 c 128,-1,19
 145 257 145 257 145 303 c 256,0,1
EndSplineSet
Validated: 33
EndChar

StartChar: asterisk
Encoding: 42 42 11
Width: 384
Flags: W
LayerCount: 2
Fore
SplineSet
223 195 m 1,0,1
 223 207 223 207 215 215 c 128,-1,2
 207 223 207 223 195 223 c 256,3,4
 183 223 183 223 174 215 c 128,-1,5
 165 207 165 207 165 195 c 256,6,7
 165 183 165 183 173.5 174 c 128,-1,8
 182 165 182 165 195 165 c 256,9,10
 207 165 207 165 215 173.5 c 128,-1,11
 223 182 223 182 223 195 c 1,12,-1
 223 195 l 1,0,1
171 230 m 1,13,14
 177 236 177 236 186 237 c 1,15,-1
 186 274 l 2,16,17
 185 283 185 283 179.5 290.5 c 128,-1,18
 174 298 174 298 167.5 305.5 c 128,-1,19
 161 313 161 313 155.5 322 c 128,-1,20
 150 331 150 331 150 342 c 0,21,22
 150 366 150 366 163 375.5 c 128,-1,23
 176 385 176 385 194 385 c 0,24,25
 208 385 208 385 222 374.5 c 128,-1,26
 236 364 236 364 236 340 c 0,27,28
 236 329 236 329 230 320.5 c 128,-1,29
 224 312 224 312 217 304.5 c 128,-1,30
 210 297 210 297 204.5 290 c 128,-1,31
 199 283 199 283 199 274 c 256,32,33
 199 265 199 265 199.5 258 c 128,-1,34
 200 251 200 251 201 238 c 1,35,36
 214 236 214 236 220 229 c 1,37,38
 229 237 229 237 233.5 241 c 128,-1,39
 238 245 238 245 244 252 c 0,40,41
 250 258 250 258 251 268 c 128,-1,42
 252 278 252 278 252.5 288 c 128,-1,43
 253 298 253 298 255 307.5 c 128,-1,44
 257 317 257 317 265 326 c 0,45,46
 282 343 282 343 298 341 c 128,-1,47
 314 339 314 339 328 326 c 0,48,49
 337 317 337 317 339.5 300 c 128,-1,50
 342 283 342 283 325 265 c 0,51,52
 317 257 317 257 307 255.5 c 128,-1,53
 297 254 297 254 286.5 253 c 128,-1,54
 276 252 276 252 267 251 c 128,-1,55
 258 250 258 250 252 244 c 256,56,57
 246 238 246 238 242.5 233 c 128,-1,58
 239 228 239 228 230 219 c 1,59,60
 232 215 232 215 234.5 211 c 128,-1,61
 237 207 237 207 238 202 c 1,62,-1
 272 202 l 2,63,64
 281 202 281 202 289 207.5 c 128,-1,65
 297 213 297 213 304.5 219.5 c 128,-1,66
 312 226 312 226 320.5 232 c 128,-1,67
 329 238 329 238 340 238 c 0,68,69
 364 238 364 238 374 225 c 128,-1,70
 384 212 384 212 384 195 c 0,71,72
 384 181 384 181 373 167 c 128,-1,73
 362 153 362 153 339 153 c 0,74,75
 328 153 328 153 319.5 158.5 c 128,-1,76
 311 164 311 164 303.5 171 c 128,-1,77
 296 178 296 178 289 183.5 c 128,-1,78
 282 189 282 189 272 189 c 256,79,80
 263 189 263 189 257.5 188.5 c 128,-1,81
 252 188 252 188 238 187 c 1,82,83
 236 176 236 176 228 167 c 1,84,-1
 251 144 l 2,85,86
 257 138 257 138 266.5 136.5 c 128,-1,87
 276 135 276 135 286 134.5 c 128,-1,88
 296 134 296 134 305.5 132 c 128,-1,89
 315 130 315 130 323 123 c 0,90,91
 338 106 338 106 336.5 89 c 128,-1,92
 335 72 335 72 323 60 c 0,93,94
 314 52 314 52 296 49 c 128,-1,95
 278 46 278 46 262 63 c 0,96,97
 255 70 255 70 253 80.5 c 128,-1,98
 251 91 251 91 250 101 c 128,-1,99
 249 111 249 111 247.5 120 c 128,-1,100
 246 129 246 129 241 135 c 0,101,102
 235 143 235 143 231 145.5 c 128,-1,103
 227 148 227 148 217 158 c 1,104,105
 213 155 213 155 202 153 c 1,106,-1
 202 116 l 2,107,108
 202 107 202 107 207.5 99 c 128,-1,109
 213 91 213 91 219.5 83.5 c 128,-1,110
 226 76 226 76 232 67 c 128,-1,111
 238 58 238 58 238 47 c 0,112,113
 238 23 238 23 225 13.5 c 128,-1,114
 212 4 212 4 195 4 c 0,115,116
 181 4 181 4 167 15 c 128,-1,117
 153 26 153 26 153 49 c 0,118,119
 153 59 153 59 158.5 68 c 128,-1,120
 164 77 164 77 171 84.5 c 128,-1,121
 178 92 178 92 183.5 99 c 128,-1,122
 189 106 189 106 189 116 c 256,123,124
 189 125 189 125 188.5 131.5 c 128,-1,125
 188 138 188 138 187 152 c 1,126,127
 182 153 182 153 177 155.5 c 128,-1,128
 172 158 172 158 167 161 c 1,129,130
 157 150 157 150 154.5 147 c 128,-1,131
 152 144 152 144 144 137 c 0,132,133
 138 131 138 131 136.5 121.5 c 128,-1,134
 135 112 135 112 134.5 101 c 128,-1,135
 134 90 134 90 132 80.5 c 128,-1,136
 130 71 130 71 123 63 c 0,137,138
 106 48 106 48 89 49.5 c 128,-1,139
 72 51 72 51 60 63 c 0,140,141
 52 73 52 73 49 91 c 128,-1,142
 46 109 46 109 63 124 c 0,143,144
 70 131 70 131 80.5 133 c 128,-1,145
 91 135 91 135 101 136 c 128,-1,146
 111 137 111 137 120 138.5 c 128,-1,147
 129 140 129 140 135 145 c 0,148,149
 143 152 143 152 146.5 156.5 c 128,-1,150
 150 161 150 161 158 171 c 1,151,152
 156 175 156 175 154.5 178.5 c 128,-1,153
 153 182 153 182 152 187 c 1,154,-1
 116 187 l 2,155,156
 107 187 107 187 99 181.5 c 128,-1,157
 91 176 91 176 83.5 169.5 c 128,-1,158
 76 163 76 163 67 157.5 c 128,-1,159
 58 152 58 152 47 152 c 0,160,161
 23 152 23 152 13.5 164.5 c 128,-1,162
 4 177 4 177 4 195 c 0,163,164
 4 209 4 209 15 223 c 128,-1,165
 26 237 26 237 49 237 c 0,166,167
 59 237 59 237 68 231 c 128,-1,168
 77 225 77 225 84.5 218.5 c 128,-1,169
 92 212 92 212 99 206.5 c 128,-1,170
 106 201 106 201 116 201 c 0,171,172
 124 201 124 201 131 201.5 c 128,-1,173
 138 202 138 202 152 202 c 1,174,175
 156 215 156 215 161 220 c 1,176,177
 152 230 152 230 147.5 234 c 128,-1,178
 143 238 143 238 137 245 c 256,179,180
 131 252 131 252 122 253 c 128,-1,181
 113 254 113 254 102.5 254.5 c 128,-1,182
 92 255 92 255 82 257 c 128,-1,183
 72 259 72 259 65 267 c 0,184,185
 51 284 51 284 51 301 c 128,-1,186
 51 318 51 318 65 329 c 0,187,188
 70 333 70 333 77.5 336 c 128,-1,189
 85 339 85 339 93 340 c 128,-1,190
 101 341 101 341 109.5 338 c 128,-1,191
 118 335 118 335 126 326 c 0,192,193
 132 318 132 318 134 308 c 128,-1,194
 136 298 136 298 137.5 288.5 c 128,-1,195
 139 279 139 279 140.5 269.5 c 128,-1,196
 142 260 142 260 147 254 c 0,197,198
 152 247 152 247 157 243 c 128,-1,199
 162 239 162 239 171 230 c 1,13,14
EndSplineSet
Validated: 37
EndChar

StartChar: plus
Encoding: 43 43 12
Width: 337
Flags: W
LayerCount: 2
Fore
SplineSet
0 -9 m 1,0,-1
 0 10 l 1,1,-1
 141 10 l 1,2,-1
 141 152 l 1,3,-1
 162 152 l 1,4,-1
 162 10 l 1,5,-1
 303 10 l 1,6,-1
 303 -9 l 1,7,-1
 162 -9 l 1,8,-1
 162 -152 l 1,9,-1
 141 -152 l 1,10,-1
 141 -9 l 1,11,-1
 0 -9 l 1,0,-1
EndSplineSet
Validated: 1
EndChar

StartChar: comma
Encoding: 44 44 13
Width: 190
Flags: W
LayerCount: 2
Fore
SplineSet
78 -82 m 0,0,1
 65 -82 65 -82 55 -75 c 128,-1,2
 45 -68 45 -68 38.5 -57 c 128,-1,3
 32 -46 32 -46 28.5 -34 c 128,-1,4
 25 -22 25 -22 25 -11 c 0,5,6
 25 -2 25 -2 30.5 10 c 128,-1,7
 36 22 36 22 46.5 32 c 128,-1,8
 57 42 57 42 71.5 48.5 c 128,-1,9
 86 55 86 55 103 55 c 0,10,11
 140 55 140 55 165.5 26 c 128,-1,12
 191 -3 191 -3 190 -55 c 0,13,14
 190 -85 190 -85 172 -114.5 c 128,-1,15
 154 -144 154 -144 131 -168.5 c 128,-1,16
 108 -193 108 -193 85 -208 c 128,-1,17
 62 -223 62 -223 53 -223 c 1,18,-1
 47 -220 l 2,19,20
 49 -219 49 -219 58.5 -211.5 c 128,-1,21
 68 -204 68 -204 79.5 -192.5 c 128,-1,22
 91 -181 91 -181 102 -167 c 128,-1,23
 113 -153 113 -153 118 -138 c 0,24,25
 119 -136 119 -136 123 -126 c 128,-1,26
 127 -116 127 -116 130.5 -104 c 128,-1,27
 134 -92 134 -92 135 -83 c 128,-1,28
 136 -74 136 -74 131 -74 c 0,29,30
 125 -73 125 -73 121.5 -74.5 c 128,-1,31
 118 -76 118 -76 113.5 -77.5 c 128,-1,32
 109 -79 109 -79 101 -80.5 c 128,-1,33
 93 -82 93 -82 78 -82 c 0,0,1
EndSplineSet
Validated: 33
EndChar

StartChar: hyphen
Encoding: 45 45 14
AltUni2: 0000ad.ffffffff.0
Width: 260
Flags: W
LayerCount: 2
Fore
SplineSet
0 15 m 1,0,-1
 0 46 l 1,1,-1
 260 46 l 1,2,-1
 260 15 l 1,3,-1
 0 15 l 1,0,-1
EndSplineSet
Validated: 1
EndChar

StartChar: period
Encoding: 46 46 15
Width: 126
Flags: W
LayerCount: 2
Fore
SplineSet
24 22 m 0,0,1
 24 39 24 39 36 49.5 c 128,-1,2
 48 60 48 60 65 60 c 256,3,4
 81 60 81 60 92 49 c 128,-1,5
 103 38 103 38 103 22 c 256,6,7
 103 6 103 6 92 -5.5 c 128,-1,8
 81 -17 81 -17 65 -17 c 256,9,10
 49 -17 49 -17 36.5 -5.5 c 128,-1,11
 24 6 24 6 24 22 c 0,0,1
EndSplineSet
Validated: 1
EndChar

StartChar: slash
Encoding: 47 47 16
Width: 173
Flags: W
LayerCount: 2
Fore
SplineSet
130 519 m 1,0,-1
 173 519 l 1,1,-1
 173 0 l 1,2,-1
 130 0 l 1,3,-1
 130 519 l 1,0,-1
0 519 m 1,4,-1
 43 519 l 1,5,-1
 43 0 l 1,6,-1
 0 0 l 1,7,-1
 0 519 l 1,4,-1
EndSplineSet
Validated: 1
EndChar

StartChar: zero
Encoding: 48 48 17
Width: 364
Flags: W
LayerCount: 2
Fore
SplineSet
176 230 m 0,0,1
 150 230 150 230 135.5 207 c 128,-1,2
 121 184 121 184 112.5 149.5 c 128,-1,3
 104 115 104 115 101.5 74 c 128,-1,4
 99 33 99 33 99 -3 c 0,5,6
 99 -38 99 -38 102 -78 c 128,-1,7
 105 -118 105 -118 113.5 -151.5 c 128,-1,8
 122 -185 122 -185 137.5 -207.5 c 128,-1,9
 153 -230 153 -230 176 -230 c 0,10,11
 201 -230 201 -230 215.5 -207.5 c 128,-1,12
 230 -185 230 -185 239 -151.5 c 128,-1,13
 248 -118 248 -118 251 -78 c 128,-1,14
 254 -38 254 -38 254 -3 c 0,15,16
 254 33 254 33 251.5 74 c 128,-1,17
 249 115 249 115 240 149.5 c 128,-1,18
 231 184 231 184 216 207 c 128,-1,19
 201 230 201 230 176 230 c 0,0,1
0 0 m 256,20,21
 0 46 0 46 10 92 c 128,-1,22
 20 138 20 138 41.5 175 c 128,-1,23
 63 212 63 212 96.5 235.5 c 128,-1,24
 130 259 130 259 176 259 c 256,25,26
 222 259 222 259 255 235.5 c 128,-1,27
 288 212 288 212 309 175 c 128,-1,28
 330 138 330 138 340 92 c 128,-1,29
 350 46 350 46 350 0 c 256,30,31
 350 -46 350 -46 340 -92 c 128,-1,32
 330 -138 330 -138 309 -175 c 128,-1,33
 288 -212 288 -212 255 -235.5 c 128,-1,34
 222 -259 222 -259 176 -259 c 256,35,36
 130 -259 130 -259 96.5 -235.5 c 128,-1,37
 63 -212 63 -212 41.5 -175 c 128,-1,38
 20 -138 20 -138 10 -92 c 128,-1,39
 0 -46 0 -46 0 0 c 256,20,21
EndSplineSet
Validated: 1
EndChar

StartChar: one
Encoding: 49 49 18
Width: 249
Flags: W
LayerCount: 2
Fore
SplineSet
79 -211 m 2,0,-1
 79 -158 l 1,1,-1
 79 167 l 1,2,-1
 13 43 l 1,3,-1
 1 52 l 1,4,-1
 79 260 l 1,5,-1
 184 260 l 1,6,-1
 184 -156 l 1,7,-1
 184 -209 l 2,8,9
 184 -219 184 -219 192 -224.5 c 128,-1,10
 200 -230 200 -230 209.5 -233.5 c 128,-1,11
 219 -237 219 -237 227.5 -237.5 c 128,-1,12
 236 -238 236 -238 237 -238 c 2,13,-1
 237 -260 l 1,14,-1
 29 -260 l 1,15,-1
 29 -238 l 2,16,17
 30 -238 30 -238 38 -237 c 128,-1,18
 46 -236 46 -236 55.5 -232.5 c 128,-1,19
 65 -229 65 -229 72 -224 c 128,-1,20
 79 -219 79 -219 79 -211 c 2,0,-1
EndSplineSet
Validated: 1
EndChar

StartChar: two
Encoding: 50 50 19
Width: 387
Flags: W
LayerCount: 2
Fore
SplineSet
124 222 m 0,0,1
 107 221 107 221 94.5 215.5 c 128,-1,2
 82 210 82 210 76 204 c 128,-1,3
 70 198 70 198 70 192.5 c 128,-1,4
 70 187 70 187 78 187 c 0,5,6
 87 187 87 187 99 186 c 128,-1,7
 111 185 111 185 121 179 c 128,-1,8
 131 173 131 173 137.5 160.5 c 128,-1,9
 144 148 144 148 144 127 c 0,10,11
 144 99 144 99 124 79.5 c 128,-1,12
 104 60 104 60 78 60 c 0,13,14
 50 60 50 60 30 79.5 c 128,-1,15
 10 99 10 99 10 127 c 256,16,17
 10 155 10 155 23 179 c 128,-1,18
 36 203 36 203 57 221 c 128,-1,19
 78 239 78 239 105 249 c 128,-1,20
 132 259 132 259 162 259 c 0,21,22
 195 259 195 259 228.5 251 c 128,-1,23
 262 243 262 243 289.5 225.5 c 128,-1,24
 317 208 317 208 334.5 182 c 128,-1,25
 352 156 352 156 352 120 c 256,26,27
 352 84 352 84 330.5 59 c 128,-1,28
 309 34 309 34 278.5 14.5 c 128,-1,29
 248 -5 248 -5 215 -21.5 c 128,-1,30
 182 -38 182 -38 160 -55 c 256,31,32
 137 -72 137 -72 122.5 -88 c 128,-1,33
 108 -104 108 -104 98 -117 c 128,-1,34
 88 -130 88 -130 83 -139 c 128,-1,35
 78 -148 78 -148 75 -153 c 1,36,37
 114 -130 114 -130 150.5 -124 c 128,-1,38
 187 -118 187 -118 228 -138 c 0,39,40
 241 -145 241 -145 252 -154 c 128,-1,41
 263 -163 263 -163 272 -170.5 c 128,-1,42
 281 -178 281 -178 288.5 -183 c 128,-1,43
 296 -188 296 -188 304 -188 c 0,44,45
 328 -188 328 -188 339.5 -178.5 c 128,-1,46
 351 -169 351 -169 355.5 -156.5 c 128,-1,47
 360 -144 360 -144 360 -134 c 128,-1,48
 360 -124 360 -124 360 -122 c 2,49,-1
 374 -122 l 1,50,51
 373 -142 373 -142 370 -165.5 c 128,-1,52
 367 -189 367 -189 356 -210 c 128,-1,53
 345 -231 345 -231 325 -245 c 128,-1,54
 305 -259 305 -259 271 -259 c 0,55,56
 238 -259 238 -259 216.5 -249 c 128,-1,57
 195 -239 195 -239 176.5 -226 c 128,-1,58
 158 -213 158 -213 139.5 -203 c 128,-1,59
 121 -193 121 -193 94 -193 c 0,60,61
 64 -194 64 -194 50 -201.5 c 128,-1,62
 36 -209 36 -209 30.5 -219 c 128,-1,63
 25 -229 25 -229 24.5 -238.5 c 128,-1,64
 24 -248 24 -248 22 -251 c 2,65,-1
 0 -251 l 1,66,67
 3 -240 3 -240 3.5 -232.5 c 128,-1,68
 4 -225 4 -225 5.5 -218.5 c 128,-1,69
 7 -212 7 -212 10.5 -202.5 c 128,-1,70
 14 -193 14 -193 24 -175 c 0,71,72
 42 -139 42 -139 81 -98.5 c 128,-1,73
 120 -58 120 -58 160 -19 c 128,-1,74
 200 20 200 20 230 55 c 128,-1,75
 260 90 260 90 260 116 c 0,76,77
 260 170 260 170 227.5 198.5 c 128,-1,78
 195 227 195 227 124 222 c 0,0,1
EndSplineSet
Validated: 33
EndChar

StartChar: three
Encoding: 51 51 20
Width: 337
Flags: W
LayerCount: 2
Fore
SplineSet
105 9 m 1,0,1
 110 9 110 9 112.5 8.5 c 128,-1,2
 115 8 115 8 128 13 c 0,3,4
 147 20 147 20 166 29 c 128,-1,5
 185 38 185 38 199.5 49.5 c 128,-1,6
 214 61 214 61 223 76.5 c 128,-1,7
 232 92 232 92 232 114 c 0,8,9
 232 140 232 140 223 161.5 c 128,-1,10
 214 183 214 183 199 198.5 c 128,-1,11
 184 214 184 214 165.5 222.5 c 128,-1,12
 147 231 147 231 130 230 c 0,13,14
 108 230 108 230 91.5 223 c 128,-1,15
 75 216 75 216 64.5 208 c 128,-1,16
 54 200 54 200 52 193 c 128,-1,17
 50 186 50 186 59 186 c 0,18,19
 77 186 77 186 88.5 181.5 c 128,-1,20
 100 177 100 177 106.5 170 c 128,-1,21
 113 163 113 163 115 153 c 128,-1,22
 117 143 117 143 117 133 c 0,23,24
 118 106 118 106 101.5 92.5 c 128,-1,25
 85 79 85 79 56 79 c 0,26,27
 31 79 31 79 15.5 92 c 128,-1,28
 0 105 0 105 0 141 c 0,29,30
 0 194 0 194 39 227.5 c 128,-1,31
 78 261 78 261 170 260 c 0,32,33
 199 259 199 259 226.5 248 c 128,-1,34
 254 237 254 237 275.5 217 c 128,-1,35
 297 197 297 197 310.5 170 c 128,-1,36
 324 143 324 143 325 112 c 0,37,38
 325 87 325 87 319 69 c 128,-1,39
 313 51 313 51 302.5 39 c 128,-1,40
 292 27 292 27 277 17.5 c 128,-1,41
 262 8 262 8 244 0 c 1,42,43
 260 -7 260 -7 275.5 -16.5 c 128,-1,44
 291 -26 291 -26 301.5 -38.5 c 128,-1,45
 312 -51 312 -51 318.5 -69 c 128,-1,46
 325 -87 325 -87 325 -112 c 0,47,48
 324 -144 324 -144 310.5 -171 c 128,-1,49
 297 -198 297 -198 275.5 -218 c 128,-1,50
 254 -238 254 -238 226.5 -249 c 128,-1,51
 199 -260 199 -260 170 -260 c 0,52,53
 78 -260 78 -260 39 -228 c 128,-1,54
 0 -196 0 -196 0 -141 c 0,55,56
 0 -105 0 -105 16 -92 c 128,-1,57
 32 -79 32 -79 56 -79 c 0,58,59
 85 -79 85 -79 101.5 -92.5 c 128,-1,60
 118 -106 118 -106 117 -133 c 0,61,62
 117 -143 117 -143 115 -153 c 128,-1,63
 113 -163 113 -163 106.5 -170 c 128,-1,64
 100 -177 100 -177 89 -181.5 c 128,-1,65
 78 -186 78 -186 59 -186 c 0,66,67
 50 -186 50 -186 52 -193 c 128,-1,68
 54 -200 54 -200 64.5 -208 c 128,-1,69
 75 -216 75 -216 92 -223 c 128,-1,70
 109 -230 109 -230 130 -230 c 0,71,72
 147 -231 147 -231 165.5 -222.5 c 128,-1,73
 184 -214 184 -214 199 -198.5 c 128,-1,74
 214 -183 214 -183 223 -161 c 128,-1,75
 232 -139 232 -139 232 -114 c 0,76,77
 232 -92 232 -92 223 -76.5 c 128,-1,78
 214 -61 214 -61 199.5 -49.5 c 128,-1,79
 185 -38 185 -38 166 -29 c 128,-1,80
 147 -20 147 -20 128 -13 c 0,81,82
 122 -11 122 -11 119 -10 c 128,-1,83
 116 -9 116 -9 114.5 -9 c 128,-1,84
 113 -9 113 -9 111.5 -9 c 128,-1,85
 110 -9 110 -9 105 -9 c 1,86,-1
 105 9 l 1,0,1
EndSplineSet
Validated: 33
EndChar

StartChar: four
Encoding: 52 52 21
Width: 356
Flags: W
LayerCount: 2
Fore
SplineSet
280 260 m 1,0,1
 239 189 239 189 202.5 127.5 c 128,-1,2
 166 66 166 66 135 26 c 0,3,4
 128 17 128 17 113.5 -5 c 128,-1,5
 99 -27 99 -27 84.5 -50 c 128,-1,6
 70 -73 70 -73 57.5 -92 c 128,-1,7
 45 -111 45 -111 42 -116 c 1,8,-1
 179 -116 l 1,9,-1
 179 52 l 1,10,-1
 294 148 l 1,11,-1
 294 -116 l 1,12,-1
 343 -116 l 1,13,-1
 343 -138 l 1,14,-1
 294 -138 l 2,15,16
 293 -140 293 -140 293 -149 c 128,-1,17
 293 -158 293 -158 293.5 -169.5 c 128,-1,18
 294 -181 294 -181 295.5 -192 c 128,-1,19
 297 -203 297 -203 299 -209 c 256,20,21
 301 -215 301 -215 307.5 -220.5 c 128,-1,22
 314 -226 314 -226 322 -229.5 c 128,-1,23
 330 -233 330 -233 336 -235.5 c 128,-1,24
 342 -238 342 -238 343 -238 c 2,25,-1
 343 -260 l 1,26,-1
 128 -260 l 1,27,-1
 128 -238 l 2,28,29
 129 -238 129 -238 136 -235.5 c 128,-1,30
 143 -233 143 -233 151.5 -229.5 c 128,-1,31
 160 -226 160 -226 166.5 -221.5 c 128,-1,32
 173 -217 173 -217 174 -211 c 0,33,34
 176 -205 176 -205 177 -193 c 128,-1,35
 178 -181 178 -181 178.5 -169.5 c 128,-1,36
 179 -158 179 -158 179 -148.5 c 128,-1,37
 179 -139 179 -139 179 -138 c 2,38,-1
 0 -138 l 1,39,40
 0 -131 0 -131 -1 -124 c 128,-1,41
 -2 -117 -2 -117 0 -116 c 0,42,43
 37 -89 37 -89 62 -52 c 128,-1,44
 87 -15 87 -15 102.5 25.5 c 128,-1,45
 118 66 118 66 126.5 106 c 128,-1,46
 135 146 135 146 139 179 c 128,-1,47
 143 212 143 212 145.5 234 c 128,-1,48
 148 256 148 256 152 260 c 1,49,-1
 280 260 l 1,0,1
EndSplineSet
Validated: 1
EndChar

StartChar: five
Encoding: 53 53 22
Width: 323
Flags: W
LayerCount: 2
Fore
SplineSet
25 260 m 2,0,1
 27 259 27 259 39.5 256.5 c 128,-1,2
 52 254 52 254 70.5 251 c 128,-1,3
 89 248 89 248 109.5 245.5 c 128,-1,4
 130 243 130 243 148 243 c 0,5,6
 167 243 167 243 190 245.5 c 128,-1,7
 213 248 213 248 232.5 251 c 128,-1,8
 252 254 252 254 266 256.5 c 128,-1,9
 280 259 280 259 283 260 c 1,10,11
 281 237 281 237 274 215.5 c 128,-1,12
 267 194 267 194 247 179 c 0,13,14
 232 168 232 168 201 165 c 128,-1,15
 170 162 170 162 139.5 163.5 c 128,-1,16
 109 165 109 165 84 169.5 c 128,-1,17
 59 174 59 174 56 177 c 2,18,-1
 56 33 l 1,19,20
 76 56 76 56 102 67 c 128,-1,21
 128 78 128 78 152 78 c 0,22,23
 226 78 226 78 266 38 c 128,-1,24
 306 -2 306 -2 310 -62 c 0,25,26
 313 -104 313 -104 296 -142.5 c 128,-1,27
 279 -181 279 -181 248.5 -209 c 128,-1,28
 218 -237 218 -237 178.5 -250.5 c 128,-1,29
 139 -264 139 -264 98 -258 c 0,30,31
 83 -256 83 -256 66.5 -250 c 128,-1,32
 50 -244 50 -244 36 -231.5 c 128,-1,33
 22 -219 22 -219 12.5 -198 c 128,-1,34
 3 -177 3 -177 3 -144 c 0,35,36
 3 -119 3 -119 17.5 -101.5 c 128,-1,37
 32 -84 32 -84 63 -84 c 0,38,39
 90 -84 90 -84 108 -98 c 128,-1,40
 126 -112 126 -112 126 -141 c 0,41,42
 126 -163 126 -163 120 -174 c 128,-1,43
 114 -185 114 -185 104.5 -191 c 128,-1,44
 95 -197 95 -197 85.5 -198 c 128,-1,45
 76 -199 76 -199 69 -199.5 c 128,-1,46
 62 -200 62 -200 59.5 -202 c 128,-1,47
 57 -204 57 -204 63 -210 c 0,48,49
 80 -228 80 -228 98 -233.5 c 128,-1,50
 116 -239 116 -239 135 -237 c 0,51,52
 172 -233 172 -233 200.5 -195 c 128,-1,53
 229 -157 229 -157 230 -79 c 0,54,55
 230 -56 230 -56 224.5 -33.5 c 128,-1,56
 219 -11 219 -11 207 6.5 c 128,-1,57
 195 24 195 24 177.5 35 c 128,-1,58
 160 46 160 46 137 46 c 0,59,60
 84 46 84 46 56 -2 c 1,61,-1
 25 -2 l 1,62,-1
 25 260 l 2,0,1
EndSplineSet
Validated: 33
EndChar

StartChar: six
Encoding: 54 54 23
Width: 352
Flags: W
LayerCount: 2
Fore
SplineSet
254 -122 m 0,0,1
 254 -102 254 -102 252.5 -79 c 128,-1,2
 251 -56 251 -56 245 -37 c 128,-1,3
 239 -18 239 -18 226.5 -6 c 128,-1,4
 214 6 214 6 194 6 c 0,5,6
 172 6 172 6 159 -6 c 128,-1,7
 146 -18 146 -18 139.5 -37 c 128,-1,8
 133 -56 133 -56 131 -78.5 c 128,-1,9
 129 -101 129 -101 130 -122 c 0,10,11
 130 -141 130 -141 132.5 -162 c 128,-1,12
 135 -183 135 -183 142.5 -200 c 128,-1,13
 150 -217 150 -217 162 -228 c 128,-1,14
 174 -239 174 -239 194 -239 c 0,15,16
 212 -239 212 -239 224 -227.5 c 128,-1,17
 236 -216 236 -216 242 -199 c 128,-1,18
 248 -182 248 -182 250.5 -161.5 c 128,-1,19
 253 -141 253 -141 254 -122 c 0,0,1
261 209 m 0,20,21
 265 209 265 209 258 216.5 c 128,-1,22
 251 224 251 224 237.5 231.5 c 128,-1,23
 224 239 224 239 206.5 242 c 128,-1,24
 189 245 189 245 172 236 c 0,25,26
 154 226 154 226 141.5 204 c 128,-1,27
 129 182 129 182 122.5 155 c 128,-1,28
 116 128 116 128 114 99 c 128,-1,29
 112 70 112 70 113 45 c 128,-1,30
 114 20 114 20 118 3 c 128,-1,31
 122 -14 122 -14 128 -16 c 1,32,33
 146 11 146 11 171 22 c 128,-1,34
 196 33 196 33 228 33 c 0,35,36
 257 33 257 33 278 19.5 c 128,-1,37
 299 6 299 6 313 -15 c 128,-1,38
 327 -36 327 -36 333 -60.5 c 128,-1,39
 339 -85 339 -85 339 -106 c 0,40,41
 338 -143 338 -143 325.5 -172 c 128,-1,42
 313 -201 313 -201 293 -220.5 c 128,-1,43
 273 -240 273 -240 246 -250 c 128,-1,44
 219 -260 219 -260 187 -259 c 0,45,46
 141 -258 141 -258 106.5 -234.5 c 128,-1,47
 72 -211 72 -211 49 -173 c 128,-1,48
 26 -135 26 -135 14 -88.5 c 128,-1,49
 2 -42 2 -42 3 5 c 256,50,51
 4 52 4 52 19.5 97.5 c 128,-1,52
 35 143 35 143 61.5 179 c 128,-1,53
 88 215 88 215 123.5 237 c 128,-1,54
 159 259 159 259 199 259 c 0,55,56
 240 259 240 259 264.5 245.5 c 128,-1,57
 289 232 289 232 302 214 c 128,-1,58
 315 196 315 196 320 176.5 c 128,-1,59
 325 157 325 157 325 143 c 0,60,61
 325 116 325 116 307 98.5 c 128,-1,62
 289 81 289 81 268 79 c 0,63,64
 241 76 241 76 223 92 c 128,-1,65
 205 108 205 108 205 143 c 0,66,67
 205 160 205 160 211.5 173 c 128,-1,68
 218 186 218 186 227.5 194 c 128,-1,69
 237 202 237 202 246.5 205.5 c 128,-1,70
 256 209 256 209 261 209 c 0,20,21
EndSplineSet
Validated: 33
EndChar

StartChar: seven
Encoding: 55 55 24
Width: 355
Flags: W
LayerCount: 2
Fore
SplineSet
99 -260 m 1,0,1
 100 -256 100 -256 102 -234 c 128,-1,2
 104 -212 104 -212 112.5 -181.5 c 128,-1,3
 121 -151 121 -151 137 -116.5 c 128,-1,4
 153 -82 153 -82 181 -54 c 0,5,6
 204 -31 204 -31 227 -7.5 c 128,-1,7
 250 16 250 16 268.5 39.5 c 128,-1,8
 287 63 287 63 299.5 84 c 128,-1,9
 312 105 312 105 315 121 c 0,10,11
 321 141 321 141 323 159 c 1,12,13
 305 147 305 147 279 136.5 c 128,-1,14
 253 126 253 126 232 127 c 0,15,16
 201 127 201 127 180.5 135.5 c 128,-1,17
 160 144 160 144 143 154 c 128,-1,18
 126 164 126 164 110.5 171.5 c 128,-1,19
 95 179 95 179 77 179 c 0,20,21
 62 179 62 179 52 173 c 128,-1,22
 42 167 42 167 36.5 160 c 128,-1,23
 31 153 31 153 28.5 145.5 c 128,-1,24
 26 138 26 138 24 135 c 2,25,-1
 4 135 l 1,26,-1
 4 245 l 1,27,-1
 22 245 l 1,28,29
 24 239 24 239 28.5 226 c 128,-1,30
 33 213 33 213 46 213 c 0,31,32
 56 213 56 213 68 220.5 c 128,-1,33
 80 228 80 228 93 237 c 128,-1,34
 106 246 106 246 120.5 253 c 128,-1,35
 135 260 135 260 153 260 c 0,36,37
 178 259 178 259 192.5 251.5 c 128,-1,38
 207 244 207 244 218.5 235 c 128,-1,39
 230 226 230 226 243.5 220 c 128,-1,40
 257 214 257 214 280 215 c 0,41,42
 293 215 293 215 300.5 221 c 128,-1,43
 308 227 308 227 312.5 235 c 128,-1,44
 317 243 317 243 319 250 c 128,-1,45
 321 257 321 257 322 260 c 2,46,-1
 342 260 l 2,47,48
 342 258 342 258 342.5 248.5 c 128,-1,49
 343 239 343 239 343 224.5 c 128,-1,50
 343 210 343 210 343 193 c 128,-1,51
 343 176 343 176 342 160 c 0,52,53
 340 126 340 126 331.5 97.5 c 128,-1,54
 323 69 323 69 310.5 42.5 c 128,-1,55
 298 16 298 16 283 -7.5 c 128,-1,56
 268 -31 268 -31 255 -54 c 0,57,58
 239 -83 239 -83 232 -118 c 128,-1,59
 225 -153 225 -153 223.5 -183.5 c 128,-1,60
 222 -214 222 -214 223.5 -235.5 c 128,-1,61
 225 -257 225 -257 225 -260 c 2,62,-1
 99 -260 l 1,0,1
EndSplineSet
Validated: 33
EndChar

StartChar: eight
Encoding: 56 56 25
Width: 334
Flags: W
LayerCount: 2
Fore
SplineSet
109 -15 m 0,0,1
 100 -20 100 -20 88 -27 c 128,-1,2
 76 -34 76 -34 66.5 -44 c 128,-1,3
 57 -54 57 -54 51 -69 c 128,-1,4
 45 -84 45 -84 46 -103 c 0,5,6
 47 -126 47 -126 54.5 -148.5 c 128,-1,7
 62 -171 62 -171 77 -189.5 c 128,-1,8
 92 -208 92 -208 113 -219 c 128,-1,9
 134 -230 134 -230 162 -230 c 0,10,11
 188 -230 188 -230 205.5 -223 c 128,-1,12
 223 -216 223 -216 235 -205.5 c 128,-1,13
 247 -195 247 -195 252 -182 c 128,-1,14
 257 -169 257 -169 257 -158 c 0,15,16
 257 -148 257 -148 250.5 -135.5 c 128,-1,17
 244 -123 244 -123 233 -111 c 128,-1,18
 222 -99 222 -99 209.5 -88.5 c 128,-1,19
 197 -78 197 -78 184 -71 c 0,20,21
 145 -46 145 -46 128 -31 c 128,-1,22
 111 -16 111 -16 109 -15 c 0,0,1
205 45 m 0,23,24
 215 49 215 49 225.5 58 c 128,-1,25
 236 67 236 67 244 78 c 128,-1,26
 252 89 252 89 256.5 102 c 128,-1,27
 261 115 261 115 261 128 c 0,28,29
 259 174 259 174 234 203 c 128,-1,30
 209 232 209 232 163 232 c 0,31,32
 145 232 145 232 129.5 225.5 c 128,-1,33
 114 219 114 219 102.5 208 c 128,-1,34
 91 197 91 197 85 182.5 c 128,-1,35
 79 168 79 168 79 154 c 0,36,37
 79 144 79 144 86 134.5 c 128,-1,38
 93 125 93 125 103 117 c 128,-1,39
 113 109 113 109 123.5 101.5 c 128,-1,40
 134 94 134 94 142 90 c 0,41,42
 178 67 178 67 190.5 57 c 128,-1,43
 203 47 203 47 205 45 c 0,23,24
229 27 m 1,44,45
 231 26 231 26 246 15.5 c 128,-1,46
 261 5 261 5 278 -11 c 128,-1,47
 295 -27 295 -27 308.5 -48.5 c 128,-1,48
 322 -70 322 -70 322 -93 c 0,49,50
 322 -138 322 -138 307 -169.5 c 128,-1,51
 292 -201 292 -201 268.5 -221 c 128,-1,52
 245 -241 245 -241 216.5 -250 c 128,-1,53
 188 -259 188 -259 162 -259 c 0,54,55
 128 -259 128 -259 99 -246.5 c 128,-1,56
 70 -234 70 -234 49 -212.5 c 128,-1,57
 28 -191 28 -191 15.5 -161 c 128,-1,58
 3 -131 3 -131 3 -93 c 0,59,60
 3 -76 3 -76 13 -59.5 c 128,-1,61
 23 -43 23 -43 35.5 -29.5 c 128,-1,62
 48 -16 48 -16 62 -6.5 c 128,-1,63
 76 3 76 3 84 6 c 1,64,65
 78 10 78 10 66.5 19.5 c 128,-1,66
 55 29 55 29 44.5 43.5 c 128,-1,67
 34 58 34 58 25.5 78 c 128,-1,68
 17 98 17 98 17 125 c 0,69,70
 17 157 17 157 30.5 182 c 128,-1,71
 44 207 44 207 64.5 224.5 c 128,-1,72
 85 242 85 242 111 250.5 c 128,-1,73
 137 259 137 259 163 259 c 0,74,75
 191 259 191 259 218 250.5 c 128,-1,76
 245 242 245 242 265.5 224.5 c 128,-1,77
 286 207 286 207 297.5 182 c 128,-1,78
 309 157 309 157 306 125 c 0,79,80
 304 108 304 108 295.5 91.5 c 128,-1,81
 287 75 287 75 275 62 c 128,-1,82
 263 49 263 49 250.5 39.5 c 128,-1,83
 238 30 238 30 229 27 c 1,44,45
EndSplineSet
Validated: 33
EndChar

StartChar: nine
Encoding: 57 57 26
Width: 350
Flags: W
LayerCount: 2
Fore
SplineSet
85 122 m 0,0,1
 85 102 85 102 86.5 79 c 128,-1,2
 88 56 88 56 94 37 c 128,-1,3
 100 18 100 18 112.5 6 c 128,-1,4
 125 -6 125 -6 145 -6 c 0,5,6
 167 -6 167 -6 180 6 c 128,-1,7
 193 18 193 18 199.5 37 c 128,-1,8
 206 56 206 56 208 78.5 c 128,-1,9
 210 101 210 101 209 122 c 0,10,11
 209 141 209 141 206 162 c 128,-1,12
 203 183 203 183 196 200 c 128,-1,13
 189 217 189 217 177 228 c 128,-1,14
 165 239 165 239 145 239 c 256,15,16
 126 239 126 239 114.5 227.5 c 128,-1,17
 103 216 103 216 96.5 199 c 128,-1,18
 90 182 90 182 88 161.5 c 128,-1,19
 86 141 86 141 85 122 c 0,0,1
78 -209 m 0,20,21
 74 -209 74 -209 81 -216.5 c 128,-1,22
 88 -224 88 -224 101.5 -231.5 c 128,-1,23
 115 -239 115 -239 132.5 -242 c 128,-1,24
 150 -245 150 -245 167 -236 c 0,25,26
 185 -227 185 -227 197.5 -204.5 c 128,-1,27
 210 -182 210 -182 216.5 -155 c 128,-1,28
 223 -128 223 -128 225 -99 c 128,-1,29
 227 -70 227 -70 226 -45 c 128,-1,30
 225 -20 225 -20 221 -3 c 128,-1,31
 217 14 217 14 211 16 c 1,32,33
 193 -11 193 -11 168 -22 c 128,-1,34
 143 -33 143 -33 111 -33 c 0,35,36
 82 -33 82 -33 61 -19.5 c 128,-1,37
 40 -6 40 -6 26 15 c 128,-1,38
 12 36 12 36 6 60.5 c 128,-1,39
 0 85 0 85 0 106 c 0,40,41
 1 143 1 143 13.5 172 c 128,-1,42
 26 201 26 201 46 220.5 c 128,-1,43
 66 240 66 240 93 250 c 128,-1,44
 120 260 120 260 152 259 c 0,45,46
 198 258 198 258 232.5 234.5 c 128,-1,47
 267 211 267 211 290 173 c 128,-1,48
 313 135 313 135 325 88.5 c 128,-1,49
 337 42 337 42 336 -5 c 256,50,51
 335 -52 335 -52 319.5 -97.5 c 128,-1,52
 304 -143 304 -143 277.5 -179 c 128,-1,53
 251 -215 251 -215 215.5 -237 c 128,-1,54
 180 -259 180 -259 140 -259 c 0,55,56
 99 -259 99 -259 74.5 -245.5 c 128,-1,57
 50 -232 50 -232 37 -214 c 128,-1,58
 24 -196 24 -196 19 -176.5 c 128,-1,59
 14 -157 14 -157 14 -143 c 0,60,61
 14 -116 14 -116 32 -98.5 c 128,-1,62
 50 -81 50 -81 71 -79 c 0,63,64
 98 -76 98 -76 116 -92 c 128,-1,65
 134 -108 134 -108 134 -143 c 0,66,67
 134 -160 134 -160 127.5 -173 c 128,-1,68
 121 -186 121 -186 111.5 -194 c 128,-1,69
 102 -202 102 -202 92.5 -205.5 c 128,-1,70
 83 -209 83 -209 78 -209 c 0,20,21
EndSplineSet
Validated: 33
EndChar

StartChar: colon
Encoding: 58 58 27
Width: 293
Flags: W
LayerCount: 2
Fore
SplineSet
110 -17 m 0,0,1
 88 -28 88 -28 65 -31 c 128,-1,2
 42 -34 42 -34 25 -17 c 1,3,-1
 25 -308 l 1,4,-1
 25 -332 l 1,5,-1
 26 -332 l 2,6,7
 37 -334 37 -334 53.5 -326 c 128,-1,8
 70 -318 70 -318 86.5 -304.5 c 128,-1,9
 103 -291 103 -291 117.5 -273 c 128,-1,10
 132 -255 132 -255 140 -237 c 0,11,12
 155 -199 155 -199 153.5 -164.5 c 128,-1,13
 152 -130 152 -130 142.5 -105 c 128,-1,14
 133 -80 133 -80 122.5 -64.5 c 128,-1,15
 112 -49 112 -49 111 -47 c 2,16,-1
 114 -46 l 1,17,18
 122 -54 122 -54 140 -85.5 c 128,-1,19
 158 -117 158 -117 167 -163 c 0,20,21
 169 -172 169 -172 169.5 -186 c 128,-1,22
 170 -200 170 -200 168.5 -216 c 128,-1,23
 167 -232 167 -232 161.5 -249.5 c 128,-1,24
 156 -267 156 -267 145 -284 c 0,25,26
 138 -296 138 -296 124.5 -309.5 c 128,-1,27
 111 -323 111 -323 96 -336.5 c 128,-1,28
 81 -350 81 -350 68 -362.5 c 128,-1,29
 55 -375 55 -375 50 -384 c 0,30,31
 28 -424 28 -424 26 -439.5 c 128,-1,32
 24 -455 24 -455 24 -456 c 2,33,-1
 11 -456 l 1,34,-1
 11 -308 l 1,35,-1
 11 1 l 1,36,-1
 12 0 l 1,37,38
 5 23 5 23 19.5 48 c 128,-1,39
 34 73 34 73 56 85 c 0,40,41
 79 98 79 98 103 98.5 c 128,-1,42
 127 99 127 99 144 81 c 0,43,44
 154 70 154 70 155 56 c 128,-1,45
 156 42 156 42 150 28 c 128,-1,46
 144 14 144 14 133.5 2 c 128,-1,47
 123 -10 123 -10 110 -17 c 0,0,1
EndSplineSet
Validated: 33
EndChar

StartChar: semicolon
Encoding: 59 59 28
AltUni2: 00037e.ffffffff.0
Width: 293
Flags: W
LayerCount: 2
Fore
SplineSet
153 47 m 1,0,1
 158 24 158 24 143.5 1 c 128,-1,2
 129 -22 129 -22 109 -33 c 0,3,4
 86 -46 86 -46 62 -47 c 128,-1,5
 38 -48 38 -48 20 -29 c 0,6,7
 10 -19 10 -19 9 -5 c 128,-1,8
 8 9 8 9 13.5 23 c 128,-1,9
 19 37 19 37 30.5 49 c 128,-1,10
 42 61 42 61 55 70 c 0,11,12
 75 81 75 81 99 83.5 c 128,-1,13
 123 86 123 86 140 70 c 1,14,-1
 140 365 l 1,15,-1
 140 512 l 1,16,-1
 152 512 l 2,17,18
 152 511 152 511 154.5 495.5 c 128,-1,19
 157 480 157 480 179 440 c 0,20,21
 183 431 183 431 196 419 c 128,-1,22
 209 407 209 407 224 393 c 128,-1,23
 239 379 239 379 253 365 c 128,-1,24
 267 351 267 351 274 340 c 0,25,26
 293 307 293 307 296 272.5 c 128,-1,27
 299 238 299 238 296 219 c 0,28,29
 286 174 286 174 268 142.5 c 128,-1,30
 250 111 250 111 243 102 c 1,31,-1
 240 103 l 2,32,33
 241 104 241 104 251.5 120 c 128,-1,34
 262 136 262 136 271 161 c 128,-1,35
 280 186 280 186 282 220 c 128,-1,36
 284 254 284 254 268 293 c 0,37,38
 260 311 260 311 245.5 329 c 128,-1,39
 231 347 231 347 214.5 361 c 128,-1,40
 198 375 198 375 181.5 382 c 128,-1,41
 165 389 165 389 155 388 c 2,42,-1
 153 388 l 1,43,-1
 153 365 l 1,44,-1
 153 47 l 1,0,1
EndSplineSet
Validated: 33
EndChar

StartChar: less
Encoding: 60 60 29
Width: 303
Flags: W
LayerCount: 2
Fore
SplineSet
114 117 m 256,0,1
 114 134 114 134 126.5 145 c 128,-1,2
 139 156 139 156 156 156 c 256,3,4
 172 156 172 156 183.5 144.5 c 128,-1,5
 195 133 195 133 195 117 c 256,6,7
 195 101 195 101 183.5 89.5 c 128,-1,8
 172 78 172 78 156 78 c 256,9,10
 140 78 140 78 127 89 c 128,-1,11
 114 100 114 100 114 117 c 256,0,1
0 23 m 1,12,-1
 303 23 l 1,13,-1
 303 2 l 1,14,-1
 0 2 l 1,15,-1
 0 23 l 1,12,-1
EndSplineSet
Validated: 1
EndChar

StartChar: equal
Encoding: 61 61 30
Width: 1038
Flags: W
LayerCount: 2
Fore
SplineSet
0 9 m 1,0,-1
 1038 9 l 1,1,-1
 1038 -10 l 1,2,-1
 0 -10 l 1,3,-1
 0 9 l 1,0,-1
0 269 m 1,4,-1
 1038 269 l 1,5,-1
 1038 250 l 1,6,-1
 0 250 l 1,7,-1
 0 269 l 1,4,-1
0 528 m 1,8,-1
 1038 528 l 1,9,-1
 1038 509 l 1,10,-1
 0 509 l 1,11,-1
 0 528 l 1,8,-1
0 792 m 1,12,-1
 1038 792 l 1,13,-1
 1038 772 l 1,14,-1
 0 772 l 1,15,-1
 0 792 l 1,12,-1
0 1048 m 1,16,-1
 1038 1048 l 1,17,-1
 1038 1028 l 1,18,-1
 0 1028 l 1,19,-1
 0 1048 l 1,16,-1
EndSplineSet
Validated: 1
EndChar

StartChar: greater
Encoding: 62 62 31
Width: 399
Flags: W
LayerCount: 2
Fore
SplineSet
0 0 m 1,0,-1
 0 17 l 1,1,-1
 325 87 l 1,2,-1
 0 156 l 1,3,-1
 0 173 l 1,4,-1
 399 87 l 1,5,-1
 0 0 l 1,0,-1
EndSplineSet
Validated: 1
EndChar

StartChar: question
Encoding: 63 63 32
Width: 740
Flags: W
LayerCount: 2
Fore
SplineSet
617 -71 m 0,0,1
 634 -51 634 -51 662 -49 c 128,-1,2
 690 -47 690 -47 710 -67 c 0,3,4
 727 -83 727 -83 729 -106.5 c 128,-1,5
 731 -130 731 -130 717 -150 c 0,6,7
 701 -172 701 -172 673 -174 c 128,-1,8
 645 -176 645 -176 625 -159 c 0,9,10
 606 -142 606 -142 603.5 -116.5 c 128,-1,11
 601 -91 601 -91 617 -71 c 0,0,1
617 152 m 0,12,13
 634 172 634 172 662 173.5 c 128,-1,14
 690 175 690 175 710 156 c 0,15,16
 727 140 727 140 729 116 c 128,-1,17
 731 92 731 92 717 72 c 0,18,19
 701 52 701 52 673 49 c 128,-1,20
 645 46 645 46 625 63 c 0,21,22
 606 80 606 80 603.5 106 c 128,-1,23
 601 132 601 132 617 152 c 0,12,13
144 179 m 0,24,25
 114 151 114 151 124 113 c 0,26,27
 127 101 127 101 135 94 c 128,-1,28
 143 87 143 87 155 83.5 c 128,-1,29
 167 80 167 80 181 78 c 128,-1,30
 195 76 195 76 208 75 c 0,31,32
 231 72 231 72 242.5 62.5 c 128,-1,33
 254 53 254 53 259 41 c 128,-1,34
 264 29 264 29 264 15.5 c 128,-1,35
 264 2 264 2 264 -8 c 0,36,37
 263 -28 263 -28 253 -43 c 128,-1,38
 243 -58 243 -58 227 -68 c 128,-1,39
 211 -78 211 -78 191 -82.5 c 128,-1,40
 171 -87 171 -87 152 -87 c 0,41,42
 129 -87 129 -87 108.5 -81 c 128,-1,43
 88 -75 88 -75 72 -62.5 c 128,-1,44
 56 -50 56 -50 46.5 -30.5 c 128,-1,45
 37 -11 37 -11 36 15 c 0,46,47
 34 59 34 59 53 107 c 128,-1,48
 72 155 72 155 111 198 c 0,49,50
 133 222 133 222 163.5 234 c 128,-1,51
 194 246 194 246 226.5 250.5 c 128,-1,52
 259 255 259 255 291.5 253.5 c 128,-1,53
 324 252 324 252 350 248 c 0,54,55
 405 238 405 238 447.5 206.5 c 128,-1,56
 490 175 490 175 517.5 133.5 c 128,-1,57
 545 92 545 92 556.5 45 c 128,-1,58
 568 -2 568 -2 564 -45 c 0,59,60
 557 -107 557 -107 515.5 -168 c 128,-1,61
 474 -229 474 -229 415 -285 c 128,-1,62
 356 -341 356 -341 288.5 -388.5 c 128,-1,63
 221 -436 221 -436 161.5 -470 c 128,-1,64
 102 -504 102 -504 59.5 -522.5 c 128,-1,65
 17 -541 17 -541 8 -538 c 1,66,-1
 4 -519 l 1,67,68
 40 -507 40 -507 82.5 -485 c 128,-1,69
 125 -463 125 -463 169 -431 c 0,70,71
 219 -395 219 -395 259 -360 c 128,-1,72
 299 -325 299 -325 328.5 -283.5 c 128,-1,73
 358 -242 358 -242 378 -192 c 128,-1,74
 398 -142 398 -142 409 -77 c 0,75,76
 416 -31 416 -31 416 10 c 128,-1,77
 416 51 416 51 407 85.5 c 128,-1,78
 398 120 398 120 379 147 c 128,-1,79
 360 174 360 174 329 194 c 0,80,81
 300 211 300 211 271.5 214.5 c 128,-1,82
 243 218 243 218 218.5 213.5 c 128,-1,83
 194 209 194 209 174 199 c 128,-1,84
 154 189 154 189 144 179 c 0,24,25
EndSplineSet
Validated: 33
EndChar

StartChar: at
Encoding: 64 64 33
Width: 343
Flags: W
LayerCount: 2
Fore
SplineSet
343 170 m 1,0,-1
 1 0 l 1,1,-1
 1 79 l 1,2,-1
 343 250 l 1,3,-1
 343 170 l 1,0,-1
343 300 m 1,4,-1
 1 130 l 1,5,-1
 1 209 l 1,6,-1
 343 379 l 1,7,-1
 343 300 l 1,4,-1
EndSplineSet
Validated: 1
EndChar

StartChar: A
Encoding: 65 65 34
Width: 664
Flags: W
LayerCount: 2
Fore
SplineSet
378 92 m 0,0,1
 375 93 375 93 368 95.5 c 128,-1,2
 361 98 361 98 350 96.5 c 128,-1,3
 339 95 339 95 322.5 88 c 128,-1,4
 306 81 306 81 285 62 c 1,5,-1
 285 -141 l 2,6,7
 286 -142 286 -142 300 -129 c 128,-1,8
 314 -116 314 -116 332.5 -95 c 128,-1,9
 351 -74 351 -74 370 -47 c 128,-1,10
 389 -20 389 -20 399.5 6 c 128,-1,11
 410 32 410 32 406.5 55 c 128,-1,12
 403 78 403 78 378 92 c 0,0,1
285 498 m 1,13,-1
 285 89 l 1,14,15
 296 96 l 0,16,17
 307 103 307 103 325 111 c 128,-1,18
 343 119 343 119 365 124.5 c 128,-1,19
 387 130 387 130 408 128.5 c 128,-1,20
 429 127 429 127 446.5 114.5 c 128,-1,21
 464 102 464 102 473 74 c 0,22,23
 483 42 483 42 472.5 12.5 c 128,-1,24
 462 -17 462 -17 441 -43 c 128,-1,25
 420 -69 420 -69 394.5 -88.5 c 128,-1,26
 369 -108 369 -108 349 -118 c 0,27,28
 340 -124 340 -124 325.5 -136 c 128,-1,29
 311 -148 311 -148 297.5 -161.5 c 128,-1,30
 284 -175 284 -175 272 -186.5 c 128,-1,31
 260 -198 260 -198 256 -201 c 1,32,-1
 256 498 l 1,33,-1
 285 498 l 1,13,-1
586 0 m 256,34,35
 586 46 586 46 581.5 82.5 c 128,-1,36
 577 119 577 119 562 151.5 c 128,-1,37
 547 184 547 184 519.5 215.5 c 128,-1,38
 492 247 492 247 446 281 c 1,39,40
 477 270 477 270 511.5 241 c 128,-1,41
 546 212 546 212 575 173.5 c 128,-1,42
 604 135 604 135 623 90 c 128,-1,43
 642 45 642 45 641 0 c 0,44,45
 640 -51 640 -51 620.5 -97 c 128,-1,46
 601 -143 601 -143 573 -180.5 c 128,-1,47
 545 -218 545 -218 511 -244 c 128,-1,48
 477 -270 477 -270 446 -282 c 1,49,50
 492 -247 492 -247 519.5 -216 c 128,-1,51
 547 -185 547 -185 562 -152.5 c 128,-1,52
 577 -120 577 -120 581.5 -83 c 128,-1,53
 586 -46 586 -46 586 0 c 256,34,35
198 281 m 1,54,55
 152 247 152 247 124.5 215.5 c 128,-1,56
 97 184 97 184 82.5 151.5 c 128,-1,57
 68 119 68 119 63 82.5 c 128,-1,58
 58 46 58 46 58 0 c 256,59,60
 58 -46 58 -46 63 -83 c 128,-1,61
 68 -120 68 -120 82.5 -152.5 c 128,-1,62
 97 -185 97 -185 124.5 -216 c 128,-1,63
 152 -247 152 -247 198 -282 c 1,64,65
 167 -271 167 -271 132.5 -244 c 128,-1,66
 98 -217 98 -217 69.5 -180 c 128,-1,67
 41 -143 41 -143 22 -97 c 128,-1,68
 3 -51 3 -51 3 0 c 0,69,70
 3 45 3 45 22 90 c 128,-1,71
 41 135 41 135 69.5 173.5 c 128,-1,72
 98 212 98 212 132.5 241 c 128,-1,73
 167 270 167 270 198 281 c 1,54,55
EndSplineSet
Validated: 33
Position2: "'cpsp' Capital Spacing in Latin lookup 0 subtable" dx=7 dy=0 dh=14 dv=0
EndChar

StartChar: B
Encoding: 66 66 35
Width: 692
Flags: W
LayerCount: 2
Fore
SplineSet
303 -71 m 0,0,1
 284 -47 284 -47 266 -31.5 c 128,-1,2
 248 -16 248 -16 220 -1 c 1,3,4
 247 13 247 13 264 28 c 128,-1,5
 281 43 281 43 300 67 c 0,6,7
 326 99 326 99 338.5 127 c 128,-1,8
 351 155 351 155 357 195 c 1,9,10
 361 172 361 172 367.5 152 c 128,-1,11
 374 132 374 132 386 117 c 128,-1,12
 398 102 398 102 419 94.5 c 128,-1,13
 440 87 440 87 474 88 c 0,14,15
 509 89 509 89 531.5 109 c 128,-1,16
 554 129 554 129 567 159 c 128,-1,17
 580 189 580 189 584 225.5 c 128,-1,18
 588 262 588 262 587 297 c 0,19,20
 586 331 586 331 580.5 366 c 128,-1,21
 575 401 575 401 563 430.5 c 128,-1,22
 551 460 551 460 529 479 c 128,-1,23
 507 498 507 498 472 498 c 0,24,25
 445 498 445 498 423.5 489 c 128,-1,26
 402 480 402 480 389.5 470 c 128,-1,27
 377 460 377 460 376.5 451.5 c 128,-1,28
 376 443 376 443 391 445 c 0,29,30
 401 446 401 446 414.5 443 c 128,-1,31
 428 440 428 440 439 433.5 c 128,-1,32
 450 427 450 427 457.5 415 c 128,-1,33
 465 403 465 403 465 388 c 0,34,35
 465 358 465 358 444 340.5 c 128,-1,36
 423 323 423 323 391 323 c 0,37,38
 360 323 360 323 336.5 342.5 c 128,-1,39
 313 362 313 362 313 392 c 0,40,41
 313 414 313 414 326 436.5 c 128,-1,42
 339 459 339 459 362 477.5 c 128,-1,43
 385 496 385 496 418 507.5 c 128,-1,44
 451 519 451 519 490 519 c 0,45,46
 539 519 539 519 578 501.5 c 128,-1,47
 617 484 617 484 645 454.5 c 128,-1,48
 673 425 673 425 689.5 385.5 c 128,-1,49
 706 346 706 346 709 301 c 0,50,51
 712 249 712 249 693 203 c 128,-1,52
 674 157 674 157 638.5 122.5 c 128,-1,53
 603 88 603 88 556 68 c 128,-1,54
 509 48 509 48 457 49 c 0,55,56
 433 49 433 49 417.5 53.5 c 128,-1,57
 402 58 402 58 381 67 c 1,58,59
 376 53 376 53 369 43 c 128,-1,60
 362 33 362 33 352 22 c 0,61,62
 344 14 344 14 337 8 c 128,-1,63
 330 2 330 2 321 -3 c 1,64,65
 331 -8 331 -8 338 -14 c 128,-1,66
 345 -20 345 -20 353 -29 c 0,67,68
 364 -40 364 -40 371 -49.5 c 128,-1,69
 378 -59 378 -59 384 -74 c 1,70,71
 404 -66 404 -66 420 -61 c 128,-1,72
 436 -56 436 -56 459 -56 c 0,73,74
 511 -55 511 -55 558 -74.5 c 128,-1,75
 605 -94 605 -94 640.5 -128.5 c 128,-1,76
 676 -163 676 -163 695.5 -208.5 c 128,-1,77
 715 -254 715 -254 711 -306 c 0,78,79
 708 -350 708 -350 691.5 -389 c 128,-1,80
 675 -428 675 -428 647.5 -456.5 c 128,-1,81
 620 -485 620 -485 581 -502 c 128,-1,82
 542 -519 542 -519 494 -519 c 0,83,84
 454 -519 454 -519 420.5 -507.5 c 128,-1,85
 387 -496 387 -496 364 -477.5 c 128,-1,86
 341 -459 341 -459 328 -436.5 c 128,-1,87
 315 -414 315 -414 315 -392 c 0,88,89
 315 -362 315 -362 339.5 -342.5 c 128,-1,90
 364 -323 364 -323 394 -323 c 256,91,92
 425 -323 425 -323 446 -341.5 c 128,-1,93
 467 -360 467 -360 467 -389 c 0,94,95
 467 -404 467 -404 460 -415.5 c 128,-1,96
 453 -427 453 -427 441.5 -433.5 c 128,-1,97
 430 -440 430 -440 417 -443 c 128,-1,98
 404 -446 404 -446 394 -445 c 0,99,100
 379 -444 379 -444 379.5 -452 c 128,-1,101
 380 -460 380 -460 393 -470.5 c 128,-1,102
 406 -481 406 -481 427.5 -490 c 128,-1,103
 449 -499 449 -499 474 -499 c 0,104,105
 509 -499 509 -499 531.5 -480.5 c 128,-1,106
 554 -462 554 -462 566.5 -433 c 128,-1,107
 579 -404 579 -404 584 -369.5 c 128,-1,108
 589 -335 589 -335 590 -301 c 0,109,110
 591 -266 591 -266 586.5 -230 c 128,-1,111
 582 -194 582 -194 569 -163.5 c 128,-1,112
 556 -133 556 -133 534 -113 c 128,-1,113
 512 -93 512 -93 477 -92 c 0,114,115
 443 -91 443 -91 422 -99.5 c 128,-1,116
 401 -108 401 -108 389 -122 c 128,-1,117
 377 -136 377 -136 371 -156 c 128,-1,118
 365 -176 365 -176 360 -199 c 1,119,120
 357 -180 357 -180 352.5 -162.5 c 128,-1,121
 348 -145 348 -145 341.5 -130.5 c 128,-1,122
 335 -116 335 -116 325 -101.5 c 128,-1,123
 315 -87 315 -87 303 -71 c 0,0,1
173 515 m 1,124,-1
 216 515 l 1,125,-1
 216 -519 l 1,126,-1
 173 -519 l 1,127,-1
 173 515 l 1,124,-1
0 515 m 1,128,-1
 130 515 l 1,129,-1
 130 -519 l 1,130,-1
 0 -519 l 1,131,-1
 0 515 l 1,128,-1
EndSplineSet
Validated: 33
Position2: "'cpsp' Capital Spacing in Latin lookup 0 subtable" dx=7 dy=0 dh=14 dv=0
EndChar

StartChar: C
Encoding: 67 67 36
Width: 433
Flags: W
LayerCount: 2
Fore
SplineSet
199 216 m 1,0,1
 172 203 172 203 156.5 179.5 c 128,-1,2
 141 156 141 156 133 126 c 128,-1,3
 125 96 125 96 123 63 c 128,-1,4
 121 30 121 30 121 -3 c 0,5,6
 122 -35 122 -35 125 -68 c 128,-1,7
 128 -101 128 -101 136.5 -131.5 c 128,-1,8
 145 -162 145 -162 160 -185 c 128,-1,9
 175 -208 175 -208 199 -219 c 1,10,-1
 199 216 l 1,0,1
199 -252 m 1,11,12
 156 -245 156 -245 120 -221.5 c 128,-1,13
 84 -198 84 -198 58.5 -164 c 128,-1,14
 33 -130 33 -130 18.5 -87.5 c 128,-1,15
 4 -45 4 -45 4 1 c 256,16,17
 4 47 4 47 18.5 89.5 c 128,-1,18
 33 132 33 132 58.5 166.5 c 128,-1,19
 84 201 84 201 120 223.5 c 128,-1,20
 156 246 156 246 199 252 c 1,21,-1
 199 385 l 1,22,-1
 228 385 l 1,23,-1
 228 253 l 1,24,25
 269 253 269 253 305.5 242.5 c 128,-1,26
 342 232 342 232 369 213.5 c 128,-1,27
 396 195 396 195 412 166.5 c 128,-1,28
 428 138 428 138 428 101 c 0,29,30
 428 86 428 86 420 72 c 128,-1,31
 412 58 412 58 399.5 47.5 c 128,-1,32
 387 37 387 37 373 31 c 128,-1,33
 359 25 359 25 349 25 c 256,34,35
 339 25 339 25 324 28.5 c 128,-1,36
 309 32 309 32 295.5 40 c 128,-1,37
 282 48 282 48 272 63 c 128,-1,38
 262 78 262 78 262 101 c 0,39,40
 262 116 262 116 270 128 c 128,-1,41
 278 140 278 140 289.5 148.5 c 128,-1,42
 301 157 301 157 315.5 161.5 c 128,-1,43
 330 166 330 166 343 166 c 0,44,45
 359 166 359 166 362 173 c 128,-1,46
 365 180 365 180 353 191 c 0,47,48
 328 218 328 218 295 225.5 c 128,-1,49
 262 233 262 233 230 227 c 0,50,51
 228 227 228 227 228 226 c 2,52,-1
 228 -226 l 2,53,54
 231 -227 231 -227 238 -227 c 0,55,56
 268 -227 268 -227 297 -215.5 c 128,-1,57
 326 -204 326 -204 349 -183 c 128,-1,58
 372 -162 372 -162 386 -133.5 c 128,-1,59
 400 -105 400 -105 399 -73 c 1,60,-1
 421 -73 l 1,61,62
 421 -83 421 -83 417.5 -97.5 c 128,-1,63
 414 -112 414 -112 409 -126.5 c 128,-1,64
 404 -141 404 -141 397.5 -154.5 c 128,-1,65
 391 -168 391 -168 385 -176 c 0,66,67
 372 -192 372 -192 354 -206.5 c 128,-1,68
 336 -221 336 -221 316 -232 c 128,-1,69
 296 -243 296 -243 275 -249 c 128,-1,70
 254 -255 254 -255 236 -255 c 2,71,-1
 228 -255 l 1,72,-1
 228 -424 l 1,73,-1
 199 -424 l 1,74,-1
 199 -252 l 1,11,12
EndSplineSet
Validated: 33
Position2: "'cpsp' Capital Spacing in Latin lookup 0 subtable" dx=7 dy=0 dh=14 dv=0
EndChar

StartChar: E
Encoding: 69 69 37
Width: 350
Flags: W
LayerCount: 2
Fore
SplineSet
19 -531 m 1,0,1
 53 -525 53 -525 89 -507 c 128,-1,2
 125 -489 125 -489 157 -462.5 c 128,-1,3
 189 -436 189 -436 215.5 -402.5 c 128,-1,4
 242 -369 242 -369 258 -330 c 0,5,6
 278 -281 278 -281 282.5 -234 c 128,-1,7
 287 -187 287 -187 280.5 -146 c 128,-1,8
 274 -105 274 -105 261.5 -71 c 128,-1,9
 249 -37 249 -37 235 -12 c 128,-1,10
 221 13 221 13 211 27.5 c 128,-1,11
 201 42 201 42 199 44 c 2,12,-1
 205 49 l 1,13,14
 212 40 212 40 225 20.5 c 128,-1,15
 238 1 238 1 252.5 -28 c 128,-1,16
 267 -57 267 -57 281.5 -96.5 c 128,-1,17
 296 -136 296 -136 305 -184 c 0,18,19
 309 -202 309 -202 311 -229.5 c 128,-1,20
 313 -257 313 -257 310 -289.5 c 128,-1,21
 307 -322 307 -322 297 -356.5 c 128,-1,22
 287 -391 287 -391 266 -425 c 0,23,24
 251 -450 251 -450 229.5 -477 c 128,-1,25
 208 -504 208 -504 184.5 -530.5 c 128,-1,26
 161 -557 161 -557 138 -580.5 c 128,-1,27
 115 -604 115 -604 96 -622 c 0,28,29
 65 -651 65 -651 49 -679 c 128,-1,30
 33 -707 33 -707 25 -729.5 c 128,-1,31
 17 -752 17 -752 15.5 -766.5 c 128,-1,32
 14 -781 14 -781 14 -782 c 2,33,-1
 0 -782 l 1,34,-1
 0 87 l 2,35,36
 -2 107 -2 107 5 128.5 c 128,-1,37
 12 150 12 150 24.5 169.5 c 128,-1,38
 37 189 37 189 54.5 206 c 128,-1,39
 72 223 72 223 91 234 c 0,40,41
 113 246 113 246 136.5 254 c 128,-1,42
 160 262 160 262 183 262 c 128,-1,43
 206 262 206 262 227 254 c 128,-1,44
 248 246 248 246 265 227 c 0,45,46
 285 204 285 204 287.5 176 c 128,-1,47
 290 148 290 148 278.5 120.5 c 128,-1,48
 267 93 267 93 245.5 68.5 c 128,-1,49
 224 44 224 44 198 29 c 0,50,51
 176 17 176 17 152 8.5 c 128,-1,52
 128 0 128 0 104.5 0 c 128,-1,53
 81 0 81 0 59 8.5 c 128,-1,54
 37 17 37 17 19 38 c 1,55,-1
 19 -531 l 1,0,1
EndSplineSet
Validated: 37
Position2: "'cpsp' Capital Spacing in Latin lookup 0 subtable" dx=7 dy=0 dh=14 dv=0
EndChar

StartChar: F
Encoding: 70 70 38
Width: 896
Flags: W
LayerCount: 2
Fore
SplineSet
772 218 m 1,0,-1
 684 218 l 2,1,2
 684 216 684 216 680.5 202 c 128,-1,3
 677 188 677 188 674 176 c 0,4,5
 660 120 660 120 644 68 c 128,-1,6
 628 16 628 16 606.5 -28 c 128,-1,7
 585 -72 585 -72 556.5 -107 c 128,-1,8
 528 -142 528 -142 488 -166 c 0,9,10
 471 -177 471 -177 451 -180 c 128,-1,11
 431 -183 431 -183 413.5 -180.5 c 128,-1,12
 396 -178 396 -178 382.5 -171 c 128,-1,13
 369 -164 369 -164 362 -153 c 0,14,15
 351 -134 351 -134 352.5 -115.5 c 128,-1,16
 354 -97 354 -97 362.5 -84 c 128,-1,17
 371 -71 371 -71 384 -64 c 128,-1,18
 397 -57 397 -57 410 -59 c 0,19,20
 439 -64 439 -64 445.5 -80.5 c 128,-1,21
 452 -97 452 -97 444 -118 c 0,22,23
 439 -131 439 -131 433 -136.5 c 128,-1,24
 427 -142 427 -142 414 -145 c 0,25,26
 403 -148 403 -148 408.5 -157.5 c 128,-1,27
 414 -167 414 -167 431 -165 c 0,28,29
 444 -163 444 -163 456.5 -148.5 c 128,-1,30
 469 -134 469 -134 477 -123 c 0,31,32
 496 -95 496 -95 510 -59.5 c 128,-1,33
 524 -24 524 -24 535.5 13.5 c 128,-1,34
 547 51 547 51 555.5 88 c 128,-1,35
 564 125 564 125 572 156 c 0,36,37
 579 180 579 180 581.5 198 c 128,-1,38
 584 216 584 216 584 218 c 2,39,-1
 523 218 l 1,40,-1
 523 237 l 1,41,-1
 591 237 l 2,42,43
 591 240 591 240 597 264.5 c 128,-1,44
 603 289 603 289 620.5 320 c 128,-1,45
 638 351 638 351 668 381.5 c 128,-1,46
 698 412 698 412 748 424 c 0,47,48
 775 431 775 431 798.5 429 c 128,-1,49
 822 427 822 427 840 417.5 c 128,-1,50
 858 408 858 408 869 392 c 128,-1,51
 880 376 880 376 880 354 c 0,52,53
 880 336 880 336 873.5 324.5 c 128,-1,54
 867 313 867 313 858.5 307.5 c 128,-1,55
 850 302 850 302 839.5 301.5 c 128,-1,56
 829 301 829 301 822 304 c 0,57,58
 811 308 811 308 806 317 c 128,-1,59
 801 326 801 326 800.5 335.5 c 128,-1,60
 800 345 800 345 804 354.5 c 128,-1,61
 808 364 808 364 815 371 c 0,62,63
 819 375 819 375 825 376 c 128,-1,64
 831 377 831 377 837.5 377.5 c 128,-1,65
 844 378 844 378 848.5 379.5 c 128,-1,66
 853 381 853 381 854 385 c 0,67,68
 856 394 856 394 848.5 398.5 c 128,-1,69
 841 403 841 403 828.5 404.5 c 128,-1,70
 816 406 816 406 802 403 c 128,-1,71
 788 400 788 400 779 396 c 0,72,73
 747 382 747 382 729.5 355.5 c 128,-1,74
 712 329 712 329 702 302 c 0,75,76
 691 270 691 270 689 237 c 1,77,-1
 772 237 l 1,78,-1
 772 218 l 1,0,-1
180 0 m 1,79,-1
 271 226 l 1,80,81
 275.5 234 l 0,82,83
 280 242 280 242 283 251.5 c 128,-1,84
 286 261 286 261 285.5 270 c 128,-1,85
 285 279 285 279 274 282 c 0,86,87
 262 285 262 285 251 277 c 128,-1,88
 240 269 240 269 232 259 c 128,-1,89
 224 249 224 249 219.5 239 c 0,90,-1
 215 229 l 1,91,-1
 124 0 l 1,92,-1
 49 0 l 1,93,-1
 145 226 l 1,94,-1
 147.5 232.5 l 0,95,96
 150 239 150 239 152 247 c 128,-1,97
 154 255 154 255 153.5 262.5 c 128,-1,98
 153 270 153 270 148 274 c 0,99,100
 131 288 131 288 108 273 c 128,-1,101
 85 258 85 258 65 232 c 0,102,103
 40 202 40 202 15 160 c 1,104,-1
 6 160 l 1,105,-1
 12 171 l 0,106,107
 18 182 18 182 29 198.5 c 128,-1,108
 40 215 40 215 55 233.5 c 128,-1,109
 70 252 70 252 87 267.5 c 128,-1,110
 104 283 104 283 123 291.5 c 128,-1,111
 142 300 142 300 162 297 c 0,112,113
 169 296 169 296 176.5 288.5 c 128,-1,114
 184 281 184 281 190.5 272.5 c 128,-1,115
 197 264 197 264 201 256.5 c 128,-1,116
 205 249 205 249 205 248 c 1,117,118
 212 263 212 263 225 274 c 0,119,120
 236 284 236 284 254.5 292.5 c 128,-1,121
 273 301 273 301 300 301 c 0,122,123
 313 301 313 301 320 293 c 128,-1,124
 327 285 327 285 331 274 c 128,-1,125
 335 263 335 263 336 248 c 1,126,127
 347 264 347 264 361 276 c 0,128,129
 373 287 373 287 391.5 295 c 128,-1,130
 410 303 410 303 433 300 c 128,-1,131
 456 297 456 297 466.5 288 c 128,-1,132
 477 279 477 279 480.5 268.5 c 128,-1,133
 484 258 484 258 482.5 250 c 128,-1,134
 481 242 481 242 481 241 c 2,135,-1
 406 43 l 2,136,137
 404 39 404 39 401 34 c 128,-1,138
 398 29 398 29 396 24 c 128,-1,139
 394 19 394 19 394 16 c 128,-1,140
 394 13 394 13 399 13 c 0,141,142
 408 11 408 11 420.5 21.5 c 128,-1,143
 433 32 433 32 444 44 c 0,144,145
 457 58 457 58 472 78 c 1,146,-1
 481 75 l 2,147,148
 481 74 481 74 472 59.5 c 128,-1,149
 463 45 463 45 446.5 28 c 128,-1,150
 430 11 430 11 408.5 -2 c 128,-1,151
 387 -15 387 -15 362 -13 c 0,152,153
 346 -11 346 -11 337 3 c 128,-1,154
 328 17 328 17 333 32 c 2,155,-1
 410 226 l 1,156,-1
 413.5 234 l 0,157,158
 417 242 417 242 419 251.5 c 128,-1,159
 421 261 421 261 419 270 c 128,-1,160
 417 279 417 279 406 282 c 0,161,162
 394 285 394 285 383 277 c 128,-1,163
 372 269 372 269 364 258.5 c 128,-1,164
 356 248 356 248 351.5 238.5 c 0,165,166
 347 229 l 1,167,-1
 257 0 l 1,168,-1
 180 0 l 1,79,-1
EndSplineSet
Validated: 33
Position2: "'cpsp' Capital Spacing in Latin lookup 0 subtable" dx=7 dy=0 dh=14 dv=0
EndChar

StartChar: G
Encoding: 71 71 39
Width: 168
Flags: W
LayerCount: 2
Fore
SplineSet
169 92 m 1,0,-1
 0 -3 l 1,1,-1
 0 11 l 1,2,-1
 169 106 l 1,3,-1
 169 92 l 1,0,-1
EndSplineSet
Validated: 1
Position2: "'cpsp' Capital Spacing in Latin lookup 0 subtable" dx=7 dy=0 dh=14 dv=0
EndChar

StartChar: H
Encoding: 72 72 40
Width: 346
Flags: W
LayerCount: 2
Fore
SplineSet
0 87 m 2,0,1
 -2 107 -2 107 5 129 c 128,-1,2
 12 151 12 151 24.5 170.5 c 128,-1,3
 37 190 37 190 54.5 207 c 128,-1,4
 72 224 72 224 91 236 c 0,5,6
 113 248 113 248 136.5 255.5 c 128,-1,7
 160 263 160 263 183 263 c 128,-1,8
 206 263 206 263 227 255 c 128,-1,9
 248 247 248 247 265 228 c 0,10,11
 285 205 285 205 287.5 177.5 c 128,-1,12
 290 150 290 150 278.5 122 c 128,-1,13
 267 94 267 94 245.5 69.5 c 128,-1,14
 224 45 224 45 198 30 c 0,15,16
 174 16 174 16 149 8.5 c 128,-1,17
 124 1 124 1 100.5 1.5 c 128,-1,18
 77 2 77 2 56 11 c 128,-1,19
 35 20 35 20 19 39 c 1,20,-1
 19 -781 l 1,21,-1
 0 -781 l 1,22,-1
 0 87 l 2,0,1
254 213 m 256,23,24
 245 222 245 222 227 222 c 128,-1,25
 209 222 209 222 188 216.5 c 128,-1,26
 167 211 167 211 146.5 201 c 128,-1,27
 126 191 126 191 111 180 c 0,28,29
 94 167 94 167 76.5 146.5 c 128,-1,30
 59 126 59 126 47.5 105 c 128,-1,31
 36 84 36 84 32 65 c 128,-1,32
 28 46 28 46 36 35 c 0,33,34
 42 26 42 26 59 27.5 c 128,-1,35
 76 29 76 29 96.5 36.5 c 128,-1,36
 117 44 117 44 138.5 55.5 c 128,-1,37
 160 67 160 67 174 77 c 0,38,39
 192 90 192 90 210.5 109.5 c 128,-1,40
 229 129 229 129 242 149 c 128,-1,41
 255 169 255 169 259 186.5 c 128,-1,42
 263 204 263 204 254 213 c 256,23,24
EndSplineSet
Validated: 33
Position2: "'cpsp' Capital Spacing in Latin lookup 0 subtable" dx=7 dy=0 dh=14 dv=0
EndChar

StartChar: I
Encoding: 73 73 41
Width: 220
Flags: W
LayerCount: 2
Fore
SplineSet
140 82 m 1,0,-1
 118 74 l 1,1,-1
 118 -17 l 1,2,-1
 140 -8 l 1,3,-1
 140 -60 l 1,4,-1
 118 -70 l 1,5,-1
 118 -169 l 1,6,-1
 105 -169 l 1,7,-1
 105 -75 l 1,8,-1
 68 -89 l 1,9,-1
 68 -190 l 1,10,-1
 53 -190 l 1,11,-1
 53 -95 l 1,12,-1
 32 -103 l 1,13,-1
 32 -53 l 1,14,-1
 53 -45 l 1,15,-1
 53 47 l 1,16,-1
 32 39 l 1,17,-1
 32 89 l 1,18,-1
 53 98 l 1,19,-1
 53 198 l 1,20,-1
 68 198 l 1,21,-1
 68 103 l 1,22,-1
 105 120 l 1,23,-1
 105 219 l 1,24,-1
 118 219 l 1,25,-1
 118 126 l 1,26,-1
 140 134 l 1,27,-1
 140 82 l 1,0,-1
105 68 m 1,28,-1
 68 53 l 1,29,-1
 68 -39 l 1,30,-1
 105 -24 l 1,31,-1
 105 68 l 1,28,-1
EndSplineSet
Validated: 1
Position2: "'cpsp' Capital Spacing in Latin lookup 0 subtable" dx=7 dy=0 dh=14 dv=0
EndChar

StartChar: J
Encoding: 74 74 42
Width: 338
Flags: W
LayerCount: 2
Fore
SplineSet
0 0 m 1,0,-1
 10 0 l 1,1,-1
 10 -24 l 1,2,-1
 11 -25 l 1,3,4
 48 -20 48 -20 85.5 -2 c 128,-1,5
 123 16 123 16 156 43.5 c 128,-1,6
 189 71 189 71 216 105 c 128,-1,7
 243 139 243 139 258 177 c 0,8,9
 278 226 278 226 282.5 272.5 c 128,-1,10
 287 319 287 319 280.5 360 c 128,-1,11
 274 401 274 401 261.5 435.5 c 128,-1,12
 249 470 249 470 235 495 c 128,-1,13
 221 520 221 520 211 534.5 c 128,-1,14
 201 549 201 549 199 551 c 2,15,-1
 205 557 l 1,16,17
 212 548 212 548 225.5 528.5 c 128,-1,18
 239 509 239 509 253 479.5 c 128,-1,19
 267 450 267 450 281.5 410.5 c 128,-1,20
 296 371 296 371 306 323 c 0,21,22
 309 305 309 305 311 277.5 c 128,-1,23
 313 250 313 250 310 217.5 c 128,-1,24
 307 185 307 185 297.5 150.5 c 128,-1,25
 288 116 288 116 267 82 c 0,26,27
 252 57 252 57 230.5 30 c 128,-1,28
 209 3 209 3 185.5 -23.5 c 128,-1,29
 162 -50 162 -50 138.5 -73.5 c 128,-1,30
 115 -97 115 -97 96 -114 c 0,31,32
 65 -143 65 -143 49 -171 c 128,-1,33
 33 -199 33 -199 25 -222 c 128,-1,34
 17 -245 17 -245 15.5 -259.5 c 128,-1,35
 14 -274 14 -274 14 -275 c 2,36,-1
 0 -275 l 1,37,-1
 0 0 l 1,0,-1
EndSplineSet
Validated: 33
Position2: "'cpsp' Capital Spacing in Latin lookup 0 subtable" dx=7 dy=0 dh=14 dv=0
EndChar

StartChar: L
Encoding: 76 76 43
Width: 1091
VWidth: 2048
Flags: W
LayerCount: 2
Fore
SplineSet
596.875 511.875 m 5,0,-1
 485.625 511.875 l 5,1,-1
 479.125 511.875 l 6,2,3
 470.125 511.875 470.125 511.875 465.25 515.25 c 132,-1,4
 460.375 518.625 460.375 518.625 460.375 524.875 c 4,5,6
 460.375 535.125 460.375 535.125 470.375 538.375 c 4,7,8
 478.625 541.125 478.625 541.125 480 541.75 c 132,-1,9
 481.375 542.375 481.375 542.375 482.875 544.625 c 4,10,11
 485.875 548.625 485.875 548.625 485.875 557.375 c 6,12,-1
 485.875 807.625 l 6,13,14
 485.875 816.375 485.875 816.375 482.875 820.375 c 4,15,16
 481.375 822.625 481.375 822.625 480 823.25 c 132,-1,17
 478.625 823.875 478.625 823.875 470.375 826.625 c 4,18,19
 460.375 829.875 460.375 829.875 460.375 840.125 c 4,20,21
 460.375 846.375 460.375 846.375 465.25 849.75 c 132,-1,22
 470.125 853.125 470.125 853.125 479.125 853.125 c 6,23,-1
 485.625 853.125 l 5,24,-1
 597.125 853.125 l 5,25,-1
 605.625 853.125 l 6,26,27
 616.625 853.125 616.625 853.125 621.375 850.125 c 4,28,29
 627.875 846.125 627.875 846.125 627.875 839.625 c 4,30,31
 627.875 828.625 627.875 828.625 615.875 825.875 c 4,32,33
 606.125 823.625 606.125 823.625 604.375 822.875 c 132,-1,34
 602.625 822.125 602.625 822.125 600.625 819.875 c 4,35,36
 596.875 815.375 596.875 815.375 596.875 805.875 c 6,37,-1
 596.875 511.875 l 5,0,-1
617.125 511.875 m 5,38,-1
 617.125 539.875 l 5,39,40
 629.375 542.125 629.375 542.125 636.5 544.875 c 132,-1,41
 643.625 547.625 643.625 547.625 650.125 552.875 c 4,42,43
 660.625 561.125 660.625 561.125 669.375 575.625 c 132,-1,44
 678.125 590.125 678.125 590.125 683.625 607.875 c 4,45,46
 687.625 621.625 687.625 621.625 691 626 c 132,-1,47
 694.375 630.375 694.375 630.375 700.875 630.375 c 4,48,49
 707.875 630.375 707.875 630.375 711.125 624.625 c 4,50,51
 712.625 621.875 712.625 621.875 712.625 613.625 c 6,52,-1
 712.625 511.875 l 5,53,-1
 617.125 511.875 l 5,38,-1
EndSplineSet
Position2: "'cpsp' Capital Spacing in Latin lookup 0 subtable" dx=7 dy=0 dh=14 dv=0
EndChar

StartChar: M
Encoding: 77 77 44
Width: 649
Flags: W
LayerCount: 2
Fore
SplineSet
310 98 m 1,0,-1
 310 -87 l 1,1,-1
 282 -87 l 1,2,-1
 282 70 l 1,3,-1
 243 32 l 2,4,5
 235 25 235 25 227.5 16.5 c 128,-1,6
 220 8 220 8 215 8 c 256,7,8
 210 8 210 8 204.5 16 c 128,-1,9
 199 24 199 24 194 31 c 2,10,-1
 111 121 l 2,11,12
 111 122 111 122 107 126.5 c 128,-1,13
 103 131 103 131 98.5 136 c 128,-1,14
 94 141 94 141 90 145.5 c 128,-1,15
 86 150 86 150 84 150 c 256,16,17
 82 150 82 150 77 146.5 c 128,-1,18
 72 143 72 143 66.5 139 c 128,-1,19
 61 135 61 135 57 131 c 128,-1,20
 53 127 53 127 52 126 c 2,21,-1
 0 77 l 1,22,-1
 0 114 l 1,23,-1
 135 243 l 2,24,25
 141 249 141 249 147 253 c 0,26,27
 152 257 152 257 157.5 260.5 c 128,-1,28
 163 264 163 264 165 264 c 256,29,30
 167 264 167 264 171 260 c 128,-1,31
 175 256 175 256 180 251 c 0,32,33
 185 245 185 245 191 238 c 2,34,-1
 268 158 l 1,35,-1
 282 144 l 1,36,-1
 282 346 l 1,37,-1
 310 346 l 1,38,-1
 310 156 l 1,39,-1
 318 165 l 1,40,-1
 398 238 l 2,41,42
 401 241 401 241 411 250.5 c 128,-1,43
 421 260 421 260 424 260 c 0,44,45
 429 260 429 260 435 252 c 128,-1,46
 441 244 441 244 447 237 c 2,47,-1
 518 155 l 2,48,49
 518 154 518 154 522 149.5 c 128,-1,50
 526 145 526 145 531.5 140 c 128,-1,51
 537 135 537 135 541.5 131 c 128,-1,52
 546 127 546 127 548 127 c 256,53,54
 550 127 550 127 554.5 130 c 128,-1,55
 559 133 559 133 563.5 137 c 128,-1,56
 568 141 568 141 571.5 144.5 c 128,-1,57
 575 148 575 148 577 150 c 2,58,-1
 622 198 l 1,59,-1
 622 160 l 1,60,-1
 490 29 l 1,61,62
 486 25.5 l 0,63,64
 482 22 482 22 477.5 17.5 c 128,-1,65
 473 13 473 13 468.5 10 c 128,-1,66
 464 7 464 7 462 7 c 256,67,68
 460 7 460 7 455.5 10.5 c 128,-1,69
 451 14 451 14 446.5 19 c 128,-1,70
 442 24 442 24 438.5 28 c 0,71,-1
 435 32 l 1,72,-1
 368 105 l 2,73,74
 368 106 368 106 364.5 110 c 128,-1,75
 361 114 361 114 357 118 c 128,-1,76
 353 122 353 122 349.5 125 c 128,-1,77
 346 128 346 128 345 128 c 0,78,79
 340 128 340 128 331.5 119.5 c 128,-1,80
 323 111 323 111 321 109 c 2,81,-1
 310 98 l 1,0,-1
EndSplineSet
Validated: 1
Position2: "'cpsp' Capital Spacing in Latin lookup 0 subtable" dx=7 dy=0 dh=14 dv=0
EndChar

StartChar: N
Encoding: 78 78 45
Width: 678
Flags: W
LayerCount: 2
Fore
SplineSet
386 -47 m 1,0,-1
 386 81 l 1,1,-1
 270 49 l 1,2,-1
 270 -79 l 1,3,-1
 386 -47 l 1,0,-1
242 357 m 1,4,-1
 270 357 l 1,5,-1
 270 121 l 1,6,-1
 415 160 l 1,7,-1
 415 -357 l 1,8,-1
 386 -357 l 1,9,-1
 386 -126 l 1,10,-1
 242 -165 l 1,11,-1
 242 357 l 1,4,-1
600 0 m 256,12,13
 600 46 600 46 595.5 82.5 c 128,-1,14
 591 119 591 119 576 151.5 c 128,-1,15
 561 184 561 184 533.5 215.5 c 128,-1,16
 506 247 506 247 461 281 c 1,17,18
 492 270 492 270 526 241 c 128,-1,19
 560 212 560 212 589 173.5 c 128,-1,20
 618 135 618 135 637 90 c 128,-1,21
 656 45 656 45 655 0 c 0,22,23
 654 -51 654 -51 635 -97 c 128,-1,24
 616 -143 616 -143 587.5 -180.5 c 128,-1,25
 559 -218 559 -218 525.5 -244 c 128,-1,26
 492 -270 492 -270 461 -282 c 1,27,28
 507 -247 507 -247 534 -216 c 128,-1,29
 561 -185 561 -185 576 -152.5 c 128,-1,30
 591 -120 591 -120 595.5 -83 c 128,-1,31
 600 -46 600 -46 600 0 c 256,12,13
195 281 m 1,32,33
 149 247 149 247 121.5 215.5 c 128,-1,34
 94 184 94 184 79.5 151.5 c 128,-1,35
 65 119 65 119 60 82.5 c 128,-1,36
 55 46 55 46 55 0 c 256,37,38
 55 -46 55 -46 60 -83 c 128,-1,39
 65 -120 65 -120 79 -152.5 c 128,-1,40
 93 -185 93 -185 120.5 -216 c 128,-1,41
 148 -247 148 -247 195 -282 c 1,42,43
 164 -271 164 -271 129.5 -244 c 128,-1,44
 95 -217 95 -217 66.5 -180 c 128,-1,45
 38 -143 38 -143 19 -97 c 128,-1,46
 0 -51 0 -51 0 0 c 0,47,48
 0 45 0 45 19 90 c 128,-1,49
 38 135 38 135 66.5 173.5 c 128,-1,50
 95 212 95 212 129.5 241 c 128,-1,51
 164 270 164 270 195 281 c 1,32,33
EndSplineSet
Validated: 33
Position2: "'cpsp' Capital Spacing in Latin lookup 0 subtable" dx=7 dy=0 dh=14 dv=0
EndChar

StartChar: O
Encoding: 79 79 46
Width: 276
Flags: W
LayerCount: 2
Fore
SplineSet
110 90 m 1,0,-1
 45 26 l 1,1,-1
 170 -87 l 1,2,-1
 234 -24 l 1,3,-1
 110 90 l 1,0,-1
128 130 m 1,4,5
 148 106 148 106 169 84.5 c 128,-1,6
 190 63 190 63 203 55 c 0,7,8
 222 40 222 40 241 24.5 c 128,-1,9
 260 9 260 9 276 -1 c 1,10,-1
 150 -130 l 1,11,12
 131 -107 131 -107 112 -90 c 128,-1,13
 93 -73 93 -73 79 -58 c 0,14,15
 52 -31 52 -31 29 -16 c 128,-1,16
 6 -1 6 -1 0 3 c 1,17,-1
 128 130 l 1,4,5
EndSplineSet
Validated: 1
Position2: "'cpsp' Capital Spacing in Latin lookup 0 subtable" dx=7 dy=0 dh=14 dv=0
EndChar

StartChar: P
Encoding: 80 80 47
Width: 857
Flags: W
LayerCount: 2
Fore
SplineSet
180 0 m 1,0,-1
 271 226 l 1,1,2
 275.5 234 l 0,3,4
 280 242 280 242 283 251.5 c 128,-1,5
 286 261 286 261 285.5 270 c 128,-1,6
 285 279 285 279 274 282 c 0,7,8
 262 285 262 285 251 277 c 128,-1,9
 240 269 240 269 232 259 c 128,-1,10
 224 249 224 249 219.5 239 c 0,11,-1
 215 229 l 1,12,-1
 124 0 l 1,13,-1
 49 0 l 1,14,-1
 145 226 l 1,15,-1
 147.5 232.5 l 0,16,17
 150 239 150 239 152 247 c 128,-1,18
 154 255 154 255 153.5 262.5 c 128,-1,19
 153 270 153 270 148 274 c 0,20,21
 131 288 131 288 108 273 c 128,-1,22
 85 258 85 258 65 232 c 0,23,24
 40 202 40 202 15 160 c 1,25,-1
 6 160 l 1,26,-1
 12 171 l 0,27,28
 18 182 18 182 29 198.5 c 128,-1,29
 40 215 40 215 55 233.5 c 128,-1,30
 70 252 70 252 87 267.5 c 128,-1,31
 104 283 104 283 123 291.5 c 128,-1,32
 142 300 142 300 162 297 c 0,33,34
 169 296 169 296 176.5 288.5 c 128,-1,35
 184 281 184 281 190.5 272.5 c 128,-1,36
 197 264 197 264 201 256.5 c 128,-1,37
 205 249 205 249 205 248 c 1,38,39
 212 263 212 263 225 274 c 0,40,41
 236 284 236 284 254.5 292.5 c 128,-1,42
 273 301 273 301 300 301 c 0,43,44
 313 301 313 301 320 293 c 128,-1,45
 327 285 327 285 331 274 c 128,-1,46
 335 263 335 263 336 248 c 1,47,48
 347 264 347 264 361 276 c 0,49,50
 373 287 373 287 391.5 295 c 128,-1,51
 410 303 410 303 433 300 c 128,-1,52
 456 297 456 297 466.5 288 c 128,-1,53
 477 279 477 279 480.5 268.5 c 128,-1,54
 484 258 484 258 482.5 250 c 128,-1,55
 481 242 481 242 481 241 c 2,56,-1
 406 43 l 2,57,58
 404 39 404 39 401 34 c 128,-1,59
 398 29 398 29 396 24 c 128,-1,60
 394 19 394 19 394 16 c 128,-1,61
 394 13 394 13 399 13 c 0,62,63
 408 11 408 11 420.5 21.5 c 128,-1,64
 433 32 433 32 444 44 c 0,65,66
 457 58 457 58 472 78 c 1,67,-1
 481 75 l 2,68,69
 481 74 481 74 472 59.5 c 128,-1,70
 463 45 463 45 446.5 28 c 128,-1,71
 430 11 430 11 408.5 -2 c 128,-1,72
 387 -15 387 -15 362 -13 c 0,73,74
 346 -11 346 -11 337 3 c 128,-1,75
 328 17 328 17 333 32 c 2,76,-1
 410 226 l 1,77,-1
 413.5 234 l 0,78,79
 417 242 417 242 419 251.5 c 128,-1,80
 421 261 421 261 419 270 c 128,-1,81
 417 279 417 279 406 282 c 0,82,83
 394 285 394 285 383 277 c 128,-1,84
 372 269 372 269 364 258.5 c 128,-1,85
 356 248 356 248 351.5 238.5 c 0,86,87
 347 229 l 1,88,-1
 257 0 l 1,89,-1
 180 0 l 1,0,-1
748 269 m 256,90,91
 736 274 736 274 721.5 266 c 128,-1,92
 707 258 707 258 693.5 242.5 c 128,-1,93
 680 227 680 227 668 208 c 128,-1,94
 656 189 656 189 649 174 c 0,95,96
 644 163 644 163 640 144.5 c 128,-1,97
 636 126 636 126 634.5 107 c 128,-1,98
 633 88 633 88 635.5 72.5 c 128,-1,99
 638 57 638 57 646 53 c 0,100,101
 656 48 656 48 670 54 c 128,-1,102
 684 60 684 60 698 73.5 c 128,-1,103
 712 87 712 87 724 105 c 128,-1,104
 736 123 736 123 743 140 c 0,105,106
 749 153 749 153 755 174 c 128,-1,107
 761 195 761 195 763 214 c 128,-1,108
 765 233 765 233 762.5 248.5 c 128,-1,109
 760 264 760 264 748 269 c 256,90,91
542 -130 m 1,110,-1
 583 -130 l 1,111,-1
 583 -152 l 1,112,-1
 419 -152 l 1,113,-1
 419 -130 l 1,114,-1
 462 -130 l 1,115,-1
 603 233 l 2,116,117
 603 234 603 234 608 244 c 128,-1,118
 613 254 613 254 607 261 c 0,119,120
 596 274 596 274 583 270 c 128,-1,121
 570 266 570 266 558.5 253 c 128,-1,122
 547 240 547 240 536 220.5 c 128,-1,123
 525 201 525 201 517.5 183.5 c 128,-1,124
 510 166 510 166 505.5 153 c 0,125,-1
 501 140 l 1,126,-1
 488 141 l 1,127,128
 492.5 154 l 0,129,130
 497 167 497 167 505 185.5 c 128,-1,131
 513 204 513 204 525 224.5 c 128,-1,132
 537 245 537 245 551 260 c 128,-1,133
 565 275 565 275 582.5 283 c 128,-1,134
 600 291 600 291 620 283 c 0,135,136
 629 279 629 279 632 265.5 c 128,-1,137
 635 252 635 252 635 250 c 1,138,139
 640 258 640 258 653.5 269.5 c 128,-1,140
 667 281 667 281 684.5 289.5 c 128,-1,141
 702 298 702 298 722.5 301.5 c 128,-1,142
 743 305 743 305 764 299 c 0,143,144
 792 290 792 290 805.5 269 c 128,-1,145
 819 248 819 248 822.5 221.5 c 128,-1,146
 826 195 826 195 822 167 c 128,-1,147
 818 139 818 139 810 117 c 0,148,149
 801 94 801 94 785 73 c 128,-1,150
 769 52 769 52 750 35.5 c 128,-1,151
 731 19 731 19 710.5 9 c 128,-1,152
 690 -1 690 -1 674 -1 c 0,153,154
 651 -1 651 -1 636.5 13 c 128,-1,155
 622 27 622 27 609 59 c 1,156,-1
 542 -130 l 1,110,-1
EndSplineSet
Validated: 33
Position2: "'cpsp' Capital Spacing in Latin lookup 0 subtable" dx=7 dy=0 dh=14 dv=0
EndChar

StartChar: Q
Encoding: 81 81 48
Width: 346
Flags: W
LayerCount: 2
Fore
SplineSet
0 87 m 6,0,1
 -2 107 -2 107 5 129 c 132,-1,2
 12 151 12 151 24.5 170.5 c 132,-1,3
 37 190 37 190 54.5 207 c 132,-1,4
 72 224 72 224 91 236 c 4,5,6
 113 248 113 248 136.5 255.5 c 132,-1,7
 160 263 160 263 183 263 c 132,-1,8
 206 263 206 263 227 255 c 132,-1,9
 248 247 248 247 265 228 c 4,10,11
 285 205 285 205 287.5 177.5 c 132,-1,12
 290 150 290 150 278.5 122 c 132,-1,13
 267 94 267 94 245.5 69.5 c 132,-1,14
 224 45 224 45 198 30 c 4,15,16
 174 16 174 16 149 8.5 c 132,-1,17
 124 1 124 1 100.5 1.5 c 132,-1,18
 77 2 77 2 56 11 c 132,-1,19
 35 20 35 20 19 39 c 5,20,-1
 19 -781 l 5,21,-1
 0 -781 l 5,22,-1
 0 87 l 6,0,1
EndSplineSet
Validated: 33
Position2: "'cpsp' Capital Spacing in Latin lookup 0 subtable" dx=7 dy=0 dh=14 dv=0
EndChar

StartChar: S
Encoding: 83 83 49
Width: 674
Flags: W
LayerCount: 2
Fore
SplineSet
520 248 m 1,0,-1
 433 248 l 2,1,2
 433 247 433 247 429 232.5 c 128,-1,3
 425 218 425 218 423 206 c 0,4,5
 409 150 409 150 393 98.5 c 128,-1,6
 377 47 377 47 355.5 3 c 128,-1,7
 334 -41 334 -41 306 -76.5 c 128,-1,8
 278 -112 278 -112 238 -135 c 0,9,10
 221 -146 221 -146 200.5 -150 c 128,-1,11
 180 -154 180 -154 162 -151 c 128,-1,12
 144 -148 144 -148 130.5 -141 c 128,-1,13
 117 -134 117 -134 111 -123 c 0,14,15
 100 -103 100 -103 101.5 -85 c 128,-1,16
 103 -67 103 -67 111.5 -54 c 128,-1,17
 120 -41 120 -41 133 -34 c 128,-1,18
 146 -27 146 -27 159 -29 c 0,19,20
 188 -34 188 -34 194.5 -51 c 128,-1,21
 201 -68 201 -68 194 -88 c 0,22,23
 189 -101 189 -101 182.5 -106.5 c 128,-1,24
 176 -112 176 -112 163 -116 c 0,25,26
 157 -117 157 -117 156 -120.5 c 128,-1,27
 155 -124 155 -124 157.5 -127.5 c 128,-1,28
 160 -131 160 -131 166 -133 c 128,-1,29
 172 -135 172 -135 180 -134 c 0,30,31
 193 -132 193 -132 205.5 -117.5 c 128,-1,32
 218 -103 218 -103 226 -92 c 0,33,34
 245 -64 245 -64 259 -29 c 128,-1,35
 273 6 273 6 284.5 43.5 c 128,-1,36
 296 81 296 81 304.5 118.5 c 128,-1,37
 313 156 313 156 322 186 c 0,38,39
 329 209 329 209 331 227.5 c 128,-1,40
 333 246 333 246 333 248 c 2,41,-1
 272 248 l 1,42,-1
 272 267 l 1,43,-1
 340 267 l 2,44,45
 340 269 340 269 346 294 c 128,-1,46
 352 319 352 319 369 350.5 c 128,-1,47
 386 382 386 382 416.5 412 c 128,-1,48
 447 442 447 442 497 455 c 0,49,50
 524 462 524 462 547.5 460 c 128,-1,51
 571 458 571 458 589 448 c 128,-1,52
 607 438 607 438 618 422.5 c 128,-1,53
 629 407 629 407 629 385 c 0,54,55
 629 367 629 367 622.5 355.5 c 128,-1,56
 616 344 616 344 607 338.5 c 128,-1,57
 598 333 598 333 588.5 332.5 c 128,-1,58
 579 332 579 332 571 335 c 0,59,60
 560 339 560 339 555 347 c 128,-1,61
 550 355 550 355 549.5 365 c 128,-1,62
 549 375 549 375 553 384.5 c 128,-1,63
 557 394 557 394 564 401 c 0,64,65
 568 404 568 404 574.5 405.5 c 128,-1,66
 581 407 581 407 587 408 c 128,-1,67
 593 409 593 409 597.5 410 c 128,-1,68
 602 411 602 411 603 416 c 0,69,70
 605 425 605 425 597.5 429.5 c 128,-1,71
 590 434 590 434 577.5 434.5 c 128,-1,72
 565 435 565 435 551.5 433 c 128,-1,73
 538 431 538 431 527 427 c 0,74,75
 495 413 495 413 478 386 c 128,-1,76
 461 359 461 359 452 333 c 0,77,78
 441 302 441 302 438 267 c 1,79,-1
 520 267 l 1,80,-1
 520 248 l 1,0,-1
150 65 m 0,81,82
 148 85 148 85 132 104 c 128,-1,83
 116 123 116 123 96.5 141.5 c 128,-1,84
 77 160 77 160 61 178.5 c 128,-1,85
 45 197 45 197 45 218 c 0,86,87
 45 235 45 235 53 250 c 128,-1,88
 61 265 61 265 75.5 276 c 128,-1,89
 90 287 90 287 108.5 293.5 c 128,-1,90
 127 300 127 300 147 300 c 0,91,92
 163 300 163 300 180.5 294 c 128,-1,93
 198 288 198 288 211.5 277.5 c 128,-1,94
 225 267 225 267 234 255 c 128,-1,95
 243 243 243 243 243 230 c 0,96,97
 243 197 243 197 213 199 c 0,98,99
 198 200 198 200 194 209.5 c 128,-1,100
 190 219 190 219 189 231.5 c 128,-1,101
 188 244 188 244 184.5 254.5 c 128,-1,102
 181 265 181 265 166 268 c 0,103,104
 150 271 150 271 137.5 268 c 128,-1,105
 125 265 125 265 117 259 c 128,-1,106
 109 253 109 253 105 245 c 128,-1,107
 101 237 101 237 103 230 c 0,108,109
 108 211 108 211 125 194 c 128,-1,110
 142 177 142 177 160 159.5 c 128,-1,111
 178 142 178 142 193.5 122.5 c 128,-1,112
 209 103 209 103 211 79 c 0,113,114
 212 57 212 57 203.5 40.5 c 128,-1,115
 195 24 195 24 179.5 12.5 c 128,-1,116
 164 1 164 1 144.5 -4.5 c 128,-1,117
 125 -10 125 -10 105 -10 c 0,118,119
 87 -10 87 -10 69.5 -3 c 128,-1,120
 52 4 52 4 39 16 c 128,-1,121
 26 28 26 28 18 41.5 c 128,-1,122
 10 55 10 55 11 70 c 0,123,124
 12 82 12 82 18.5 89.5 c 128,-1,125
 25 97 25 97 32.5 100 c 128,-1,126
 40 103 40 103 48.5 102 c 128,-1,127
 57 101 57 101 63 96 c 0,128,129
 75 85 75 85 74.5 75 c 128,-1,130
 74 65 74 65 71.5 55 c 128,-1,131
 69 45 69 45 69.5 36.5 c 128,-1,132
 70 28 70 28 84 22 c 256,133,134
 98 16 98 16 110.5 19 c 128,-1,135
 123 22 123 22 132 30 c 128,-1,136
 141 38 141 38 146 48 c 128,-1,137
 151 58 151 58 150 65 c 0,81,82
EndSplineSet
Validated: 33
Position2: "'cpsp' Capital Spacing in Latin lookup 0 subtable" dx=7 dy=0 dh=14 dv=0
EndChar

StartChar: T
Encoding: 84 84 50
Width: 635
Flags: W
LayerCount: 2
Fore
SplineSet
470 -170 m 0,0,1
 427 -169 427 -169 393 -152 c 128,-1,2
 359 -135 359 -135 329.5 -110 c 128,-1,3
 300 -85 300 -85 273 -56.5 c 128,-1,4
 246 -28 246 -28 216.5 -3 c 128,-1,5
 187 22 187 22 154.5 37.5 c 128,-1,6
 122 53 122 53 81 52 c 0,7,8
 70 52 70 52 56 48 c 128,-1,9
 42 44 42 44 29.5 35.5 c 128,-1,10
 17 27 17 27 8.5 12.5 c 128,-1,11
 0 -2 0 -2 0 -24 c 0,12,13
 -1 -55 -1 -55 12 -71 c 128,-1,14
 25 -87 25 -87 49 -92 c 0,15,16
 56 -94 56 -94 63 -92 c 128,-1,17
 70 -90 70 -90 76.5 -87 c 128,-1,18
 83 -84 83 -84 89 -82 c 128,-1,19
 95 -80 95 -80 103 -81 c 0,20,21
 127 -86 127 -86 141 -98 c 128,-1,22
 155 -110 155 -110 156 -130 c 0,23,24
 157 -139 157 -139 150 -148 c 128,-1,25
 143 -157 143 -157 133.5 -162.5 c 128,-1,26
 124 -168 124 -168 111.5 -170 c 128,-1,27
 99 -172 99 -172 89 -170 c 0,28,29
 64 -166 64 -166 43.5 -151 c 128,-1,30
 23 -136 23 -136 7.5 -116 c 128,-1,31
 -8 -96 -8 -96 -17 -72.5 c 128,-1,32
 -26 -49 -26 -49 -26 -26 c 0,33,34
 -26 8 -26 8 -13 37.5 c 128,-1,35
 0 67 0 67 21 88.5 c 128,-1,36
 42 110 42 110 69 121.5 c 128,-1,37
 96 133 96 133 124 133 c 0,38,39
 166 132 166 132 200 115 c 128,-1,40
 234 98 234 98 264 73 c 128,-1,41
 294 48 294 48 321 19.5 c 128,-1,42
 348 -9 348 -9 377.5 -33.5 c 128,-1,43
 407 -58 407 -58 439.5 -74 c 128,-1,44
 472 -90 472 -90 513 -89 c 0,45,46
 524 -89 524 -89 538 -85.5 c 128,-1,47
 552 -82 552 -82 564.5 -73.5 c 128,-1,48
 577 -65 577 -65 585.5 -50.5 c 128,-1,49
 594 -36 594 -36 594 -14 c 0,50,51
 595 18 595 18 582 33.5 c 128,-1,52
 569 49 569 49 545 55 c 0,53,54
 537 56 537 56 530.5 54 c 128,-1,55
 524 52 524 52 518 49 c 128,-1,56
 512 46 512 46 505.5 43.5 c 128,-1,57
 499 41 499 41 490 43 c 0,58,59
 466 48 466 48 453 60 c 128,-1,60
 440 72 440 72 438 92 c 0,61,62
 438 101 438 101 444.5 110 c 128,-1,63
 451 119 451 119 460.5 124.5 c 128,-1,64
 470 130 470 130 482 132.5 c 128,-1,65
 494 135 494 135 505 133 c 0,66,67
 530 128 530 128 550.5 113.5 c 128,-1,68
 571 99 571 99 586.5 79 c 128,-1,69
 602 59 602 59 611.5 35 c 128,-1,70
 621 11 621 11 621 -11 c 0,71,72
 621 -45 621 -45 608 -74 c 128,-1,73
 595 -103 595 -103 573.5 -124.5 c 128,-1,74
 552 -146 552 -146 525 -158 c 128,-1,75
 498 -170 498 -170 470 -170 c 0,0,1
EndSplineSet
Validated: 33
Position2: "'cpsp' Capital Spacing in Latin lookup 0 subtable" dx=7 dy=0 dh=14 dv=0
EndChar

StartChar: U
Encoding: 85 85 51
Width: 694
Flags: W
LayerCount: 2
Fore
SplineSet
346 84 m 256,0,1
 363 84 363 84 374.5 72 c 128,-1,2
 386 60 386 60 386 43 c 256,3,4
 386 26 386 26 375 13 c 128,-1,5
 364 0 364 0 346 0 c 256,6,7
 329 0 329 0 316 13 c 128,-1,8
 303 26 303 26 303 43 c 256,9,10
 303 60 303 60 316 72 c 128,-1,11
 329 84 329 84 346 84 c 256,0,1
346 303 m 256,12,13
 278 303 278 303 219.5 280.5 c 128,-1,14
 161 258 161 258 115 218 c 128,-1,15
 69 178 69 178 39 122.5 c 128,-1,16
 9 67 9 67 0 0 c 1,17,18
 -9 76 -9 76 15.5 146 c 128,-1,19
 40 216 40 216 88 270.5 c 128,-1,20
 136 325 136 325 203 357 c 128,-1,21
 270 389 270 389 346 389 c 256,22,23
 422 389 422 389 488.5 357 c 128,-1,24
 555 325 555 325 603.5 270.5 c 128,-1,25
 652 216 652 216 676.5 146 c 128,-1,26
 701 76 701 76 692 0 c 1,27,28
 683 67 683 67 653.5 122.5 c 128,-1,29
 624 178 624 178 577.5 218 c 128,-1,30
 531 258 531 258 472.5 280.5 c 128,-1,31
 414 303 414 303 346 303 c 256,12,13
EndSplineSet
Validated: 33
Position2: "'cpsp' Capital Spacing in Latin lookup 0 subtable" dx=7 dy=0 dh=14 dv=0
EndChar

StartChar: V
Encoding: 86 86 52
Width: 703
Flags: W
LayerCount: 2
Fore
SplineSet
359 -796 m 0,0,1
 353 -796 353 -796 344 -801 c 128,-1,2
 335 -806 335 -806 326.5 -813.5 c 128,-1,3
 318 -821 318 -821 312.5 -829 c 128,-1,4
 307 -837 307 -837 307 -843 c 0,5,6
 307 -868 307 -868 324 -885.5 c 128,-1,7
 341 -903 341 -903 368 -903 c 0,8,9
 380 -903 380 -903 391.5 -897.5 c 128,-1,10
 403 -892 403 -892 412 -882.5 c 128,-1,11
 421 -873 421 -873 426 -862.5 c 128,-1,12
 431 -852 431 -852 431 -843 c 256,13,14
 431 -834 431 -834 416.5 -822.5 c 128,-1,15
 402 -811 402 -811 388 -806 c 0,16,17
 386 -806 386 -806 381.5 -804.5 c 128,-1,18
 377 -803 377 -803 372 -801 c 0,19,20
 365 -799 365 -799 359 -796 c 0,0,1
345 401 m 1,21,22
 337 395 337 395 319 377 c 128,-1,23
 301 359 301 359 280 337 c 128,-1,24
 259 315 259 315 239 291.5 c 128,-1,25
 219 268 219 268 206 252 c 0,26,27
 181 221 181 221 158.5 185.5 c 128,-1,28
 136 150 136 150 122 111 c 128,-1,29
 108 72 108 72 104 29.5 c 128,-1,30
 100 -13 100 -13 114 -59 c 0,31,32
 116 -67 116 -67 125.5 -84.5 c 128,-1,33
 135 -102 135 -102 151 -124 c 128,-1,34
 167 -146 167 -146 190 -168.5 c 128,-1,35
 213 -191 213 -191 242.5 -209 c 128,-1,36
 272 -227 272 -227 308.5 -238.5 c 128,-1,37
 345 -250 345 -250 388 -248 c 0,38,39
 413 -248 413 -248 430 -243.5 c 128,-1,40
 447 -239 447 -239 466 -232 c 1,41,-1
 388 155 l 1,42,43
 345 149 345 149 316.5 128.5 c 128,-1,44
 288 108 288 108 270.5 81 c 128,-1,45
 253 54 253 54 245.5 26 c 128,-1,46
 238 -2 238 -2 238 -24 c 0,47,48
 237 -59 237 -59 258.5 -89.5 c 128,-1,49
 280 -120 280 -120 308 -142.5 c 128,-1,50
 336 -165 336 -165 363 -177.5 c 128,-1,51
 390 -190 390 -190 402 -190 c 1,52,-1
 402 -201 l 1,53,54
 388 -200 388 -200 358 -187.5 c 128,-1,55
 328 -175 328 -175 296 -152.5 c 128,-1,56
 264 -130 264 -130 237 -96 c 128,-1,57
 210 -62 210 -62 201 -17 c 0,58,59
 192 29 192 29 200 73.5 c 128,-1,60
 208 118 208 118 231 154.5 c 128,-1,61
 254 191 254 191 290 218.5 c 128,-1,62
 326 246 326 246 372 257 c 1,63,-1
 345 401 l 1,21,22
497 882 m 0,64,65
 494 898 494 898 490.5 915 c 128,-1,66
 487 932 487 932 481 945.5 c 128,-1,67
 475 959 475 959 464 968.5 c 128,-1,68
 453 978 453 978 434 979 c 256,69,70
 416 980 416 980 397.5 959.5 c 128,-1,71
 379 939 379 939 363 905.5 c 128,-1,72
 347 872 347 872 334.5 832.5 c 128,-1,73
 322 793 322 793 314 755 c 0,74,75
 312 743 312 743 313.5 715.5 c 128,-1,76
 315 688 315 688 318.5 659 c 128,-1,77
 322 630 322 630 326 604.5 c 128,-1,78
 330 579 330 579 333 569 c 1,79,-1
 371 603 l 2,80,81
 375 604 375 604 398 628.5 c 128,-1,82
 421 653 421 653 446 691.5 c 128,-1,83
 471 730 471 730 488 780 c 128,-1,84
 505 830 505 830 497 882 c 0,64,65
487 -220 m 1,85,86
 523 -212 523 -212 552 -193 c 128,-1,87
 581 -174 581 -174 600.5 -147 c 128,-1,88
 620 -120 620 -120 628.5 -87 c 128,-1,89
 637 -54 637 -54 633 -17 c 0,90,91
 628 25 628 25 608 59.5 c 128,-1,92
 588 94 588 94 557.5 117 c 128,-1,93
 527 140 527 140 490 150.5 c 128,-1,94
 453 161 453 161 413 155 c 1,95,-1
 487 -220 l 1,85,86
402 -691 m 1,96,97
 394 -693 394 -693 388.5 -694.5 c 128,-1,98
 383 -696 383 -696 377 -698 c 0,99,100
 366 -700 366 -700 354.5 -700.5 c 128,-1,101
 343 -701 343 -701 332 -701 c 1,102,103
 325 -706 325 -706 320 -714 c 128,-1,104
 315 -722 315 -722 315 -730 c 0,105,106
 315 -736 315 -736 320 -742 c 128,-1,107
 325 -748 325 -748 332 -752.5 c 128,-1,108
 339 -757 339 -757 345.5 -760 c 128,-1,109
 352 -763 352 -763 357 -764 c 0,110,111
 363 -766 363 -766 368.5 -767 c 128,-1,112
 374 -768 374 -768 378 -769 c 256,113,114
 382 -770 382 -770 386 -770 c 256,115,116
 390 -770 390 -770 396.5 -766.5 c 128,-1,117
 403 -763 403 -763 410.5 -757 c 128,-1,118
 418 -751 418 -751 423 -743.5 c 128,-1,119
 428 -736 428 -736 428 -730 c 0,120,121
 428 -702 428 -702 402 -691 c 1,96,97
374 -671 m 0,122,123
 379 -671 379 -671 381.5 -671 c 128,-1,124
 384 -671 384 -671 392 -672 c 0,125,126
 407 -667 407 -667 431.5 -654.5 c 128,-1,127
 456 -642 456 -642 477 -620 c 128,-1,128
 498 -598 498 -598 510 -566.5 c 128,-1,129
 522 -535 522 -535 515 -492 c 2,130,-1
 474 -268 l 1,131,132
 445 -274 445 -274 423 -275 c 128,-1,133
 401 -276 401 -276 372 -276 c 0,134,135
 300 -278 300 -278 235 -250 c 128,-1,136
 170 -222 170 -222 121 -172 c 128,-1,137
 72 -122 72 -122 42.5 -55 c 128,-1,138
 13 12 13 12 13 87 c 0,139,140
 13 133 13 133 34.5 185.5 c 128,-1,141
 56 238 56 238 89 289.5 c 128,-1,142
 122 341 122 341 160 388.5 c 128,-1,143
 198 436 198 436 231.5 472.5 c 128,-1,144
 265 509 265 509 288 531 c 128,-1,145
 311 553 311 553 313 554 c 0,146,147
 309 564 309 564 303 589 c 128,-1,148
 297 614 297 614 291.5 645 c 128,-1,149
 286 676 286 676 280.5 706 c 128,-1,150
 275 736 275 736 272 757 c 0,151,152
 268 787 268 787 271.5 824 c 128,-1,153
 275 861 275 861 284.5 899.5 c 128,-1,154
 294 938 294 938 308.5 975 c 128,-1,155
 323 1012 323 1012 340.5 1040 c 128,-1,156
 358 1068 358 1068 379.5 1085.5 c 128,-1,157
 401 1103 401 1103 424 1103 c 0,158,159
 446 1103 446 1103 465.5 1073 c 128,-1,160
 485 1043 485 1043 501 1000 c 128,-1,161
 517 957 517 957 527.5 909.5 c 128,-1,162
 538 862 538 862 540 826 c 0,163,164
 542 786 542 786 535.5 735 c 128,-1,165
 529 684 529 684 509.5 629 c 128,-1,166
 490 574 490 574 455 520 c 128,-1,167
 420 466 420 466 364 420 c 1,168,-1
 394 261 l 1,169,170
 476 273 476 273 535 250.5 c 128,-1,171
 594 228 594 228 631.5 185 c 128,-1,172
 669 142 669 142 685.5 86 c 128,-1,173
 702 30 702 30 699 -25 c 0,174,175
 694 -117 694 -117 639.5 -178.5 c 128,-1,176
 585 -240 585 -240 495 -260 c 1,177,-1
 537 -495 l 2,178,179
 542 -527 542 -527 535 -555.5 c 128,-1,180
 528 -584 528 -584 512.5 -608.5 c 128,-1,181
 497 -633 497 -633 473.5 -652 c 128,-1,182
 450 -671 450 -671 422 -683 c 1,183,184
 449 -699 449 -699 449 -728 c 0,185,186
 449 -748 449 -748 436 -762.5 c 128,-1,187
 423 -777 423 -777 406 -781 c 1,188,189
 413 -783 413 -783 422 -787.5 c 128,-1,190
 431 -792 431 -792 440 -798.5 c 128,-1,191
 449 -805 449 -805 454.5 -814 c 128,-1,192
 460 -823 460 -823 460 -834 c 0,193,194
 460 -854 460 -854 450.5 -869.5 c 128,-1,195
 441 -885 441 -885 427.5 -895.5 c 128,-1,196
 414 -906 414 -906 398 -912 c 128,-1,197
 382 -918 382 -918 368 -918 c 0,198,199
 351 -918 351 -918 335 -910.5 c 128,-1,200
 319 -903 319 -903 308 -891.5 c 128,-1,201
 297 -880 297 -880 291.5 -864.5 c 128,-1,202
 286 -849 286 -849 289 -833 c 0,203,204
 295 -795 295 -795 335 -783 c 1,205,206
 315 -776 315 -776 305.5 -761 c 128,-1,207
 296 -746 296 -746 296 -728 c 0,208,209
 296 -711 296 -711 308 -696 c 1,210,211
 277 -688 277 -688 251 -668.5 c 128,-1,212
 225 -649 225 -649 206.5 -624 c 128,-1,213
 188 -599 188 -599 179.5 -572.5 c 128,-1,214
 171 -546 171 -546 176 -522 c 0,215,216
 184 -478 184 -478 216 -450.5 c 128,-1,217
 248 -423 248 -423 293 -423 c 0,218,219
 315 -423 315 -423 334.5 -430.5 c 128,-1,220
 354 -438 354 -438 369 -452 c 128,-1,221
 384 -466 384 -466 392.5 -485 c 128,-1,222
 401 -504 401 -504 401 -525 c 0,223,224
 401 -549 401 -549 392 -571 c 128,-1,225
 383 -593 383 -593 366.5 -608.5 c 128,-1,226
 350 -624 350 -624 327.5 -632 c 128,-1,227
 305 -640 305 -640 279 -636 c 1,228,229
 286 -643 286 -643 302.5 -656.5 c 128,-1,230
 319 -670 319 -670 345 -675 c 1,231,232
 357 -671 357 -671 374 -671 c 0,122,123
EndSplineSet
Validated: 33
Position2: "'cpsp' Capital Spacing in Latin lookup 0 subtable" dx=7 dy=0 dh=14 dv=0
EndChar

StartChar: W
Encoding: 87 87 53
Width: 652
Flags: W
LayerCount: 2
Fore
SplineSet
536 10 m 1,0,-1
 536 8 l 1,1,-1
 536 10 l 1,0,-1
536 10 m 1,2,-1
 536 187 l 1,3,-1
 564 187 l 1,4,-1
 564 -187 l 1,5,-1
 536 -187 l 1,6,-1
 536 -22 l 1,7,8
 532 -53 532 -53 510.5 -73 c 128,-1,9
 489 -93 489 -93 459.5 -106.5 c 128,-1,10
 430 -120 430 -120 394 -125 c 128,-1,11
 358 -130 358 -130 325 -130 c 0,12,13
 292 -129 292 -129 257.5 -122.5 c 128,-1,14
 223 -116 223 -116 194.5 -102.5 c 128,-1,15
 166 -89 166 -89 146 -68.5 c 128,-1,16
 126 -48 126 -48 122 -18 c 1,17,-1
 122 -187 l 1,18,-1
 93 -187 l 1,19,-1
 93 187 l 1,20,-1
 122 187 l 1,21,-1
 122 10 l 1,22,23
 126 42 126 42 145.5 64.5 c 128,-1,24
 165 87 165 87 193 102 c 128,-1,25
 221 117 221 117 255.5 123.5 c 128,-1,26
 290 130 290 130 325 130 c 256,27,28
 360 130 360 130 395.5 123 c 128,-1,29
 431 116 431 116 460.5 101 c 128,-1,30
 490 86 490 86 510.5 63.5 c 128,-1,31
 531 41 531 41 536 10 c 1,2,-1
7 187 m 1,32,-1
 36 187 l 1,33,-1
 36 -187 l 1,34,-1
 7 -187 l 1,35,-1
 7 187 l 1,32,-1
623 187 m 1,36,-1
 652 187 l 1,37,-1
 652 -187 l 1,38,-1
 623 -187 l 1,39,-1
 623 187 l 1,36,-1
370 -111 m 0,40,41
 388 -106 388 -106 399.5 -93.5 c 128,-1,42
 411 -81 411 -81 417 -65 c 128,-1,43
 423 -49 423 -49 423.5 -30.5 c 128,-1,44
 424 -12 424 -12 420 6 c 0,45,46
 415 30 415 30 402.5 51.5 c 128,-1,47
 390 73 390 73 372.5 88 c 128,-1,48
 355 103 355 103 333.5 110 c 128,-1,49
 312 117 312 117 289 111 c 0,50,51
 269 106 269 106 258 91 c 128,-1,52
 247 76 247 76 243 56.5 c 128,-1,53
 239 37 239 37 241 14.5 c 128,-1,54
 243 -8 243 -8 248 -29 c 0,55,56
 254 -49 254 -49 265 -67 c 128,-1,57
 276 -85 276 -85 292 -97 c 128,-1,58
 308 -109 308 -109 328 -113 c 128,-1,59
 348 -117 348 -117 370 -111 c 0,40,41
EndSplineSet
Validated: 37
Position2: "'cpsp' Capital Spacing in Latin lookup 0 subtable" dx=7 dy=0 dh=14 dv=0
EndChar

StartChar: X
Encoding: 88 88 54
Width: 350
Flags: W
LayerCount: 2
Fore
SplineSet
19 -503 m 1,0,1
 53 -496 53 -496 89 -477.5 c 128,-1,2
 125 -459 125 -459 156.5 -432.5 c 128,-1,3
 188 -406 188 -406 215 -372.5 c 128,-1,4
 242 -339 242 -339 257 -300 c 0,5,6
 264 -284 264 -284 269 -264 c 0,7,8
 268 -262 268 -262 268 -259.5 c 128,-1,9
 268 -257 268 -257 267 -255 c 256,10,11
 266 -253 266 -253 266 -251 c 2,12,-1
 275 -245 l 1,13,14
 290 -180 290 -180 280.5 -123.5 c 128,-1,15
 271 -67 271 -67 254 -24.5 c 128,-1,16
 237 18 237 18 218.5 44 c 128,-1,17
 200 70 200 70 198 73 c 2,18,-1
 204 79 l 1,19,20
 211 70 211 70 224.5 50.5 c 128,-1,21
 238 31 238 31 252 1 c 128,-1,22
 266 -29 266 -29 280.5 -67.5 c 128,-1,23
 295 -106 295 -106 305 -155 c 0,24,25
 310 -183 310 -183 310.5 -230.5 c 128,-1,26
 311 -278 311 -278 295 -331 c 1,27,28
 297 -340 297 -340 299 -349 c 128,-1,29
 301 -358 301 -358 301 -368 c 0,30,31
 302 -384 302 -384 302.5 -412 c 128,-1,32
 303 -440 303 -440 298.5 -474 c 128,-1,33
 294 -508 294 -508 281.5 -545 c 128,-1,34
 269 -582 269 -582 246 -615 c 0,35,36
 230 -639 230 -639 210.5 -665 c 128,-1,37
 191 -691 191 -691 172.5 -716.5 c 128,-1,38
 154 -742 154 -742 135.5 -765 c 128,-1,39
 117 -788 117 -788 100 -806 c 0,40,41
 72 -836 72 -836 55.5 -865.5 c 128,-1,42
 39 -895 39 -895 29.5 -919.5 c 128,-1,43
 20 -944 20 -944 17 -960 c 128,-1,44
 14 -976 14 -976 14 -977 c 2,45,-1
 0 -977 l 1,46,-1
 0 93 l 2,47,48
 -1 112 -1 112 5.5 133 c 128,-1,49
 12 154 12 154 24.5 172.5 c 128,-1,50
 37 191 37 191 54 207.5 c 128,-1,51
 71 224 71 224 91 236 c 0,52,53
 114 248 114 248 137.5 255.5 c 128,-1,54
 161 263 161 263 184 263 c 128,-1,55
 207 263 207 263 227.5 255 c 128,-1,56
 248 247 248 247 265 228 c 0,57,58
 285 205 285 205 287.5 176.5 c 128,-1,59
 290 148 290 148 278.5 120.5 c 128,-1,60
 267 93 267 93 245.5 68.5 c 128,-1,61
 224 44 224 44 198 29 c 0,62,63
 175 17 175 17 151 8.5 c 128,-1,64
 127 0 127 0 104 -0.5 c 128,-1,65
 81 -1 81 -1 59.5 8 c 128,-1,66
 38 17 38 17 19 39 c 1,67,-1
 19 -503 l 1,0,1
283 -364 m 1,68,69
 275 -382 275 -382 266 -395 c 0,70,71
 251 -420 251 -420 229.5 -447.5 c 128,-1,72
 208 -475 208 -475 184.5 -501 c 128,-1,73
 161 -527 161 -527 137.5 -550.5 c 128,-1,74
 114 -574 114 -574 95 -592 c 0,75,76
 71 -615 71 -615 56.5 -636.5 c 128,-1,77
 42 -658 42 -658 33 -678 c 128,-1,78
 24 -698 24 -698 19.5 -714 c 128,-1,79
 15 -730 15 -730 14 -740 c 1,80,-1
 15 -740 l 2,81,82
 40 -737 40 -737 67.5 -716.5 c 128,-1,83
 95 -696 95 -696 124 -664.5 c 128,-1,84
 153 -633 153 -633 180.5 -595 c 128,-1,85
 208 -557 208 -557 231 -520 c 0,86,87
 259 -477 259 -477 271 -437.5 c 128,-1,88
 283 -398 283 -398 283 -364 c 1,68,69
EndSplineSet
Validated: 37
Position2: "'cpsp' Capital Spacing in Latin lookup 0 subtable" dx=7 dy=0 dh=14 dv=0
EndChar

StartChar: Y
Encoding: 89 89 55
Width: 345
Flags: W
LayerCount: 2
Fore
SplineSet
345 1 m 2,0,1
 345 -31 345 -31 329 -54 c 128,-1,2
 313 -77 313 -77 288.5 -92.5 c 128,-1,3
 264 -108 264 -108 233.5 -115 c 128,-1,4
 203 -122 203 -122 172 -122 c 256,5,6
 141 -122 141 -122 110 -115 c 128,-1,7
 79 -108 79 -108 54 -92.5 c 128,-1,8
 29 -77 29 -77 13 -54 c 128,-1,9
 -3 -31 -3 -31 -3 1 c 2,10,-1
 -3 122 l 1,11,-1
 345 122 l 1,12,-1
 345 1 l 2,0,1
172 -102 m 0,13,14
 198 -102 198 -102 225 -96 c 128,-1,15
 252 -90 252 -90 274.5 -77.5 c 128,-1,16
 297 -65 297 -65 311 -45.5 c 128,-1,17
 325 -26 325 -26 325 1 c 2,18,-1
 325 102 l 1,19,-1
 16 102 l 1,20,-1
 16 1 l 2,21,22
 16 -26 16 -26 30 -45.5 c 128,-1,23
 44 -65 44 -65 66 -77.5 c 128,-1,24
 88 -90 88 -90 116 -96 c 128,-1,25
 144 -102 144 -102 172 -102 c 0,13,14
EndSplineSet
Validated: 1
Position2: "'cpsp' Capital Spacing in Latin lookup 0 subtable" dx=7 dy=0 dh=14 dv=0
EndChar

StartChar: Z
Encoding: 90 90 56
Width: 701
Flags: W
LayerCount: 2
Fore
SplineSet
686 251 m 1,0,-1
 686 215 l 1,1,-1
 480 18 l 2,2,3
 481 19 481 19 486.5 22.5 c 128,-1,4
 492 26 492 26 498.5 29 c 128,-1,5
 505 32 505 32 513 34 c 128,-1,6
 521 36 521 36 528 36 c 0,7,8
 544 35 544 35 562 27 c 128,-1,9
 580 19 580 19 594 13.5 c 128,-1,10
 608 8 608 8 617.5 7.5 c 128,-1,11
 627 7 627 7 627 20 c 0,12,13
 627 24 627 24 623.5 27 c 128,-1,14
 620 30 620 30 615.5 32.5 c 128,-1,15
 611 35 611 35 607.5 38.5 c 128,-1,16
 604 42 604 42 604 47 c 0,17,18
 604 55 604 55 610.5 58.5 c 128,-1,19
 617 62 617 62 625.5 63.5 c 128,-1,20
 634 65 634 65 641 63 c 128,-1,21
 648 61 648 61 650 60 c 0,22,23
 664 52 664 52 668 29 c 128,-1,24
 672 6 672 6 660 -14 c 0,25,26
 655 -23 655 -23 646 -31.5 c 128,-1,27
 637 -40 637 -40 626 -46 c 128,-1,28
 615 -52 615 -52 603.5 -55 c 128,-1,29
 592 -58 592 -58 583 -55 c 0,30,31
 555 -47 555 -47 539 -39.5 c 128,-1,32
 523 -32 523 -32 513 -26 c 128,-1,33
 503 -20 503 -20 494.5 -17 c 128,-1,34
 486 -14 486 -14 474 -14 c 0,35,36
 455 -14 455 -14 442.5 -23.5 c 128,-1,37
 430 -33 430 -33 424 -38 c 1,38,-1
 386 -38 l 1,39,-1
 634 204 l 1,40,-1
 477 204 l 1,41,-1
 475 204 l 2,42,43
 467 201 467 201 463 193 c 0,44,45
 461 189 461 189 460 184 c 1,46,-1
 445 184 l 1,47,-1
 474 251 l 1,48,-1
 686 251 l 1,0,-1
421 218 m 1,49,-1
 333 218 l 2,50,51
 333 216 333 216 329.5 202 c 128,-1,52
 326 188 326 188 323 176 c 0,53,54
 309 120 309 120 293.5 68 c 128,-1,55
 278 16 278 16 256 -28 c 128,-1,56
 234 -72 234 -72 206 -107 c 128,-1,57
 178 -142 178 -142 138 -166 c 0,58,59
 121 -177 121 -177 101 -180 c 128,-1,60
 81 -183 81 -183 63 -180.5 c 128,-1,61
 45 -178 45 -178 31 -171 c 128,-1,62
 17 -164 17 -164 11 -153 c 0,63,64
 0 -134 0 -134 1.5 -115.5 c 128,-1,65
 3 -97 3 -97 11.5 -84 c 128,-1,66
 20 -71 20 -71 33.5 -64 c 128,-1,67
 47 -57 47 -57 59 -59 c 0,68,69
 88 -64 88 -64 94 -80.5 c 128,-1,70
 100 -97 100 -97 94 -118 c 0,71,72
 89 -131 89 -131 83 -136.5 c 128,-1,73
 77 -142 77 -142 63 -145 c 0,74,75
 57 -147 57 -147 56 -150.5 c 128,-1,76
 55 -154 55 -154 57.5 -157.5 c 128,-1,77
 60 -161 60 -161 66 -163.5 c 128,-1,78
 72 -166 72 -166 81 -165 c 0,79,80
 94 -163 94 -163 106.5 -148.5 c 128,-1,81
 119 -134 119 -134 127 -123 c 0,82,83
 146 -95 146 -95 160 -59.5 c 128,-1,84
 174 -24 174 -24 185 13.5 c 128,-1,85
 196 51 196 51 204.5 88 c 128,-1,86
 213 125 213 125 222 156 c 0,87,88
 228 180 228 180 230.5 198 c 128,-1,89
 233 216 233 216 233 218 c 2,90,-1
 173 218 l 1,91,-1
 173 237 l 1,92,-1
 241 237 l 2,93,94
 241 240 241 240 247 264.5 c 128,-1,95
 253 289 253 289 270 320 c 128,-1,96
 287 351 287 351 317.5 381.5 c 128,-1,97
 348 412 348 412 396 424 c 0,98,99
 424 431 424 431 448 429 c 128,-1,100
 472 427 472 427 490 417.5 c 128,-1,101
 508 408 508 408 518.5 392 c 128,-1,102
 529 376 529 376 529 354 c 0,103,104
 529 336 529 336 523 324.5 c 128,-1,105
 517 313 517 313 508 307.5 c 128,-1,106
 499 302 499 302 489 301.5 c 128,-1,107
 479 301 479 301 472 304 c 0,108,109
 461 308 461 308 456 317 c 128,-1,110
 451 326 451 326 450.5 335.5 c 128,-1,111
 450 345 450 345 454 354.5 c 128,-1,112
 458 364 458 364 465 371 c 0,113,114
 468 375 468 375 474 376 c 128,-1,115
 480 377 480 377 486.5 377.5 c 128,-1,116
 493 378 493 378 498 379.5 c 128,-1,117
 503 381 503 381 504 385 c 0,118,119
 506 394 506 394 498 398.5 c 128,-1,120
 490 403 490 403 478 404.5 c 128,-1,121
 466 406 466 406 452 403 c 128,-1,122
 438 400 438 400 428 396 c 0,123,124
 396 382 396 382 378.5 355.5 c 128,-1,125
 361 329 361 329 352 302 c 0,126,127
 341 270 341 270 339 237 c 1,128,-1
 421 237 l 1,129,-1
 421 218 l 1,49,-1
EndSplineSet
Validated: 37
Position2: "'cpsp' Capital Spacing in Latin lookup 0 subtable" dx=7 dy=0 dh=14 dv=0
EndChar

StartChar: bracketleft
Encoding: 91 91 57
Width: 473
Flags: W
LayerCount: 2
Fore
SplineSet
220 -76 m 1,0,-1
 273 -55 l 1,1,-1
 273 75 l 1,2,-1
 220 54 l 1,3,-1
 220 -76 l 1,0,-1
273 292 m 1,4,-1
 295 292 l 1,5,-1
 295 165 l 1,6,-1
 327 178 l 1,7,-1
 327 97 l 1,8,-1
 295 84 l 1,9,-1
 295 -46 l 1,10,-1
 327 -32 l 1,11,-1
 327 -113 l 1,12,-1
 295 -126 l 1,13,-1
 295 -260 l 1,14,-1
 273 -260 l 1,15,-1
 273 -135 l 1,16,-1
 220 -157 l 1,17,-1
 220 -292 l 1,18,-1
 199 -292 l 1,19,-1
 199 -166 l 1,20,-1
 166 -178 l 1,21,-1
 166 -97 l 1,22,-1
 199 -85 l 1,23,-1
 199 45 l 1,24,-1
 166 32 l 1,25,-1
 166 114 l 1,26,-1
 199 126 l 1,27,-1
 199 260 l 1,28,-1
 220 260 l 1,29,-1
 220 134 l 1,30,-1
 273 156 l 1,31,-1
 273 292 l 1,4,-1
450 0 m 0,32,33
 450 35 450 35 446 62.5 c 128,-1,34
 442 90 442 90 431 114.5 c 128,-1,35
 420 139 420 139 399.5 162 c 128,-1,36
 379 185 379 185 345 212 c 1,37,38
 368 203 368 203 394 182 c 128,-1,39
 420 161 420 161 441.5 131.5 c 128,-1,40
 463 102 463 102 477.5 68 c 128,-1,41
 492 34 492 34 490 0 c 0,42,43
 489 -38 489 -38 475.5 -72 c 128,-1,44
 462 -106 462 -106 440.5 -134.5 c 128,-1,45
 419 -163 419 -163 393.5 -182.5 c 128,-1,46
 368 -202 368 -202 345 -211 c 1,47,48
 379 -185 379 -185 400 -161.5 c 128,-1,49
 421 -138 421 -138 431.5 -113.5 c 128,-1,50
 442 -89 442 -89 446 -61.5 c 128,-1,51
 450 -34 450 -34 450 0 c 0,32,33
150 212 m 1,52,53
 115 185 115 185 94.5 162 c 128,-1,54
 74 139 74 139 62.5 114.5 c 128,-1,55
 51 90 51 90 47.5 62.5 c 128,-1,56
 44 35 44 35 44 0 c 0,57,58
 44 -34 44 -34 47.5 -61.5 c 128,-1,59
 51 -89 51 -89 62.5 -113.5 c 128,-1,60
 74 -138 74 -138 94.5 -161.5 c 128,-1,61
 115 -185 115 -185 150 -211 c 1,62,63
 126 -202 126 -202 100.5 -182.5 c 128,-1,64
 75 -163 75 -163 53.5 -134.5 c 128,-1,65
 32 -106 32 -106 17.5 -72 c 128,-1,66
 3 -38 3 -38 3 0 c 0,67,68
 3 34 3 34 17 68 c 128,-1,69
 31 102 31 102 52.5 131.5 c 128,-1,70
 74 161 74 161 100 182 c 128,-1,71
 126 203 126 203 150 212 c 1,52,53
EndSplineSet
Validated: 33
EndChar

StartChar: backslash
Encoding: 92 92 58
Width: 43
Flags: W
LayerCount: 2
Fore
SplineSet
19 1038 m 1,0,-1
 19 0 l 1,1,-1
 0 0 l 1,2,-1
 0 1038 l 1,3,-1
 19 1038 l 1,0,-1
EndSplineSet
Validated: 1
EndChar

StartChar: bracketright
Encoding: 93 93 59
Width: 389
Flags: W
LayerCount: 2
Fore
SplineSet
217 22 m 2,0,1
 221 24 221 24 226 28.5 c 128,-1,2
 231 33 231 33 234 38 c 0,3,4
 236 43 236 43 237.5 52.5 c 128,-1,5
 239 62 239 62 239.5 71.5 c 128,-1,6
 240 81 240 81 239.5 88.5 c 128,-1,7
 239 96 239 96 239 97 c 2,8,-1
 303 97 l 1,9,-1
 303 32 l 2,10,11
 302 32 302 32 296.5 32.5 c 128,-1,12
 291 33 291 33 282.5 33 c 128,-1,13
 274 33 274 33 265 31.5 c 128,-1,14
 256 30 256 30 249 27 c 0,15,16
 238 22 238 22 227 10 c 1,17,-1
 227 -11 l 1,18,19
 237 -21 237 -21 251 -27 c 0,20,21
 265 -34 265 -34 283.5 -33.5 c 128,-1,22
 302 -33 302 -33 304 -33 c 2,23,-1
 304 -97 l 1,24,-1
 240 -97 l 2,25,26
 240 -96 240 -96 240.5 -88.5 c 128,-1,27
 241 -81 241 -81 240.5 -71.5 c 128,-1,28
 240 -62 240 -62 239 -52.5 c 128,-1,29
 238 -43 238 -43 236 -38 c 0,30,31
 233 -33 233 -33 227.5 -28.5 c 128,-1,32
 222 -24 222 -24 218 -22 c 2,33,-1
 197 -22 l 2,34,35
 193 -24 193 -24 187.5 -28.5 c 128,-1,36
 182 -33 182 -33 180 -38 c 0,37,38
 177 -43 177 -43 176 -52.5 c 128,-1,39
 175 -62 175 -62 174.5 -71.5 c 128,-1,40
 174 -81 174 -81 174.5 -88.5 c 128,-1,41
 175 -96 175 -96 175 -97 c 2,42,-1
 111 -97 l 1,43,-1
 111 -33 l 2,44,45
 112 -33 112 -33 117.5 -33.5 c 128,-1,46
 123 -34 123 -34 131 -34 c 128,-1,47
 139 -34 139 -34 148.5 -32.5 c 128,-1,48
 158 -31 158 -31 165 -27 c 0,49,50
 178 -21 178 -21 186 -11 c 1,51,-1
 186 10 l 1,52,53
 177 20 177 20 164 27 c 0,54,55
 157 30 157 30 147.5 31.5 c 128,-1,56
 138 33 138 33 130 33 c 128,-1,57
 122 33 122 33 116.5 32.5 c 128,-1,58
 111 32 111 32 110 32 c 2,59,-1
 110 97 l 1,60,-1
 174 97 l 2,61,62
 174 96 174 96 173.5 88.5 c 128,-1,63
 173 81 173 81 173.5 71.5 c 128,-1,64
 174 62 174 62 175.5 52.5 c 128,-1,65
 177 43 177 43 179 38 c 256,66,67
 181 33 181 33 186 28.5 c 128,-1,68
 191 24 191 24 197 22 c 2,69,-1
 217 22 l 2,0,1
374 -2 m 0,70,71
 374 32 374 32 370.5 59.5 c 128,-1,72
 367 87 367 87 355.5 111.5 c 128,-1,73
 344 136 344 136 323 159.5 c 128,-1,74
 302 183 302 183 268 209 c 1,75,76
 292 200 292 200 318 179 c 128,-1,77
 344 158 344 158 365.5 128.5 c 128,-1,78
 387 99 387 99 401.5 65.5 c 128,-1,79
 416 32 416 32 415 -2 c 0,80,81
 414 -40 414 -40 399.5 -75 c 128,-1,82
 385 -110 385 -110 363.5 -137.5 c 128,-1,83
 342 -165 342 -165 316.5 -185 c 128,-1,84
 291 -205 291 -205 268 -213 c 1,85,86
 303 -187 303 -187 323.5 -164 c 128,-1,87
 344 -141 344 -141 355.5 -116.5 c 128,-1,88
 367 -92 367 -92 370.5 -64.5 c 128,-1,89
 374 -37 374 -37 374 -2 c 0,70,71
144 209 m 1,90,91
 109 183 109 183 89 159.5 c 128,-1,92
 69 136 69 136 57.5 111.5 c 128,-1,93
 46 87 46 87 42.5 59.5 c 128,-1,94
 39 32 39 32 39 -2 c 0,95,96
 39 -37 39 -37 42.5 -64.5 c 128,-1,97
 46 -92 46 -92 57.5 -116.5 c 128,-1,98
 69 -141 69 -141 89.5 -164 c 128,-1,99
 110 -187 110 -187 144 -213 c 1,100,101
 120 -204 120 -204 95 -184.5 c 128,-1,102
 70 -165 70 -165 48.5 -137 c 128,-1,103
 27 -109 27 -109 12.5 -74.5 c 128,-1,104
 -2 -40 -2 -40 -2 -2 c 0,105,106
 -2 32 -2 32 12.5 65.5 c 128,-1,107
 27 99 27 99 48.5 128.5 c 128,-1,108
 70 158 70 158 95 179 c 128,-1,109
 120 200 120 200 144 209 c 1,90,91
EndSplineSet
Validated: 33
EndChar

StartChar: asciicircum
Encoding: 94 94 60
Width: 303
Flags: W
LayerCount: 2
Fore
SplineSet
0 0 m 1,0,-1
 152 433 l 1,1,-1
 303 0 l 1,2,-1
 247 0 l 1,3,-1
 133 325 l 1,4,-1
 20 0 l 1,5,-1
 0 0 l 1,0,-1
EndSplineSet
Validated: 1
EndChar

StartChar: underscore
Encoding: 95 95 61
Width: 433
Flags: W
LayerCount: 2
Fore
SplineSet
433 17 m 1,0,-1
 433 0 l 1,1,-1
 0 0 l 1,2,-1
 0 17 l 1,3,-1
 433 17 l 1,0,-1
EndSplineSet
Validated: 1
EndChar

StartChar: a
Encoding: 97 97 62
Width: 680
Flags: W
LayerCount: 2
Fore
SplineSet
289 -101 m 1,0,-1
 359 -73 l 1,1,-1
 359 99 l 1,2,-1
 289 72 l 1,3,-1
 289 -101 l 1,0,-1
359 389 m 1,4,-1
 388 389 l 1,5,-1
 388 220 l 1,6,-1
 432 238 l 1,7,-1
 432 130 l 1,8,-1
 388 112 l 1,9,-1
 388 -61 l 1,10,-1
 432 -43 l 1,11,-1
 432 -151 l 1,12,-1
 388 -169 l 1,13,-1
 388 -346 l 1,14,-1
 359 -346 l 1,15,-1
 359 -181 l 1,16,-1
 289 -209 l 1,17,-1
 289 -389 l 1,18,-1
 260 -389 l 1,19,-1
 260 -221 l 1,20,-1
 217 -238 l 1,21,-1
 217 -130 l 1,22,-1
 260 -113 l 1,23,-1
 260 60 l 1,24,-1
 217 43 l 1,25,-1
 217 152 l 1,26,-1
 260 167 l 1,27,-1
 260 346 l 1,28,-1
 289 346 l 1,29,-1
 289 180 l 1,30,-1
 359 208 l 1,31,-1
 359 389 l 1,4,-1
596 0 m 256,32,33
 596 46 596 46 591.5 82.5 c 128,-1,34
 587 119 587 119 572 151.5 c 128,-1,35
 557 184 557 184 529.5 215.5 c 128,-1,36
 502 247 502 247 457 281 c 1,37,38
 488 270 488 270 522 241 c 128,-1,39
 556 212 556 212 585 173.5 c 128,-1,40
 614 135 614 135 633 90 c 128,-1,41
 652 45 652 45 651 0 c 0,42,43
 650 -51 650 -51 630.5 -97 c 128,-1,44
 611 -143 611 -143 583 -180.5 c 128,-1,45
 555 -218 555 -218 521 -244 c 128,-1,46
 487 -270 487 -270 457 -282 c 1,47,48
 503 -247 503 -247 530 -216 c 128,-1,49
 557 -185 557 -185 572 -152.5 c 128,-1,50
 587 -120 587 -120 591.5 -83 c 128,-1,51
 596 -46 596 -46 596 0 c 256,32,33
195 281 m 1,52,53
 149 247 149 247 121.5 215.5 c 128,-1,54
 94 184 94 184 79.5 151.5 c 128,-1,55
 65 119 65 119 60 82.5 c 128,-1,56
 55 46 55 46 55 0 c 256,57,58
 55 -46 55 -46 60 -83 c 128,-1,59
 65 -120 65 -120 79 -152.5 c 128,-1,60
 93 -185 93 -185 120.5 -216 c 128,-1,61
 148 -247 148 -247 195 -282 c 1,62,63
 164 -271 164 -271 129.5 -244 c 128,-1,64
 95 -217 95 -217 66.5 -180 c 128,-1,65
 38 -143 38 -143 19 -97 c 128,-1,66
 0 -51 0 -51 0 0 c 0,67,68
 0 45 0 45 19 90 c 128,-1,69
 38 135 38 135 66.5 173.5 c 128,-1,70
 95 212 95 212 129.5 241 c 128,-1,71
 164 270 164 270 195 281 c 1,52,53
EndSplineSet
Validated: 33
Substitution2: "Single Substitution lookup 3 subtable" ordfeminine
EndChar

StartChar: b
Encoding: 98 98 63
Width: 229
Flags: W
LayerCount: 2
Fore
SplineSet
126 92 m 0,0,1
 123 93 123 93 116.5 95.5 c 128,-1,2
 110 98 110 98 98 96.5 c 128,-1,3
 86 95 86 95 69.5 88 c 128,-1,4
 53 81 53 81 32 62 c 1,5,-1
 32 -141 l 2,6,7
 33 -142 33 -142 47 -129 c 128,-1,8
 61 -116 61 -116 79.5 -95 c 128,-1,9
 98 -74 98 -74 117 -47 c 128,-1,10
 136 -20 136 -20 146.5 6 c 128,-1,11
 157 32 157 32 154 55 c 128,-1,12
 151 78 151 78 126 92 c 0,0,1
32 498 m 1,13,-1
 32 89 l 1,14,15
 43 96 l 0,16,17
 54 103 54 103 72 111 c 128,-1,18
 90 119 90 119 112 124.5 c 128,-1,19
 134 130 134 130 155 128.5 c 128,-1,20
 176 127 176 127 193.5 114.5 c 128,-1,21
 211 102 211 102 220 74 c 0,22,23
 230 42 230 42 219.5 12.5 c 128,-1,24
 209 -17 209 -17 188 -43 c 128,-1,25
 167 -69 167 -69 141.5 -88.5 c 128,-1,26
 116 -108 116 -108 96 -118 c 0,27,28
 87 -124 87 -124 72.5 -136 c 128,-1,29
 58 -148 58 -148 44.5 -161.5 c 128,-1,30
 31 -175 31 -175 19 -186.5 c 128,-1,31
 7 -198 7 -198 3 -201 c 1,32,-1
 3 498 l 1,33,-1
 32 498 l 1,13,-1
EndSplineSet
Validated: 33
EndChar

StartChar: c
Encoding: 99 99 64
Width: 433
Flags: W
LayerCount: 2
Fore
SplineSet
4 1 m 0,0,1
 4 50 4 50 20 95.5 c 128,-1,2
 36 141 36 141 65 176 c 128,-1,3
 94 211 94 211 135 232 c 128,-1,4
 176 253 176 253 225 253 c 0,5,6
 266 253 266 253 303 243 c 128,-1,7
 340 233 340 233 367.5 214.5 c 128,-1,8
 395 196 395 196 411.5 167 c 128,-1,9
 428 138 428 138 428 101 c 0,10,11
 428 86 428 86 420 72 c 128,-1,12
 412 58 412 58 399.5 47.5 c 128,-1,13
 387 37 387 37 373 31 c 128,-1,14
 359 25 359 25 349 25 c 256,15,16
 339 25 339 25 324 28.5 c 128,-1,17
 309 32 309 32 295.5 40 c 128,-1,18
 282 48 282 48 272 63 c 128,-1,19
 262 78 262 78 262 101 c 0,20,21
 262 116 262 116 270 128 c 128,-1,22
 278 140 278 140 289.5 148.5 c 128,-1,23
 301 157 301 157 315.5 161.5 c 128,-1,24
 330 166 330 166 343 166 c 0,25,26
 359 166 359 166 362 173 c 128,-1,27
 365 180 365 180 353 191 c 0,28,29
 328 218 328 218 295 225.5 c 128,-1,30
 262 233 262 233 230 227 c 0,31,32
 193 219 193 219 171.5 196 c 128,-1,33
 150 173 150 173 138.5 141.5 c 128,-1,34
 127 110 127 110 124 72 c 128,-1,35
 121 34 121 34 121 -3 c 0,36,37
 122 -40 122 -40 126.5 -79.5 c 128,-1,38
 131 -119 131 -119 143.5 -152 c 128,-1,39
 156 -185 156 -185 178.5 -206 c 128,-1,40
 201 -227 201 -227 238 -227 c 0,41,42
 268 -227 268 -227 297 -215.5 c 128,-1,43
 326 -204 326 -204 349 -183 c 128,-1,44
 372 -162 372 -162 386 -133.5 c 128,-1,45
 400 -105 400 -105 399 -73 c 1,46,-1
 421 -73 l 1,47,48
 421 -83 421 -83 417.5 -97.5 c 128,-1,49
 414 -112 414 -112 409 -126.5 c 128,-1,50
 404 -141 404 -141 397.5 -154.5 c 128,-1,51
 391 -168 391 -168 385 -176 c 0,52,53
 372 -192 372 -192 354 -206.5 c 128,-1,54
 336 -221 336 -221 316 -232 c 128,-1,55
 296 -243 296 -243 275 -249 c 128,-1,56
 254 -255 254 -255 236 -255 c 0,57,58
 185 -255 185 -255 142 -234 c 128,-1,59
 99 -213 99 -213 68.5 -177.5 c 128,-1,60
 38 -142 38 -142 21 -95.5 c 128,-1,61
 4 -49 4 -49 4 1 c 0,0,1
EndSplineSet
Validated: 33
EndChar

StartChar: e
Encoding: 101 101 65
Width: 544
Flags: W
LayerCount: 2
Fore
SplineSet
290 171 m 2,0,1
 291 151 291 151 284.5 130 c 128,-1,2
 278 109 278 109 265.5 89 c 128,-1,3
 253 69 253 69 235.5 52 c 128,-1,4
 218 35 218 35 199 24 c 0,5,6
 177 11 177 11 153.5 3 c 128,-1,7
 130 -5 130 -5 107 -5 c 128,-1,8
 84 -5 84 -5 63 3 c 128,-1,9
 42 11 42 11 25 31 c 0,10,11
 5 54 5 54 2.5 82 c 128,-1,12
 0 110 0 110 11.5 137.5 c 128,-1,13
 23 165 23 165 44.5 189.5 c 128,-1,14
 66 214 66 214 92 229 c 0,15,16
 116 242 116 242 141 250 c 128,-1,17
 166 258 166 258 190 257.5 c 128,-1,18
 214 257 214 257 235 248 c 128,-1,19
 256 239 256 239 270 220 c 1,20,-1
 270 1040 l 1,21,-1
 291 1040 l 2,22,23
 291 1038 291 1038 292.5 1024 c 128,-1,24
 294 1010 294 1010 301.5 987 c 128,-1,25
 309 964 309 964 325.5 935.5 c 128,-1,26
 342 907 342 907 373 879 c 0,27,28
 391 862 391 862 414 838.5 c 128,-1,29
 437 815 437 815 460.5 788.5 c 128,-1,30
 484 762 484 762 505.5 735 c 128,-1,31
 527 708 527 708 543 683 c 0,32,33
 563 649 563 649 573.5 614 c 128,-1,34
 584 579 584 579 587 546.5 c 128,-1,35
 590 514 590 514 587.5 487 c 128,-1,36
 585 460 585 460 582 441 c 0,37,38
 573 393 573 393 558.5 354 c 128,-1,39
 544 315 544 315 529 285.5 c 128,-1,40
 514 256 514 256 500.5 236.5 c 128,-1,41
 487 217 487 217 480 208 c 1,42,-1
 475 214 l 2,43,44
 476 216 476 216 487 230.5 c 128,-1,45
 498 245 498 245 511.5 270 c 128,-1,46
 525 295 525 295 538 329.5 c 128,-1,47
 551 364 551 364 557 404.5 c 128,-1,48
 563 445 563 445 559 492 c 128,-1,49
 555 539 555 539 535 588 c 0,50,51
 519 626 519 626 491.5 660 c 128,-1,52
 464 694 464 694 431 721.5 c 128,-1,53
 398 749 398 749 361.5 766.5 c 128,-1,54
 325 784 325 784 290 790 c 1,55,-1
 290 171 l 2,0,1
EndSplineSet
Validated: 33
EndChar

StartChar: f
Encoding: 102 102 66
Width: 530
Flags: W
LayerCount: 2
Fore
SplineSet
421 218 m 1,0,-1
 333 218 l 2,1,2
 333 216 333 216 329.5 202 c 128,-1,3
 326 188 326 188 323 176 c 0,4,5
 309 120 309 120 293.5 68 c 128,-1,6
 278 16 278 16 256 -28 c 128,-1,7
 234 -72 234 -72 206 -107 c 128,-1,8
 178 -142 178 -142 138 -166 c 0,9,10
 121 -177 121 -177 101 -180 c 128,-1,11
 81 -183 81 -183 63 -180.5 c 128,-1,12
 45 -178 45 -178 31 -171 c 128,-1,13
 17 -164 17 -164 11 -153 c 0,14,15
 0 -134 0 -134 1.5 -115.5 c 128,-1,16
 3 -97 3 -97 11.5 -84 c 128,-1,17
 20 -71 20 -71 33.5 -64 c 128,-1,18
 47 -57 47 -57 59 -59 c 0,19,20
 88 -64 88 -64 94 -80.5 c 128,-1,21
 100 -97 100 -97 94 -118 c 0,22,23
 89 -131 89 -131 83 -136.5 c 128,-1,24
 77 -142 77 -142 63 -145 c 0,25,26
 57 -147 57 -147 56 -150.5 c 128,-1,27
 55 -154 55 -154 57.5 -157.5 c 128,-1,28
 60 -161 60 -161 66 -163.5 c 128,-1,29
 72 -166 72 -166 81 -165 c 0,30,31
 94 -163 94 -163 106.5 -148.5 c 128,-1,32
 119 -134 119 -134 127 -123 c 0,33,34
 146 -95 146 -95 160 -59.5 c 128,-1,35
 174 -24 174 -24 185 13.5 c 128,-1,36
 196 51 196 51 204.5 88 c 128,-1,37
 213 125 213 125 222 156 c 0,38,39
 228 180 228 180 230.5 198 c 128,-1,40
 233 216 233 216 233 218 c 2,41,-1
 173 218 l 1,42,-1
 173 237 l 1,43,-1
 241 237 l 2,44,45
 241 240 241 240 247 264.5 c 128,-1,46
 253 289 253 289 270 320 c 128,-1,47
 287 351 287 351 317.5 381.5 c 128,-1,48
 348 412 348 412 396 424 c 0,49,50
 424 431 424 431 448 429 c 128,-1,51
 472 427 472 427 490 417.5 c 128,-1,52
 508 408 508 408 518.5 392 c 128,-1,53
 529 376 529 376 529 354 c 0,54,55
 529 336 529 336 523 324.5 c 128,-1,56
 517 313 517 313 508 307.5 c 128,-1,57
 499 302 499 302 489 301.5 c 128,-1,58
 479 301 479 301 472 304 c 0,59,60
 461 308 461 308 456 317 c 128,-1,61
 451 326 451 326 450.5 335.5 c 128,-1,62
 450 345 450 345 454 354.5 c 128,-1,63
 458 364 458 364 465 371 c 0,64,65
 468 375 468 375 474 376 c 128,-1,66
 480 377 480 377 486.5 377.5 c 128,-1,67
 493 378 493 378 498 379.5 c 128,-1,68
 503 381 503 381 504 385 c 0,69,70
 506 394 506 394 498 398.5 c 128,-1,71
 490 403 490 403 478 404.5 c 128,-1,72
 466 406 466 406 452 403 c 128,-1,73
 438 400 438 400 428 396 c 0,74,75
 396 382 396 382 378.5 355.5 c 128,-1,76
 361 329 361 329 352 302 c 0,77,78
 341 270 341 270 339 237 c 1,79,-1
 421 237 l 1,80,-1
 421 218 l 1,0,-1
EndSplineSet
Validated: 33
EndChar

StartChar: g
Encoding: 103 103 67
Width: 149
Flags: W
LayerCount: 2
Fore
SplineSet
10 131 m 0,0,1
 12 153 12 153 24 167.5 c 128,-1,2
 36 182 36 182 49 195 c 128,-1,3
 62 208 62 208 73 220.5 c 128,-1,4
 84 233 84 233 84 251 c 0,5,6
 84 262 84 262 72 279.5 c 128,-1,7
 60 297 60 297 46.5 317 c 128,-1,8
 33 337 33 337 21.5 358.5 c 128,-1,9
 10 380 10 380 10 399 c 0,10,11
 10 413 10 413 20 426 c 128,-1,12
 30 439 30 439 43 451 c 128,-1,13
 56 463 56 463 68.5 474 c 128,-1,14
 81 485 81 485 87 498 c 0,15,16
 92 510 92 510 93.5 516 c 128,-1,17
 95 522 95 522 93.5 527 c 128,-1,18
 92 532 92 532 88.5 538 c 128,-1,19
 85 544 85 544 79 554 c 0,20,21
 79 559 79 559 75.5 564 c 128,-1,22
 72 569 72 569 68.5 574 c 128,-1,23
 65 579 65 579 62.5 582 c 128,-1,24
 60 585 60 585 62 585 c 0,25,26
 63 585 63 585 69 580 c 128,-1,27
 75 575 75 575 80.5 569 c 128,-1,28
 86 563 86 563 90.5 557.5 c 128,-1,29
 95 552 95 552 95 551 c 0,30,31
 98 547 98 547 106 537.5 c 128,-1,32
 114 528 114 528 121.5 517.5 c 128,-1,33
 129 507 129 507 134.5 496 c 128,-1,34
 140 485 140 485 140 479 c 0,35,36
 138 462 138 462 125.5 448 c 128,-1,37
 113 434 113 434 97.5 420 c 128,-1,38
 82 406 82 406 67 390 c 128,-1,39
 52 374 52 374 46 353 c 0,40,41
 43 342 43 342 57.5 323.5 c 128,-1,42
 72 305 72 305 90 284 c 128,-1,43
 108 263 108 263 121.5 242 c 128,-1,44
 135 221 135 221 130 206 c 256,45,46
 125 191 125 191 113.5 179.5 c 128,-1,47
 102 168 102 168 90.5 156.5 c 128,-1,48
 79 145 79 145 69 132 c 128,-1,49
 59 119 59 119 57 100 c 0,50,51
 56 89 56 89 57 77 c 128,-1,52
 58 65 58 65 68 41 c 0,53,54
 69 36 69 36 72 30 c 128,-1,55
 75 24 75 24 78 18.5 c 128,-1,56
 81 13 81 13 82.5 9.5 c 128,-1,57
 84 6 84 6 82 6 c 256,58,59
 80 6 80 6 76 10.5 c 128,-1,60
 72 15 72 15 67 21.5 c 128,-1,61
 62 28 62 28 58.5 33.5 c 128,-1,62
 55 39 55 39 55 40 c 0,63,64
 52 43 52 43 44.5 54.5 c 128,-1,65
 37 66 37 66 29.5 79.5 c 128,-1,66
 22 93 22 93 15.5 107.5 c 128,-1,67
 9 122 9 122 10 131 c 0,0,1
EndSplineSet
Validated: 33
EndChar

StartChar: h
Encoding: 104 104 68
Width: 346
Flags: W
LayerCount: 2
Fore
SplineSet
290 171 m 2,0,1
 291 151 291 151 284.5 130 c 128,-1,2
 278 109 278 109 265.5 89 c 128,-1,3
 253 69 253 69 235.5 52 c 128,-1,4
 218 35 218 35 199 24 c 0,5,6
 177 11 177 11 153.5 3 c 128,-1,7
 130 -5 130 -5 107 -5 c 128,-1,8
 84 -5 84 -5 63 3 c 128,-1,9
 42 11 42 11 25 31 c 0,10,11
 5 54 5 54 2.5 82 c 128,-1,12
 0 110 0 110 11.5 137.5 c 128,-1,13
 23 165 23 165 44.5 189.5 c 128,-1,14
 66 214 66 214 92 229 c 0,15,16
 116 242 116 242 141 250 c 128,-1,17
 166 258 166 258 189.5 257.5 c 128,-1,18
 213 257 213 257 234 248 c 128,-1,19
 255 239 255 239 270 220 c 1,20,-1
 270 1040 l 1,21,-1
 290 1040 l 1,22,-1
 290 171 l 2,0,1
36 45 m 256,23,24
 45 36 45 36 63 36 c 128,-1,25
 81 36 81 36 102 41.5 c 128,-1,26
 123 47 123 47 143.5 57.5 c 128,-1,27
 164 68 164 68 179 79 c 0,28,29
 196 92 196 92 213 112.5 c 128,-1,30
 230 133 230 133 241.5 154 c 128,-1,31
 253 175 253 175 257 194 c 128,-1,32
 261 213 261 213 254 224 c 0,33,34
 248 232 248 232 231 230.5 c 128,-1,35
 214 229 214 229 193 222 c 128,-1,36
 172 215 172 215 151 204 c 128,-1,37
 130 193 130 193 116 182 c 0,38,39
 98 169 98 169 79 149.5 c 128,-1,40
 60 130 60 130 47.5 110 c 128,-1,41
 35 90 35 90 31 72 c 128,-1,42
 27 54 27 54 36 45 c 256,23,24
EndSplineSet
Validated: 33
EndChar

StartChar: i
Encoding: 105 105 69
Width: 229
Flags: W
LayerCount: 2
Fore
SplineSet
87 18 m 0,0,1
 85 20 85 20 66.5 21 c 128,-1,2
 48 22 48 22 28 4 c 1,3,-1
 28 -96 l 2,4,5
 29 -97 29 -97 46 -84.5 c 128,-1,6
 63 -72 63 -72 79.5 -53.5 c 128,-1,7
 96 -35 96 -35 102.5 -15 c 128,-1,8
 109 5 109 5 87 18 c 0,0,1
28 222 m 1,9,-1
 28 17 l 1,10,11
 50 29 50 29 68 34 c 0,12,13
 84 38 84 38 99.5 35 c 128,-1,14
 115 32 115 32 123 11 c 0,15,16
 128 -5 128 -5 123 -20 c 128,-1,17
 118 -35 118 -35 107 -48 c 128,-1,18
 96 -61 96 -61 83.5 -71 c 128,-1,19
 71 -81 71 -81 60 -87 c 0,20,21
 55 -90 55 -90 48 -95.5 c 128,-1,22
 41 -101 41 -101 34.5 -108 c 128,-1,23
 28 -115 28 -115 21.5 -120.5 c 128,-1,24
 15 -126 15 -126 13 -127 c 2,25,-1
 13 222 l 1,26,-1
 28 222 l 1,9,-1
EndSplineSet
Validated: 33
EndChar

StartChar: j
Encoding: 106 106 70
Width: 338
Flags: W
LayerCount: 2
Fore
SplineSet
0 275 m 1,0,-1
 14 275 l 2,1,2
 14 273 14 273 15.5 259 c 128,-1,3
 17 245 17 245 25 222 c 128,-1,4
 33 199 33 199 49.5 170.5 c 128,-1,5
 66 142 66 142 96 114 c 0,6,7
 114 97 114 97 138 73.5 c 128,-1,8
 162 50 162 50 185.5 23.5 c 128,-1,9
 209 -3 209 -3 230.5 -30 c 128,-1,10
 252 -57 252 -57 267 -82 c 0,11,12
 287 -116 287 -116 297 -150.5 c 128,-1,13
 307 -185 307 -185 310 -217.5 c 128,-1,14
 313 -250 313 -250 311 -277 c 128,-1,15
 309 -304 309 -304 306 -323 c 0,16,17
 296 -371 296 -371 281.5 -410.5 c 128,-1,18
 267 -450 267 -450 253 -479.5 c 128,-1,19
 239 -509 239 -509 225.5 -528.5 c 128,-1,20
 212 -548 212 -548 205 -557 c 1,21,-1
 199 -551 l 2,22,23
 200 -549 200 -549 210.5 -534.5 c 128,-1,24
 221 -520 221 -520 235 -495 c 128,-1,25
 249 -470 249 -470 261.5 -435.5 c 128,-1,26
 274 -401 274 -401 280.5 -360 c 128,-1,27
 287 -319 287 -319 283 -272.5 c 128,-1,28
 279 -226 279 -226 258 -177 c 0,29,30
 243 -139 243 -139 216 -105 c 128,-1,31
 189 -71 189 -71 156 -43.5 c 128,-1,32
 123 -16 123 -16 85.5 1.5 c 128,-1,33
 48 19 48 19 11 25 c 1,34,-1
 10 24 l 1,35,-1
 10 0 l 1,36,-1
 0 0 l 1,37,-1
 0 275 l 1,0,-1
EndSplineSet
Validated: 33
EndChar

StartChar: k
Encoding: 107 107 71
Width: 159
Flags: W
LayerCount: 2
Fore
SplineSet
452 278 m 260,0,1
 452 295 452 295 465 306 c 132,-1,2
 478 317 478 317 494 317 c 260,3,4
 510 317 510 317 521.5 305.5 c 132,-1,5
 533 294 533 294 533 278 c 260,6,7
 533 262 533 262 522 250.5 c 132,-1,8
 511 239 511 239 494 239 c 260,9,10
 478 239 478 239 465 250 c 132,-1,11
 452 261 452 261 452 278 c 260,0,1
EndSplineSet
Validated: 1
EndChar

StartChar: l
Encoding: 108 108 72
Width: 242
Flags: W
LayerCount: 2
Fore
SplineSet
0 -123 m 1,0,-1
 243 119 l 1,1,-1
 243 -123 l 1,2,-1
 0 -123 l 1,0,-1
222 -103 m 1,3,-1
 222 72 l 1,4,-1
 47 -103 l 1,5,-1
 222 -103 l 1,3,-1
EndSplineSet
Validated: 1
EndChar

StartChar: m
Encoding: 109 109 73
Width: 540
Flags: W
LayerCount: 2
Fore
SplineSet
243 32 m 2,0,1
 235 25 235 25 227.5 16.5 c 128,-1,2
 220 8 220 8 215 8 c 256,3,4
 210 8 210 8 204.5 16 c 128,-1,5
 199 24 199 24 194 31 c 2,6,-1
 111 121 l 2,7,8
 111 122 111 122 107 126.5 c 128,-1,9
 103 131 103 131 98.5 136 c 128,-1,10
 94 141 94 141 90 145.5 c 128,-1,11
 86 150 86 150 84 150 c 256,12,13
 82 150 82 150 77 146.5 c 128,-1,14
 72 143 72 143 66.5 139 c 128,-1,15
 61 135 61 135 57 131 c 128,-1,16
 53 127 53 127 52 126 c 2,17,-1
 0 77 l 1,18,-1
 0 114 l 1,19,-1
 135 243 l 2,20,21
 141 249 141 249 147 253 c 0,22,23
 152 257 152 257 157.5 260.5 c 128,-1,24
 163 264 163 264 165 264 c 256,25,26
 167 264 167 264 171 260 c 128,-1,27
 175 256 175 256 180 251 c 0,28,29
 185 245 185 245 191 238 c 2,30,-1
 268 158 l 2,31,32
 269 156 269 156 277 147 c 128,-1,33
 285 138 285 138 289 138 c 256,34,35
 293 138 293 138 300 146 c 128,-1,36
 307 154 307 154 314 160 c 2,37,-1
 398 238 l 2,38,39
 401 241 401 241 411 250.5 c 128,-1,40
 421 260 421 260 424 260 c 0,41,42
 429 260 429 260 435 252 c 128,-1,43
 441 244 441 244 447 237 c 2,44,-1
 518 155 l 2,45,46
 518 154 518 154 522 149.5 c 128,-1,47
 526 145 526 145 531.5 140 c 128,-1,48
 537 135 537 135 541.5 131 c 128,-1,49
 546 127 546 127 548 127 c 256,50,51
 550 127 550 127 554.5 130 c 128,-1,52
 559 133 559 133 563.5 137 c 128,-1,53
 568 141 568 141 571.5 144.5 c 128,-1,54
 575 148 575 148 577 150 c 2,55,-1
 622 198 l 1,56,-1
 622 160 l 1,57,-1
 490 29 l 1,58,59
 486 25.5 l 0,60,61
 482 22 482 22 477.5 17.5 c 128,-1,62
 473 13 473 13 468.5 10 c 128,-1,63
 464 7 464 7 462 7 c 256,64,65
 460 7 460 7 455.5 10.5 c 128,-1,66
 451 14 451 14 446.5 19 c 128,-1,67
 442 24 442 24 438.5 28 c 0,68,-1
 435 32 l 1,69,-1
 368 105 l 2,70,71
 368 106 368 106 364.5 110 c 128,-1,72
 361 114 361 114 357 118 c 128,-1,73
 353 122 353 122 349.5 125 c 128,-1,74
 346 128 346 128 345 128 c 0,75,76
 340 128 340 128 329.5 118 c 128,-1,77
 319 108 319 108 317 105 c 2,78,-1
 243 32 l 2,0,1
EndSplineSet
Validated: 1
EndChar

StartChar: n
Encoding: 110 110 74
Width: 199
Flags: W
LayerCount: 2
Fore
SplineSet
145 -47 m 1,0,-1
 145 81 l 1,1,-1
 31 49 l 1,2,-1
 31 -79 l 1,3,-1
 145 -47 l 1,0,-1
1 357 m 1,4,-1
 31 357 l 1,5,-1
 31 121 l 1,6,-1
 174 160 l 1,7,-1
 174 -357 l 1,8,-1
 145 -357 l 1,9,-1
 145 -126 l 1,10,-1
 1 -165 l 1,11,-1
 1 357 l 1,4,-1
EndSplineSet
Validated: 1
EndChar

StartChar: o
Encoding: 111 111 75
Width: 173
Flags: W
LayerCount: 2
Fore
SplineSet
87 -72 m 256,0,1
 117 -72 117 -72 138 -51 c 128,-1,2
 159 -30 159 -30 159 0 c 256,3,4
 159 30 159 30 138 51 c 128,-1,5
 117 72 117 72 87 72 c 256,6,7
 57 72 57 72 35 51 c 128,-1,8
 13 30 13 30 13 0 c 256,9,10
 13 -30 13 -30 35 -51 c 128,-1,11
 57 -72 57 -72 87 -72 c 256,0,1
173 0 m 256,12,13
 173 -36 173 -36 148 -61.5 c 128,-1,14
 123 -87 123 -87 87 -87 c 0,15,16
 69 -87 69 -87 53 -80 c 128,-1,17
 37 -73 37 -73 25 -61 c 128,-1,18
 13 -49 13 -49 6.5 -33 c 128,-1,19
 0 -17 0 -17 0 0 c 256,20,21
 0 17 0 17 6.5 33 c 128,-1,22
 13 49 13 49 25 61 c 128,-1,23
 37 73 37 73 53 80 c 128,-1,24
 69 87 69 87 87 87 c 0,25,26
 123 87 123 87 148 61.5 c 128,-1,27
 173 36 173 36 173 0 c 256,12,13
EndSplineSet
Validated: 1
Substitution2: "Single Substitution lookup 3 subtable" ordmasculine
EndChar

StartChar: p
Encoding: 112 112 76
Width: 361
Flags: W
LayerCount: 2
Fore
SplineSet
270 139 m 5,0,-1
 -259.93359375 -167 l 5,1,-1
 -276 -141 l 5,2,-1
 256 165 l 5,3,-1
 270 139 l 5,0,-1
EndSplineSet
Validated: 1
EndChar

StartChar: q
Encoding: 113 113 77
Width: 346
Flags: W
LayerCount: 2
Fore
SplineSet
290 171 m 2,0,1
 291 151 291 151 284.5 130 c 128,-1,2
 278 109 278 109 265.5 89 c 128,-1,3
 253 69 253 69 235.5 52 c 128,-1,4
 218 35 218 35 199 24 c 0,5,6
 177 11 177 11 153.5 3 c 128,-1,7
 130 -5 130 -5 107 -5 c 128,-1,8
 84 -5 84 -5 63 3 c 128,-1,9
 42 11 42 11 25 31 c 0,10,11
 5 54 5 54 2.5 82 c 128,-1,12
 0 110 0 110 11.5 137.5 c 128,-1,13
 23 165 23 165 44.5 189.5 c 128,-1,14
 66 214 66 214 92 229 c 0,15,16
 116 242 116 242 141 250 c 128,-1,17
 166 258 166 258 189.5 257.5 c 128,-1,18
 213 257 213 257 234 248 c 128,-1,19
 255 239 255 239 270 220 c 1,20,-1
 270 1040 l 1,21,-1
 290 1040 l 1,22,-1
 290 171 l 2,0,1
EndSplineSet
Validated: 33
EndChar

StartChar: s
Encoding: 115 115 78
Width: 265
Flags: W
LayerCount: 2
Fore
SplineSet
150 65 m 0,0,1
 148 85 148 85 132 104 c 128,-1,2
 116 123 116 123 96.5 141.5 c 128,-1,3
 77 160 77 160 61 178.5 c 128,-1,4
 45 197 45 197 45 218 c 0,5,6
 45 235 45 235 53 250 c 128,-1,7
 61 265 61 265 75.5 276 c 128,-1,8
 90 287 90 287 108.5 293.5 c 128,-1,9
 127 300 127 300 147 300 c 0,10,11
 163 300 163 300 180.5 294 c 128,-1,12
 198 288 198 288 211.5 277.5 c 128,-1,13
 225 267 225 267 234 255 c 128,-1,14
 243 243 243 243 243 230 c 0,15,16
 243 197 243 197 213 199 c 0,17,18
 198 200 198 200 194 209.5 c 128,-1,19
 190 219 190 219 189 231.5 c 128,-1,20
 188 244 188 244 184.5 254.5 c 128,-1,21
 181 265 181 265 166 268 c 0,22,23
 150 271 150 271 137.5 268 c 128,-1,24
 125 265 125 265 117 259 c 128,-1,25
 109 253 109 253 105 245 c 128,-1,26
 101 237 101 237 103 230 c 0,27,28
 108 211 108 211 125 194 c 128,-1,29
 142 177 142 177 160 159.5 c 128,-1,30
 178 142 178 142 193.5 122.5 c 128,-1,31
 209 103 209 103 211 79 c 0,32,33
 212 57 212 57 203.5 40.5 c 128,-1,34
 195 24 195 24 179.5 12.5 c 128,-1,35
 164 1 164 1 144.5 -4.5 c 128,-1,36
 125 -10 125 -10 105 -10 c 0,37,38
 87 -10 87 -10 69.5 -3 c 128,-1,39
 52 4 52 4 39 16 c 128,-1,40
 26 28 26 28 18 41.5 c 128,-1,41
 10 55 10 55 11 70 c 0,42,43
 12 82 12 82 18.5 89.5 c 128,-1,44
 25 97 25 97 32.5 100 c 128,-1,45
 40 103 40 103 48.5 102 c 128,-1,46
 57 101 57 101 63 96 c 0,47,48
 75 85 75 85 74.5 75 c 128,-1,49
 74 65 74 65 71.5 55 c 128,-1,50
 69 45 69 45 69.5 36.5 c 128,-1,51
 70 28 70 28 84 22 c 256,52,53
 98 16 98 16 110.5 19 c 128,-1,54
 123 22 123 22 132 30 c 128,-1,55
 141 38 141 38 146 48 c 128,-1,56
 151 58 151 58 150 65 c 0,0,1
EndSplineSet
Validated: 33
EndChar

StartChar: t
Encoding: 116 116 79
Width: 779
Flags: W
LayerCount: 2
Fore
SplineSet
617 -71 m 0,0,1
 634 -51 634 -51 662 -49 c 128,-1,2
 690 -47 690 -47 710 -67 c 0,3,4
 727 -83 727 -83 729 -106.5 c 128,-1,5
 731 -130 731 -130 717 -150 c 0,6,7
 701 -172 701 -172 673 -174 c 128,-1,8
 645 -176 645 -176 625 -159 c 0,9,10
 606 -142 606 -142 603.5 -116.5 c 128,-1,11
 601 -91 601 -91 617 -71 c 0,0,1
617 152 m 0,12,13
 634 172 634 172 662 173.5 c 128,-1,14
 690 175 690 175 710 156 c 0,15,16
 727 140 727 140 729 116 c 128,-1,17
 731 92 731 92 717 72 c 0,18,19
 701 52 701 52 673 49 c 128,-1,20
 645 46 645 46 625 63 c 0,21,22
 606 80 606 80 603.5 106 c 128,-1,23
 601 132 601 132 617 152 c 0,12,13
144 179 m 0,24,25
 114 151 114 151 124 113 c 0,26,27
 127 101 127 101 135 94 c 128,-1,28
 143 87 143 87 155 83.5 c 128,-1,29
 167 80 167 80 181 78 c 128,-1,30
 195 76 195 76 208 75 c 0,31,32
 231 72 231 72 242.5 62.5 c 128,-1,33
 254 53 254 53 259 41 c 128,-1,34
 264 29 264 29 264 15.5 c 128,-1,35
 264 2 264 2 264 -8 c 0,36,37
 263 -28 263 -28 253 -43 c 128,-1,38
 243 -58 243 -58 227 -68 c 128,-1,39
 211 -78 211 -78 191 -82.5 c 128,-1,40
 171 -87 171 -87 152 -87 c 0,41,42
 129 -87 129 -87 108.5 -81 c 128,-1,43
 88 -75 88 -75 72 -62.5 c 128,-1,44
 56 -50 56 -50 46.5 -30.5 c 128,-1,45
 37 -11 37 -11 36 15 c 0,46,47
 34 59 34 59 53 107 c 128,-1,48
 72 155 72 155 111 198 c 0,49,50
 133 222 133 222 163.5 234 c 128,-1,51
 194 246 194 246 226.5 250.5 c 128,-1,52
 259 255 259 255 291.5 253.5 c 128,-1,53
 324 252 324 252 350 248 c 0,54,55
 405 238 405 238 447.5 206.5 c 128,-1,56
 490 175 490 175 517.5 133.5 c 128,-1,57
 545 92 545 92 556.5 45 c 128,-1,58
 568 -2 568 -2 564 -45 c 0,59,60
 557 -107 557 -107 515.5 -168 c 128,-1,61
 474 -229 474 -229 415 -285 c 128,-1,62
 356 -341 356 -341 288.5 -388.5 c 128,-1,63
 221 -436 221 -436 161.5 -470 c 128,-1,64
 102 -504 102 -504 59.5 -522.5 c 128,-1,65
 17 -541 17 -541 8 -538 c 1,66,-1
 4 -519 l 1,67,68
 40 -507 40 -507 82.5 -485 c 128,-1,69
 125 -463 125 -463 169 -431 c 0,70,71
 219 -395 219 -395 259 -360 c 128,-1,72
 299 -325 299 -325 328.5 -283.5 c 128,-1,73
 358 -242 358 -242 378 -192 c 128,-1,74
 398 -142 398 -142 409 -77 c 0,75,76
 416 -31 416 -31 416 10 c 128,-1,77
 416 51 416 51 407 85.5 c 128,-1,78
 398 120 398 120 379 147 c 128,-1,79
 360 174 360 174 329 194 c 0,80,81
 300 211 300 211 271.5 214.5 c 128,-1,82
 243 218 243 218 218.5 213.5 c 128,-1,83
 194 209 194 209 174 199 c 128,-1,84
 154 189 154 189 144 179 c 0,24,25
230 -628 m 256,85,86
 234 -628 234 -628 241 -624 c 128,-1,87
 248 -620 248 -620 255 -613.5 c 128,-1,88
 262 -607 262 -607 267 -600 c 128,-1,89
 272 -593 272 -593 272 -587 c 0,90,91
 274 -568 274 -568 258.5 -554.5 c 128,-1,92
 243 -541 243 -541 218 -543 c 0,93,94
 196 -544 196 -544 177.5 -557 c 128,-1,95
 159 -570 159 -570 160 -587 c 0,96,97
 160 -593 160 -593 165 -599 c 128,-1,98
 170 -605 170 -605 176.5 -609.5 c 128,-1,99
 183 -614 183 -614 190 -617.5 c 128,-1,100
 197 -621 197 -621 202 -622 c 0,101,102
 226 -628 226 -628 230 -628 c 256,85,86
204 -653 m 0,103,104
 198 -653 198 -653 188.5 -658.5 c 128,-1,105
 179 -664 179 -664 171 -671 c 128,-1,106
 163 -678 163 -678 157.5 -686 c 128,-1,107
 152 -694 152 -694 152 -699 c 0,108,109
 152 -724 152 -724 168.5 -742 c 128,-1,110
 185 -760 185 -760 212 -760 c 0,111,112
 224 -760 224 -760 236 -754.5 c 128,-1,113
 248 -749 248 -749 256.5 -739.5 c 128,-1,114
 265 -730 265 -730 270 -719.5 c 128,-1,115
 275 -709 275 -709 275 -699 c 0,116,117
 275 -691 275 -691 261 -680 c 128,-1,118
 247 -669 247 -669 232 -664 c 0,119,120
 229 -663 229 -663 217 -658 c 128,-1,121
 205 -653 205 -653 204 -653 c 0,103,104
250 -639 m 1,122,123
 257 -641 257 -641 266 -645 c 128,-1,124
 275 -649 275 -649 284 -656 c 128,-1,125
 293 -663 293 -663 298.5 -671.5 c 128,-1,126
 304 -680 304 -680 304 -691 c 0,127,128
 304 -711 304 -711 295 -726.5 c 128,-1,129
 286 -742 286 -742 272 -752.5 c 128,-1,130
 258 -763 258 -763 242 -768.5 c 128,-1,131
 226 -774 226 -774 212 -774 c 0,132,133
 195 -774 195 -774 179.5 -767 c 128,-1,134
 164 -760 164 -760 152.5 -748 c 128,-1,135
 141 -736 141 -736 135.5 -721 c 128,-1,136
 130 -706 130 -706 133 -689 c 0,137,138
 139 -653 139 -653 179 -640 c 1,139,140
 159 -633 159 -633 149.5 -618.5 c 128,-1,141
 140 -604 140 -604 140 -586 c 0,142,143
 140 -573 140 -573 147 -562 c 128,-1,144
 154 -551 154 -551 165 -543.5 c 128,-1,145
 176 -536 176 -536 190 -531.5 c 128,-1,146
 204 -527 204 -527 218 -527 c 0,147,148
 248 -527 248 -527 270.5 -543 c 128,-1,149
 293 -559 293 -559 293 -586 c 0,150,151
 293 -606 293 -606 280 -620 c 128,-1,152
 267 -634 267 -634 250 -639 c 1,122,123
EndSplineSet
Validated: 33
EndChar

StartChar: u
Encoding: 117 117 80
Width: 694
Flags: W
LayerCount: 2
Fore
SplineSet
386 -46 m 256,0,1
 386 -63 386 -63 375 -75 c 128,-1,2
 364 -87 364 -87 346 -87 c 256,3,4
 329 -87 329 -87 316 -75 c 128,-1,5
 303 -63 303 -63 303 -46 c 256,6,7
 303 -29 303 -29 316 -16 c 128,-1,8
 329 -3 329 -3 346 -3 c 256,9,10
 363 -3 363 -3 374.5 -16 c 128,-1,11
 386 -29 386 -29 386 -46 c 256,0,1
0 -3 m 1,12,13
 9 -70 9 -70 39 -125.5 c 128,-1,14
 69 -181 69 -181 115 -221 c 128,-1,15
 161 -261 161 -261 220 -283.5 c 128,-1,16
 279 -306 279 -306 346 -306 c 256,17,18
 414 -306 414 -306 472.5 -283.5 c 128,-1,19
 531 -261 531 -261 577.5 -221 c 128,-1,20
 624 -181 624 -181 653.5 -125.5 c 128,-1,21
 683 -70 683 -70 692 -3 c 1,22,23
 701 -79 701 -79 676.5 -149 c 128,-1,24
 652 -219 652 -219 603.5 -273.5 c 128,-1,25
 555 -328 555 -328 488.5 -360 c 128,-1,26
 422 -392 422 -392 346 -392 c 256,27,28
 270 -392 270 -392 203 -360 c 128,-1,29
 136 -328 136 -328 88 -273.5 c 128,-1,30
 40 -219 40 -219 15.5 -149 c 128,-1,31
 -9 -79 -9 -79 0 -3 c 1,12,13
EndSplineSet
Validated: 33
EndChar

StartChar: v
Encoding: 118 118 81
Width: 296
Flags: W
LayerCount: 2
Fore
SplineSet
297 424 m 1,0,-1
 145 -8 l 1,1,-1
 -6 424 l 1,2,-1
 50 424 l 1,3,-1
 165 99 l 1,4,-1
 276 424 l 1,5,-1
 297 424 l 1,0,-1
EndSplineSet
Validated: 1
EndChar

StartChar: w
Encoding: 119 119 82
Width: 415
Flags: W
LayerCount: 2
Fore
SplineSet
248 -111 m 0,0,1
 266 -106 266 -106 278 -93 c 128,-1,2
 290 -80 290 -80 296 -63.5 c 128,-1,3
 302 -47 302 -47 302.5 -28.5 c 128,-1,4
 303 -10 303 -10 299 8 c 0,5,6
 294 32 294 32 281.5 53.5 c 128,-1,7
 269 75 269 75 251 89.5 c 128,-1,8
 233 104 233 104 211.5 110.5 c 128,-1,9
 190 117 190 117 167 111 c 0,10,11
 147 106 147 106 136 91.5 c 128,-1,12
 125 77 125 77 121 57.5 c 128,-1,13
 117 38 117 38 119 16 c 128,-1,14
 121 -6 121 -6 127 -26 c 256,15,16
 133 -46 133 -46 144.5 -64.5 c 128,-1,17
 156 -83 156 -83 171.5 -95.5 c 128,-1,18
 187 -108 187 -108 206.5 -112.5 c 128,-1,19
 226 -117 226 -117 248 -111 c 0,0,1
204 -130 m 0,20,21
 168 -129 168 -129 131.5 -121.5 c 128,-1,22
 95 -114 95 -114 66 -98 c 128,-1,23
 37 -82 37 -82 18.5 -58 c 128,-1,24
 0 -34 0 -34 0 0 c 0,25,26
 0 35 0 35 18.5 60 c 128,-1,27
 37 85 37 85 66 100.5 c 128,-1,28
 95 116 95 116 131 123 c 128,-1,29
 167 130 167 130 204 130 c 0,30,31
 240 130 240 130 277 122.5 c 128,-1,32
 314 115 314 115 344.5 98.5 c 128,-1,33
 375 82 375 82 395 58 c 128,-1,34
 415 34 415 34 416 0 c 0,35,36
 417 -37 417 -37 397.5 -62 c 128,-1,37
 378 -87 378 -87 346.5 -102.5 c 128,-1,38
 315 -118 315 -118 277.5 -124 c 128,-1,39
 240 -130 240 -130 204 -130 c 0,20,21
EndSplineSet
Validated: 33
EndChar

StartChar: x
Encoding: 120 120 83
Width: 545
Flags: W
LayerCount: 2
Fore
SplineSet
292 899 m 2,0,1
 292 897 292 897 295 881 c 128,-1,2
 298 865 298 865 307 840.5 c 128,-1,3
 316 816 316 816 333 786 c 128,-1,4
 350 756 350 756 378 727 c 0,5,6
 394 710 394 710 412.5 687.5 c 128,-1,7
 431 665 431 665 450 639 c 128,-1,8
 469 613 469 613 488 586.5 c 128,-1,9
 507 560 507 560 523 537 c 0,10,11
 547 503 547 503 559 466 c 128,-1,12
 571 429 571 429 576 395 c 128,-1,13
 581 361 581 361 580.5 333 c 128,-1,14
 580 305 580 305 579 289 c 0,15,16
 579 281 579 281 576.5 271 c 128,-1,17
 574 261 574 261 572 252 c 1,18,19
 588 199 588 199 588 151.5 c 128,-1,20
 588 104 588 104 583 77 c 0,21,22
 573 29 573 29 558.5 -10.5 c 128,-1,23
 544 -50 544 -50 529.5 -79.5 c 128,-1,24
 515 -109 515 -109 501.5 -128 c 128,-1,25
 488 -147 488 -147 481 -157 c 1,26,-1
 475 -151 l 2,27,28
 477 -149 477 -149 495 -123 c 128,-1,29
 513 -97 513 -97 531 -54.5 c 128,-1,30
 549 -12 549 -12 558 44.5 c 128,-1,31
 567 101 567 101 552 166 c 1,32,-1
 544 172 l 2,33,34
 544 174 544 174 545 176 c 0,35,36
 545 177 545 177 547 185 c 1,37,38
 542 203 542 203 535 222 c 0,39,40
 520 260 520 260 492.5 294.5 c 128,-1,41
 465 329 465 329 431.5 356 c 128,-1,42
 398 383 398 383 361.5 401 c 128,-1,43
 325 419 325 419 290 424 c 1,44,-1
 290 26 l 2,45,46
 291 -14 291 -14 265.5 -54 c 128,-1,47
 240 -94 240 -94 199 -117 c 0,48,49
 176 -129 176 -129 152.5 -136.5 c 128,-1,50
 129 -144 129 -144 106.5 -144 c 128,-1,51
 84 -144 84 -144 63 -136 c 128,-1,52
 42 -128 42 -128 25 -110 c 0,53,54
 5 -87 5 -87 2.5 -59 c 128,-1,55
 0 -31 0 -31 11.5 -2.5 c 128,-1,56
 23 26 23 26 44.5 50.5 c 128,-1,57
 66 75 66 75 92 90 c 0,58,59
 116 103 116 103 140.5 111 c 128,-1,60
 165 119 165 119 189 118.5 c 128,-1,61
 213 118 213 118 234 108.5 c 128,-1,62
 255 99 255 99 270 80 c 1,63,-1
 270 899 l 1,64,-1
 292 899 l 2,0,1
544 317 m 0,65,66
 549 309 549 309 552.5 301.5 c 128,-1,67
 556 294 556 294 560 286 c 1,68,69
 560 320 560 320 548.5 359 c 128,-1,70
 537 398 537 398 509 441 c 0,71,72
 485 478 485 478 457.5 516.5 c 128,-1,73
 430 555 430 555 401.5 586 c 128,-1,74
 373 617 373 617 345 638 c 128,-1,75
 317 659 317 659 293 663 c 1,76,-1
 292 662 l 1,77,78
 293 652 293 652 297 636 c 128,-1,79
 301 620 301 620 310 600 c 128,-1,80
 319 580 319 580 334 558 c 128,-1,81
 349 536 349 536 373 513 c 0,82,83
 391 496 391 496 414.5 473 c 128,-1,84
 438 450 438 450 461.5 423 c 128,-1,85
 485 396 485 396 507 369 c 128,-1,86
 529 342 529 342 544 317 c 0,65,66
EndSplineSet
Validated: 33
EndChar

StartChar: y
Encoding: 121 121 84
Width: 306
Flags: W
LayerCount: 2
Fore
SplineSet
150 94 m 1,0,-1
 31 -114 l 1,1,-1
 269 -114 l 1,2,-1
 150 94 l 1,0,-1
306 -133 m 1,3,-1
 -6 -133 l 1,4,-1
 150 136 l 1,5,-1
 306 -133 l 1,3,-1
EndSplineSet
Validated: 1
EndChar

StartChar: z
Encoding: 122 122 85
Width: 363
Flags: W
LayerCount: 2
Fore
SplineSet
297 294 m 1,0,-1
 297 258 l 1,1,-1
 91 62 l 2,2,3
 92 62 92 62 97 65.5 c 128,-1,4
 102 69 102 69 109 72 c 128,-1,5
 116 75 116 75 124 77 c 128,-1,6
 132 79 132 79 140 79 c 0,7,8
 156 78 156 78 173 70.5 c 128,-1,9
 190 63 190 63 204.5 57 c 128,-1,10
 219 51 219 51 228.5 50.5 c 128,-1,11
 238 50 238 50 238 63 c 0,12,13
 238 67 238 67 234 70.5 c 128,-1,14
 230 74 230 74 226 76.5 c 128,-1,15
 222 79 222 79 218.5 82.5 c 128,-1,16
 215 86 215 86 215 91 c 0,17,18
 215 99 215 99 221.5 102 c 128,-1,19
 228 105 228 105 236.5 106.5 c 128,-1,20
 245 108 245 108 252 106 c 128,-1,21
 259 104 259 104 261 103 c 0,22,23
 276 95 276 95 279.5 72 c 128,-1,24
 283 49 283 49 271 29 c 0,25,26
 266 20 266 20 257.5 11.5 c 128,-1,27
 249 3 249 3 237.5 -3 c 128,-1,28
 226 -9 226 -9 214.5 -11.5 c 128,-1,29
 203 -14 203 -14 194 -11 c 0,30,31
 166 -3 166 -3 150 4 c 128,-1,32
 134 11 134 11 124 17 c 128,-1,33
 114 23 114 23 105.5 26 c 128,-1,34
 97 29 97 29 85 29 c 0,35,36
 66 29 66 29 53.5 20 c 128,-1,37
 41 11 41 11 35 6 c 1,38,-1
 -3 6 l 1,39,-1
 245 247 l 1,40,-1
 88 247 l 1,41,-1
 87 247 l 2,42,43
 77 244 77 244 74 237 c 0,44,45
 71 233 71 233 71 228 c 1,46,-1
 56 228 l 1,47,-1
 85 294 l 1,48,-1
 297 294 l 1,0,-1
EndSplineSet
Validated: 33
EndChar

StartChar: braceleft
Encoding: 123 123 86
Width: 473
Flags: W
LayerCount: 2
Fore
SplineSet
280 80 m 0,0,1
 278 81 278 81 272.5 83 c 128,-1,2
 267 85 267 85 259 84 c 128,-1,3
 251 83 251 83 238.5 77 c 128,-1,4
 226 71 226 71 210 57 c 1,5,-1
 210 -94 l 2,6,7
 211 -95 211 -95 221.5 -85.5 c 128,-1,8
 232 -76 232 -76 246 -60 c 128,-1,9
 260 -44 260 -44 274 -24 c 128,-1,10
 288 -4 288 -4 295.5 16 c 128,-1,11
 303 36 303 36 300.5 53 c 128,-1,12
 298 70 298 70 280 80 c 0,0,1
210 385 m 1,13,-1
 210 79 l 1,14,15
 243 98 243 98 270 104 c 0,16,17
 282 107 282 107 294.5 107.5 c 128,-1,18
 307 108 307 108 318 104 c 128,-1,19
 329 100 329 100 337.5 91 c 128,-1,20
 346 82 346 82 351 67 c 0,21,22
 358 43 358 43 350 20.5 c 128,-1,23
 342 -2 342 -2 326.5 -21 c 128,-1,24
 311 -40 311 -40 291.5 -55 c 128,-1,25
 272 -70 272 -70 258 -78 c 0,26,27
 251 -82 251 -82 240 -91 c 128,-1,28
 229 -100 229 -100 219 -110 c 128,-1,29
 209 -120 209 -120 200 -128.5 c 128,-1,30
 191 -137 191 -137 188 -139 c 2,31,-1
 188 385 l 1,32,-1
 210 385 l 1,13,-1
434 11 m 0,33,34
 434 46 434 46 430.5 73.5 c 128,-1,35
 427 101 427 101 415.5 126 c 128,-1,36
 404 151 404 151 384 174 c 128,-1,37
 364 197 364 197 330 222 c 1,38,39
 353 214 353 214 378.5 192.5 c 128,-1,40
 404 171 404 171 425.5 142.5 c 128,-1,41
 447 114 447 114 461.5 79.5 c 128,-1,42
 476 45 476 45 475 11 c 0,43,44
 474 -27 474 -27 459.5 -61 c 128,-1,45
 445 -95 445 -95 423.5 -123 c 128,-1,46
 402 -151 402 -151 377 -170.5 c 128,-1,47
 352 -190 352 -190 330 -199 c 1,48,49
 364 -173 364 -173 385 -150 c 128,-1,50
 406 -127 406 -127 416.5 -102.5 c 128,-1,51
 427 -78 427 -78 430.5 -50.5 c 128,-1,52
 434 -23 434 -23 434 11 c 0,33,34
146 222 m 1,53,54
 111 196 111 196 91 173.5 c 128,-1,55
 71 151 71 151 59.5 126 c 128,-1,56
 48 101 48 101 44.5 73.5 c 128,-1,57
 41 46 41 46 41 11 c 0,58,59
 41 -23 41 -23 44.5 -50.5 c 128,-1,60
 48 -78 48 -78 59.5 -102.5 c 128,-1,61
 71 -127 71 -127 91.5 -150 c 128,-1,62
 112 -173 112 -173 146 -199 c 1,63,64
 122 -191 122 -191 97 -171 c 128,-1,65
 72 -151 72 -151 50.5 -123 c 128,-1,66
 29 -95 29 -95 14.5 -61 c 128,-1,67
 0 -27 0 -27 0 11 c 0,68,69
 0 45 0 45 14.5 79.5 c 128,-1,70
 29 114 29 114 50.5 142.5 c 128,-1,71
 72 171 72 171 97 192.5 c 128,-1,72
 122 214 122 214 146 222 c 1,53,54
EndSplineSet
Validated: 33
EndChar

StartChar: bar
Encoding: 124 124 87
Width: 519
Flags: W
LayerCount: 2
Fore
SplineSet
462 234 m 1,0,-1
 234 462 l 1,1,-1
 57 285 l 1,2,-1
 285 57 l 1,3,-1
 462 234 l 1,0,-1
260 0 m 1,4,-1
 0 260 l 1,5,-1
 260 519 l 1,6,-1
 519 260 l 1,7,-1
 260 0 l 1,4,-1
EndSplineSet
Validated: 1
EndChar

StartChar: braceright
Encoding: 125 125 88
Width: 464
Flags: W
LayerCount: 2
Fore
SplineSet
268 0 m 260,0,1
 268 30 268 30 265 54 c 132,-1,2
 262 78 262 78 252.5 99 c 132,-1,3
 243 120 243 120 225 140 c 132,-1,4
 207 160 207 160 177 182 c 5,5,6
 196 175 196 175 219 156.5 c 132,-1,7
 242 138 242 138 261 113 c 132,-1,8
 280 88 280 88 292 59 c 132,-1,9
 304 30 304 30 304 0 c 4,10,11
 303 -33 303 -33 290.5 -63 c 132,-1,12
 278 -93 278 -93 260 -117 c 132,-1,13
 242 -141 242 -141 219.5 -158.5 c 132,-1,14
 197 -176 197 -176 177 -183 c 5,15,16
 207 -160 207 -160 225 -140 c 132,-1,17
 243 -120 243 -120 252.5 -99 c 132,-1,18
 262 -78 262 -78 265 -54 c 132,-1,19
 268 -30 268 -30 268 0 c 260,0,1
-172 182 m 5,20,21
 -202 159 -202 159 -220 139.5 c 132,-1,22
 -238 120 -238 120 -247.5 99 c 132,-1,23
 -257 78 -257 78 -260 54 c 132,-1,24
 -263 30 -263 30 -263 0 c 260,25,26
 -263 -30 -263 -30 -260 -54 c 132,-1,27
 -257 -78 -257 -78 -247.5 -99 c 132,-1,28
 -238 -120 -238 -120 -220 -140.5 c 132,-1,29
 -202 -161 -202 -161 -172 -183 c 5,30,31
 -192 -176 -192 -176 -214.5 -158.5 c 132,-1,32
 -237 -141 -237 -141 -255 -117 c 132,-1,33
 -273 -93 -273 -93 -285.5 -63 c 132,-1,34
 -298 -33 -298 -33 -298 0 c 4,35,36
 -298 30 -298 30 -286 59 c 132,-1,37
 -274 88 -274 88 -256 113 c 132,-1,38
 -238 138 -238 138 -215 156.5 c 132,-1,39
 -192 175 -192 175 -172 182 c 5,20,21
EndSplineSet
Validated: 1
EndChar

StartChar: asciitilde
Encoding: 126 126 89
Width: 346
Flags: W
LayerCount: 2
Fore
SplineSet
35 98 m 0,0,1
 17 98 17 98 5 94.5 c 128,-1,2
 -7 91 -7 91 -16 86.5 c 128,-1,3
 -25 82 -25 82 -31.5 75.5 c 128,-1,4
 -38 69 -38 69 -46 62 c 1,5,-1
 -46 77 l 2,6,7
 -43 82 -43 82 -24.5 98.5 c 128,-1,8
 -6 115 -6 115 19.5 132.5 c 128,-1,9
 45 150 45 150 71 163.5 c 128,-1,10
 97 177 97 177 116 177 c 0,11,12
 141 177 141 177 167 160 c 128,-1,13
 193 143 193 143 218 123 c 128,-1,14
 243 103 243 103 265 87.5 c 128,-1,15
 287 72 287 72 303 72 c 0,16,17
 320 73 320 73 332.5 76 c 128,-1,18
 345 79 345 79 355 85 c 128,-1,19
 365 91 365 91 373.5 98.5 c 128,-1,20
 382 106 382 106 392 117 c 1,21,-1
 392 102 l 2,22,23
 389 96 389 96 379.5 86 c 128,-1,24
 370 76 370 76 356 63.5 c 128,-1,25
 342 51 342 51 325 38.5 c 128,-1,26
 308 26 308 26 291 15.5 c 128,-1,27
 274 5 274 5 258.5 -1 c 128,-1,28
 243 -7 243 -7 230 -7 c 0,29,30
 202 -6 202 -6 177.5 10.5 c 128,-1,31
 153 27 153 27 128.5 47 c 128,-1,32
 104 67 104 67 81 82.5 c 128,-1,33
 58 98 58 98 35 98 c 0,0,1
EndSplineSet
Validated: 1
EndChar

StartChar: quotesinglbase
Encoding: 8218 8218 90
Width: 854
Flags: W
LayerCount: 2
Fore
SplineSet
758 253 m 256,0,1
 746 258 746 258 731.5 249.5 c 128,-1,2
 717 241 717 241 703.5 225.5 c 128,-1,3
 690 210 690 210 678.5 191.5 c 128,-1,4
 667 173 667 173 659 158 c 0,5,6
 654 147 654 147 650 128 c 128,-1,7
 646 109 646 109 644.5 90.5 c 128,-1,8
 643 72 643 72 645.5 56.5 c 128,-1,9
 648 41 648 41 656 37 c 0,10,11
 666 32 666 32 679.5 38 c 128,-1,12
 693 44 693 44 707 57.5 c 128,-1,13
 721 71 721 71 733 88 c 128,-1,14
 745 105 745 105 754 123 c 0,15,16
 760 137 760 137 765.5 157 c 128,-1,17
 771 177 771 177 773 197 c 128,-1,18
 775 217 775 217 772.5 232.5 c 128,-1,19
 770 248 770 248 758 253 c 256,0,1
551 -146 m 1,20,-1
 593 -146 l 1,21,-1
 593 -168 l 1,22,-1
 429 -168 l 1,23,-1
 429 -146 l 1,24,-1
 472 -146 l 1,25,-1
 613 217 l 2,26,27
 613 218 613 218 618.5 227.5 c 128,-1,28
 624 237 624 237 617 244 c 0,29,30
 606 257 606 257 593.5 253 c 128,-1,31
 581 249 581 249 569 235.5 c 128,-1,32
 557 222 557 222 546.5 202.5 c 128,-1,33
 536 183 536 183 528 165.5 c 128,-1,34
 520 148 520 148 515.5 135.5 c 0,35,-1
 511 123 l 1,36,-1
 498 125 l 1,37,38
 502 138 l 0,39,40
 506 151 506 151 514 169 c 128,-1,41
 522 187 522 187 534 207.5 c 128,-1,42
 546 228 546 228 560.5 243.5 c 128,-1,43
 575 259 575 259 592.5 266.5 c 128,-1,44
 610 274 610 274 630 266 c 0,45,46
 634 264 634 264 637 259 c 128,-1,47
 640 254 640 254 642 248.5 c 128,-1,48
 644 243 644 243 644.5 238 c 128,-1,49
 645 233 645 233 645 232 c 1,50,51
 650 240 650 240 663.5 251.5 c 128,-1,52
 677 263 677 263 695 272 c 128,-1,53
 713 281 713 281 733.5 284.5 c 128,-1,54
 754 288 754 288 773 282 c 0,55,56
 801 274 801 274 814.5 252 c 128,-1,57
 828 230 828 230 832.5 204 c 128,-1,58
 837 178 837 178 832.5 150 c 128,-1,59
 828 122 828 122 819 100 c 0,60,61
 811 77 811 77 795 56.5 c 128,-1,62
 779 36 779 36 760 19 c 128,-1,63
 741 2 741 2 720.5 -8 c 128,-1,64
 700 -18 700 -18 684 -18 c 0,65,66
 660 -18 660 -18 646 -4 c 128,-1,67
 632 10 632 10 620 42 c 1,68,-1
 551 -146 l 1,20,-1
520 248 m 1,69,-1
 433 248 l 2,70,71
 433 247 433 247 429 232.5 c 128,-1,72
 425 218 425 218 423 206 c 0,73,74
 409 150 409 150 393 98.5 c 128,-1,75
 377 47 377 47 355.5 3 c 128,-1,76
 334 -41 334 -41 306 -76.5 c 128,-1,77
 278 -112 278 -112 238 -135 c 0,78,79
 221 -146 221 -146 200.5 -150 c 128,-1,80
 180 -154 180 -154 162 -151 c 128,-1,81
 144 -148 144 -148 130.5 -141 c 128,-1,82
 117 -134 117 -134 111 -123 c 0,83,84
 100 -103 100 -103 101.5 -85 c 128,-1,85
 103 -67 103 -67 111.5 -54 c 128,-1,86
 120 -41 120 -41 133 -34 c 128,-1,87
 146 -27 146 -27 159 -29 c 0,88,89
 188 -34 188 -34 194.5 -51 c 128,-1,90
 201 -68 201 -68 194 -88 c 0,91,92
 189 -101 189 -101 182.5 -106.5 c 128,-1,93
 176 -112 176 -112 163 -116 c 0,94,95
 157 -117 157 -117 156 -120.5 c 128,-1,96
 155 -124 155 -124 157.5 -127.5 c 128,-1,97
 160 -131 160 -131 166 -133 c 128,-1,98
 172 -135 172 -135 180 -134 c 0,99,100
 193 -132 193 -132 205.5 -117.5 c 128,-1,101
 218 -103 218 -103 226 -92 c 0,102,103
 245 -64 245 -64 259 -29 c 128,-1,104
 273 6 273 6 284.5 43.5 c 128,-1,105
 296 81 296 81 304.5 118.5 c 128,-1,106
 313 156 313 156 322 186 c 0,107,108
 329 209 329 209 331 227.5 c 128,-1,109
 333 246 333 246 333 248 c 2,110,-1
 272 248 l 1,111,-1
 272 267 l 1,112,-1
 340 267 l 2,113,114
 340 269 340 269 346 294 c 128,-1,115
 352 319 352 319 369 350.5 c 128,-1,116
 386 382 386 382 416.5 412 c 128,-1,117
 447 442 447 442 497 455 c 0,118,119
 524 462 524 462 547.5 460 c 128,-1,120
 571 458 571 458 589 448 c 128,-1,121
 607 438 607 438 618 422.5 c 128,-1,122
 629 407 629 407 629 385 c 0,123,124
 629 367 629 367 622.5 355.5 c 128,-1,125
 616 344 616 344 607 338.5 c 128,-1,126
 598 333 598 333 588.5 332.5 c 128,-1,127
 579 332 579 332 571 335 c 0,128,129
 560 339 560 339 555 347 c 128,-1,130
 550 355 550 355 549.5 365 c 128,-1,131
 549 375 549 375 553 384.5 c 128,-1,132
 557 394 557 394 564 401 c 0,133,134
 568 404 568 404 574.5 405.5 c 128,-1,135
 581 407 581 407 587 408 c 128,-1,136
 593 409 593 409 597.5 410 c 128,-1,137
 602 411 602 411 603 416 c 0,138,139
 605 425 605 425 597.5 429.5 c 128,-1,140
 590 434 590 434 577.5 434.5 c 128,-1,141
 565 435 565 435 551.5 433 c 128,-1,142
 538 431 538 431 527 427 c 0,143,144
 495 413 495 413 478 386 c 128,-1,145
 461 359 461 359 452 333 c 0,146,147
 441 302 441 302 438 267 c 1,148,-1
 520 267 l 1,149,-1
 520 248 l 1,69,-1
150 65 m 0,150,151
 148 85 148 85 132 103.5 c 128,-1,152
 116 122 116 122 96.5 140.5 c 128,-1,153
 77 159 77 159 61 177.5 c 128,-1,154
 45 196 45 196 45 217 c 0,155,156
 45 235 45 235 53 250 c 128,-1,157
 61 265 61 265 75.5 276 c 128,-1,158
 90 287 90 287 108.5 293 c 128,-1,159
 127 299 127 299 147 299 c 0,160,161
 163 299 163 299 180.5 293 c 128,-1,162
 198 287 198 287 211.5 277 c 128,-1,163
 225 267 225 267 234 255 c 128,-1,164
 243 243 243 243 243 230 c 0,165,166
 243 195 243 195 213 199 c 0,167,168
 198 200 198 200 194 209.5 c 128,-1,169
 190 219 190 219 189 231 c 128,-1,170
 188 243 188 243 184.5 254 c 128,-1,171
 181 265 181 265 166 268 c 0,172,173
 150 271 150 271 137.5 268 c 128,-1,174
 125 265 125 265 117 258.5 c 128,-1,175
 109 252 109 252 105 244.5 c 128,-1,176
 101 237 101 237 103 230 c 0,177,178
 108 211 108 211 125 194 c 128,-1,179
 142 177 142 177 160 159 c 128,-1,180
 178 141 178 141 193.5 122 c 128,-1,181
 209 103 209 103 211 79 c 0,182,183
 212 56 212 56 203.5 39.5 c 128,-1,184
 195 23 195 23 179.5 11.5 c 128,-1,185
 164 0 164 0 144.5 -5.5 c 128,-1,186
 125 -11 125 -11 105 -10 c 0,187,188
 87 -10 87 -10 69.5 -3 c 128,-1,189
 52 4 52 4 39 15.5 c 128,-1,190
 26 27 26 27 18 40.5 c 128,-1,191
 10 54 10 54 11 69 c 0,192,193
 12 81 12 81 18.5 89 c 128,-1,194
 25 97 25 97 32.5 100 c 128,-1,195
 40 103 40 103 48.5 102 c 128,-1,196
 57 101 57 101 63 96 c 0,197,198
 75 85 75 85 74.5 75 c 128,-1,199
 74 65 74 65 71.5 55 c 128,-1,200
 69 45 69 45 69.5 36.5 c 128,-1,201
 70 28 70 28 84 22 c 256,202,203
 98 16 98 16 110.5 19 c 128,-1,204
 123 22 123 22 132 30 c 128,-1,205
 141 38 141 38 146 48 c 128,-1,206
 151 58 151 58 150 65 c 0,150,151
EndSplineSet
Validated: 33
EndChar

StartChar: nonbreakingspace
Encoding: 160 160 91
Width: 727
Flags: W
LayerCount: 2
Fore
SplineSet
444 1239 m 1,0,1
 451 1237 451 1237 460.5 1233 c 128,-1,2
 470 1229 470 1229 478.5 1222 c 128,-1,3
 487 1215 487 1215 493 1206 c 128,-1,4
 499 1197 499 1197 499 1187 c 0,5,6
 499 1167 499 1167 489.5 1151.5 c 128,-1,7
 480 1136 480 1136 466.5 1125 c 128,-1,8
 453 1114 453 1114 437 1108.5 c 128,-1,9
 421 1103 421 1103 407 1103 c 0,10,11
 390 1103 390 1103 374 1110 c 128,-1,12
 358 1117 358 1117 347 1129 c 128,-1,13
 336 1141 336 1141 330.5 1156 c 128,-1,14
 325 1171 325 1171 328 1189 c 0,15,16
 334 1226 334 1226 374 1237 c 1,17,18
 354 1244 354 1244 344.5 1259 c 128,-1,19
 335 1274 335 1274 335 1292 c 0,20,21
 335 1319 335 1319 359.5 1334.5 c 128,-1,22
 384 1350 384 1350 413 1350 c 0,23,24
 443 1350 443 1350 465 1334.5 c 128,-1,25
 487 1319 487 1319 487 1292 c 0,26,27
 487 1272 487 1272 474 1257.5 c 128,-1,28
 461 1243 461 1243 444 1239 c 1,0,1
398 1225 m 0,29,30
 392 1225 392 1225 383 1219.5 c 128,-1,31
 374 1214 374 1214 365.5 1207 c 128,-1,32
 357 1200 357 1200 351.5 1192 c 128,-1,33
 346 1184 346 1184 346 1179 c 0,34,35
 346 1153 346 1153 363 1135.5 c 128,-1,36
 380 1118 380 1118 407 1118 c 0,37,38
 419 1118 419 1118 430.5 1123.5 c 128,-1,39
 442 1129 442 1129 451 1138 c 128,-1,40
 460 1147 460 1147 465 1157.5 c 128,-1,41
 470 1168 470 1168 470 1179 c 0,42,43
 470 1187 470 1187 455.5 1198 c 128,-1,44
 441 1209 441 1209 427 1214 c 0,45,46
 425 1214 425 1214 420.5 1216 c 128,-1,47
 416 1218 416 1218 411 1220 c 0,48,49
 404 1222 404 1222 398 1225 c 0,29,30
425 1250 m 256,50,51
 429 1250 429 1250 435.5 1254 c 128,-1,52
 442 1258 442 1258 449.5 1264.5 c 128,-1,53
 457 1271 457 1271 462 1278 c 128,-1,54
 467 1285 467 1285 467 1291 c 0,55,56
 467 1310 467 1310 452 1322.5 c 128,-1,57
 437 1335 437 1335 413 1335 c 0,58,59
 391 1335 391 1335 372.5 1321.5 c 128,-1,60
 354 1308 354 1308 354 1291 c 0,61,62
 354 1285 354 1285 359 1279 c 128,-1,63
 364 1273 364 1273 371 1268.5 c 128,-1,64
 378 1264 378 1264 384.5 1260.5 c 128,-1,65
 391 1257 391 1257 396 1256 c 0,66,67
 402 1254 402 1254 407.5 1253 c 128,-1,68
 413 1252 413 1252 417 1251 c 256,69,70
 421 1250 421 1250 425 1250 c 256,50,51
411 1103 m 0,71,72
 433 1103 433 1103 452.5 1073 c 128,-1,73
 472 1043 472 1043 488 1000 c 128,-1,74
 504 957 504 957 514 909.5 c 128,-1,75
 524 862 524 862 526 826 c 0,76,77
 528 786 528 786 522.5 735 c 128,-1,78
 517 684 517 684 497.5 629 c 128,-1,79
 478 574 478 574 442.5 520 c 128,-1,80
 407 466 407 466 350 420 c 1,81,-1
 381 261 l 1,82,83
 463 273 463 273 522 250.5 c 128,-1,84
 581 228 581 228 618 185 c 128,-1,85
 655 142 655 142 672 86 c 128,-1,86
 689 30 689 30 686 -25 c 0,87,88
 682 -117 682 -117 626.5 -178.5 c 128,-1,89
 571 -240 571 -240 481 -260 c 1,90,-1
 523 -495 l 2,91,92
 530 -534 530 -534 519.5 -567.5 c 128,-1,93
 509 -601 509 -601 486 -627 c 128,-1,94
 463 -653 463 -653 431 -671.5 c 128,-1,95
 399 -690 399 -690 364 -698 c 0,96,97
 322 -707 322 -707 283 -692 c 128,-1,98
 244 -677 244 -677 215 -649 c 128,-1,99
 186 -621 186 -621 171.5 -586.5 c 128,-1,100
 157 -552 157 -552 163 -522 c 0,101,102
 171 -478 171 -478 202.5 -450.5 c 128,-1,103
 234 -423 234 -423 280 -423 c 0,104,105
 302 -423 302 -423 321.5 -430.5 c 128,-1,106
 341 -438 341 -438 356 -452 c 128,-1,107
 371 -466 371 -466 379.5 -485 c 128,-1,108
 388 -504 388 -504 388 -525 c 0,109,110
 388 -549 388 -549 379 -571 c 128,-1,111
 370 -593 370 -593 353.5 -608.5 c 128,-1,112
 337 -624 337 -624 314.5 -632 c 128,-1,113
 292 -640 292 -640 265 -636 c 1,114,115
 269 -640 269 -640 278.5 -647.5 c 128,-1,116
 288 -655 288 -655 300 -662 c 128,-1,117
 312 -669 312 -669 328.5 -674 c 128,-1,118
 345 -679 345 -679 364 -677 c 0,119,120
 367 -677 367 -677 380.5 -673 c 128,-1,121
 394 -669 394 -669 411.5 -659.5 c 128,-1,122
 429 -650 429 -650 447.5 -636 c 128,-1,123
 466 -622 466 -622 480.5 -601.5 c 128,-1,124
 495 -581 495 -581 501.5 -553.5 c 128,-1,125
 508 -526 508 -526 502 -492 c 2,126,-1
 462 -268 l 1,127,128
 448 -271 448 -271 435.5 -272.5 c 128,-1,129
 423 -274 423 -274 411 -275 c 128,-1,130
 399 -276 399 -276 387 -276 c 128,-1,131
 375 -276 375 -276 359 -276 c 0,132,133
 286 -278 286 -278 221.5 -250 c 128,-1,134
 157 -222 157 -222 107.5 -172 c 128,-1,135
 58 -122 58 -122 29 -55 c 128,-1,136
 0 12 0 12 0 87 c 0,137,138
 0 133 0 133 21.5 185.5 c 128,-1,139
 43 238 43 238 76 289.5 c 128,-1,140
 109 341 109 341 147 388.5 c 128,-1,141
 185 436 185 436 218.5 472.5 c 128,-1,142
 252 509 252 509 275 531 c 128,-1,143
 298 553 298 553 300 554 c 0,144,145
 296 564 296 564 290 589 c 128,-1,146
 284 614 284 614 278 645 c 128,-1,147
 272 676 272 676 267 706 c 128,-1,148
 262 736 262 736 260 757 c 0,149,150
 256 787 256 787 259 824 c 128,-1,151
 262 861 262 861 271.5 899.5 c 128,-1,152
 281 938 281 938 295 975 c 128,-1,153
 309 1012 309 1012 327 1040 c 128,-1,154
 345 1068 345 1068 366.5 1085.5 c 128,-1,155
 388 1103 388 1103 411 1103 c 0,71,72
332 401 m 1,156,157
 324 395 324 395 306 377 c 128,-1,158
 288 359 288 359 267.5 337 c 128,-1,159
 247 315 247 315 226.5 291.5 c 128,-1,160
 206 268 206 268 194 252 c 0,161,162
 169 221 169 221 146.5 185.5 c 128,-1,163
 124 150 124 150 109 111 c 128,-1,164
 94 72 94 72 90.5 29.5 c 128,-1,165
 87 -13 87 -13 101 -59 c 0,166,167
 103 -67 103 -67 112.5 -84.5 c 128,-1,168
 122 -102 122 -102 138.5 -124 c 128,-1,169
 155 -146 155 -146 178 -168.5 c 128,-1,170
 201 -191 201 -191 230 -209 c 128,-1,171
 259 -227 259 -227 295.5 -238.5 c 128,-1,172
 332 -250 332 -250 375 -248 c 0,173,174
 401 -248 401 -248 417.5 -243.5 c 128,-1,175
 434 -239 434 -239 453 -232 c 1,176,-1
 375 155 l 1,177,178
 332 149 332 149 303 128.5 c 128,-1,179
 274 108 274 108 257 81 c 128,-1,180
 240 54 240 54 232.5 26 c 128,-1,181
 225 -2 225 -2 225 -24 c 0,182,183
 224 -59 224 -59 245 -89.5 c 128,-1,184
 266 -120 266 -120 294.5 -142.5 c 128,-1,185
 323 -165 323 -165 350 -177.5 c 128,-1,186
 377 -190 377 -190 389 -190 c 1,187,-1
 389 -201 l 1,188,189
 375 -200 375 -200 345 -187.5 c 128,-1,190
 315 -175 315 -175 283 -152.5 c 128,-1,191
 251 -130 251 -130 224 -96 c 128,-1,192
 197 -62 197 -62 187 -17 c 0,193,194
 178 29 178 29 186.5 73.5 c 128,-1,195
 195 118 195 118 218 154.5 c 128,-1,196
 241 191 241 191 277 218.5 c 128,-1,197
 313 246 313 246 359 257 c 1,198,-1
 332 401 l 1,156,157
483 882 m 0,199,200
 480 898 480 898 477.5 915 c 128,-1,201
 475 932 475 932 469 945.5 c 128,-1,202
 463 959 463 959 451.5 968.5 c 128,-1,203
 440 978 440 978 421 979 c 0,204,205
 404 980 404 980 385.5 959.5 c 128,-1,206
 367 939 367 939 350.5 905.5 c 128,-1,207
 334 872 334 872 321 832.5 c 128,-1,208
 308 793 308 793 301 755 c 0,209,210
 299 743 299 743 300.5 715.5 c 128,-1,211
 302 688 302 688 305.5 659 c 128,-1,212
 309 630 309 630 313 604.5 c 128,-1,213
 317 579 317 579 321 569 c 1,214,-1
 357 603 l 2,215,216
 361 604 361 604 384.5 628.5 c 128,-1,217
 408 653 408 653 433 691.5 c 128,-1,218
 458 730 458 730 474.5 780 c 128,-1,219
 491 830 491 830 483 882 c 0,199,200
474 -220 m 1,220,221
 510 -212 510 -212 538.5 -193 c 128,-1,222
 567 -174 567 -174 586.5 -147 c 128,-1,223
 606 -120 606 -120 615.5 -87 c 128,-1,224
 625 -54 625 -54 621 -17 c 0,225,226
 616 25 616 25 595 59.5 c 128,-1,227
 574 94 574 94 544 117 c 128,-1,228
 514 140 514 140 476.5 150.5 c 128,-1,229
 439 161 439 161 399 155 c 1,230,-1
 474 -220 l 1,220,221
EndSplineSet
Validated: 33
EndChar

StartChar: exclamdown
Encoding: 161 161 92
Width: 827
Flags: W
LayerCount: 2
Fore
SplineSet
802 55 m 256,0,1
 813 55 813 55 820 48 c 128,-1,2
 827 41 827 41 827 31 c 0,3,4
 827 20 827 20 820 12 c 128,-1,5
 813 4 813 4 802 4 c 256,6,7
 791 4 791 4 783.5 11.5 c 128,-1,8
 776 19 776 19 776 31 c 0,9,10
 776 41 776 41 783.5 48 c 128,-1,11
 791 55 791 55 802 55 c 256,0,1
396 209 m 0,12,13
 388 198 388 198 388 182 c 128,-1,14
 388 166 388 166 392.5 150.5 c 128,-1,15
 397 135 397 135 404 122.5 c 128,-1,16
 411 110 411 110 416 106 c 0,17,18
 417 106 417 106 427 115.5 c 128,-1,19
 437 125 437 125 448.5 138.5 c 128,-1,20
 460 152 460 152 469 166 c 128,-1,21
 478 180 478 180 477 191 c 0,22,23
 475 213 475 213 468 225.5 c 128,-1,24
 461 238 461 238 435 238 c 0,25,26
 421 238 421 238 413 229 c 128,-1,27
 405 220 405 220 396 209 c 0,12,13
701 238 m 1,28,29
 682 235 682 235 665.5 224 c 128,-1,30
 649 213 649 213 637 200 c 128,-1,31
 625 187 625 187 616 173 c 128,-1,32
 607 159 607 159 603 148 c 0,33,34
 600 140 600 140 598.5 118 c 128,-1,35
 597 96 597 96 600.5 73.5 c 128,-1,36
 604 51 604 51 614 34 c 128,-1,37
 624 17 624 17 643 18 c 0,38,39
 669 20 669 20 683 36 c 128,-1,40
 697 52 697 52 710 74 c 0,41,42
 723 97 723 97 726 121.5 c 128,-1,43
 729 146 729 146 725.5 169.5 c 128,-1,44
 722 193 722 193 714.5 211.5 c 128,-1,45
 707 230 707 230 701 238 c 1,28,29
199 365 m 2,46,47
 194 346 194 346 205 330.5 c 128,-1,48
 216 315 216 315 230.5 302 c 128,-1,49
 245 289 245 289 257.5 276 c 128,-1,50
 270 263 270 263 269 247 c 0,51,52
 268 232 268 232 264 212.5 c 128,-1,53
 260 193 260 193 254.5 175.5 c 128,-1,54
 249 158 249 158 243 144 c 128,-1,55
 237 130 237 130 233 126 c 1,56,57
 250 124 250 124 262.5 119.5 c 128,-1,58
 275 115 275 115 290 105 c 0,59,60
 310 91 310 91 322 70 c 128,-1,61
 334 49 334 49 336 35 c 1,62,-1
 382 77 l 1,63,64
 372 87 372 87 366 104.5 c 128,-1,65
 360 122 360 122 358.5 140.5 c 128,-1,66
 357 159 357 159 358.5 175 c 128,-1,67
 360 191 360 191 364 201 c 0,68,69
 373 227 373 227 389.5 240.5 c 128,-1,70
 406 254 406 254 423.5 259 c 128,-1,71
 441 264 441 264 456.5 262.5 c 128,-1,72
 472 261 472 261 480 257 c 0,73,74
 494 249 494 249 500.5 238 c 128,-1,75
 507 227 507 227 508 215 c 128,-1,76
 509 203 509 203 505 191 c 128,-1,77
 501 179 501 179 495 170 c 0,78,79
 491 165 491 165 480 153 c 128,-1,80
 469 141 469 141 456.5 129 c 128,-1,81
 444 117 444 117 434 107 c 128,-1,82
 424 97 424 97 421 96 c 1,83,84
 425 88 425 88 433.5 78.5 c 128,-1,85
 442 69 442 69 452 57 c 0,86,87
 467 40 467 40 482.5 35 c 128,-1,88
 498 30 498 30 506 38 c 2,89,-1
 564 89 l 1,90,91
 562 104 562 104 564.5 121 c 128,-1,92
 567 138 567 138 572.5 153.5 c 128,-1,93
 578 169 578 169 583.5 181 c 128,-1,94
 589 193 589 193 593 198 c 0,95,96
 602 209 602 209 615.5 219 c 128,-1,97
 629 229 629 229 643 236.5 c 128,-1,98
 657 244 657 244 670.5 248.5 c 128,-1,99
 684 253 684 253 692 254 c 1,100,101
 692 252 692 252 685.5 263.5 c 128,-1,102
 679 275 679 275 664.5 294 c 128,-1,103
 650 313 650 313 629.5 335.5 c 128,-1,104
 609 358 609 358 581.5 378 c 128,-1,105
 554 398 554 398 520.5 412 c 128,-1,106
 487 426 487 426 447 427 c 0,107,108
 444 427 444 427 449.5 428.5 c 128,-1,109
 455 430 455 430 457 428 c 0,110,111
 463 429 463 429 487.5 425 c 128,-1,112
 512 421 512 421 546 408.5 c 128,-1,113
 580 396 580 396 618.5 372.5 c 128,-1,114
 657 349 657 349 692 311 c 0,115,116
 735 265 735 265 751.5 212.5 c 128,-1,117
 768 160 768 160 762 114 c 0,118,119
 759 95 759 95 750.5 74.5 c 128,-1,120
 742 54 742 54 727.5 37 c 128,-1,121
 713 20 713 20 692 10 c 128,-1,122
 671 0 671 0 642 0 c 0,123,124
 620 0 620 0 606.5 9 c 128,-1,125
 593 18 593 18 585 30.5 c 128,-1,126
 577 43 577 43 573 56 c 128,-1,127
 569 69 569 69 568 78 c 1,128,-1
 490 6 l 2,129,130
 473 -10 473 -10 457 0 c 128,-1,131
 441 10 441 10 423 31 c 0,132,133
 413 42 413 42 403.5 52 c 128,-1,134
 394 62 394 62 391 71 c 1,135,-1
 325 6 l 2,136,137
 321 2 321 2 314.5 7.5 c 128,-1,138
 308 13 308 13 301 23 c 128,-1,139
 294 33 294 33 287.5 43.5 c 128,-1,140
 281 54 281 54 275 60 c 256,141,142
 270 66 270 66 266.5 70.5 c 128,-1,143
 263 75 263 75 257.5 79.5 c 128,-1,144
 252 84 252 84 244 91 c 128,-1,145
 236 98 236 98 220 110 c 1,146,147
 223 109 223 109 213.5 98.5 c 128,-1,148
 204 88 204 88 187.5 73.5 c 128,-1,149
 171 59 171 59 151 44 c 128,-1,150
 131 29 131 29 112 16.5 c 128,-1,151
 93 4 93 4 79 -1 c 128,-1,152
 65 -6 65 -6 60 0 c 256,153,154
 56 6 56 6 69 23 c 128,-1,155
 82 40 82 40 102 59 c 128,-1,156
 122 78 122 78 144 94.5 c 128,-1,157
 166 111 166 111 180 116 c 0,158,159
 185 117 185 117 188 118.5 c 128,-1,160
 191 120 191 120 194.5 121 c 128,-1,161
 198 122 198 122 203 123 c 128,-1,162
 208 124 208 124 218 126 c 1,163,164
 224 136 224 136 230.5 153 c 128,-1,165
 237 170 237 170 238 201 c 0,166,167
 239 220 239 220 226.5 234.5 c 128,-1,168
 214 249 214 249 200 261 c 128,-1,169
 186 273 186 273 175.5 287 c 128,-1,170
 165 301 165 301 170 321 c 2,171,-1
 213 504 l 1,172,173
 204 510 204 510 180.5 505 c 128,-1,174
 157 500 157 500 129 485.5 c 128,-1,175
 101 471 101 471 75 449.5 c 128,-1,176
 49 428 49 428 35 401 c 0,177,178
 31 394 31 394 28.5 383.5 c 128,-1,179
 26 373 26 373 27.5 363 c 128,-1,180
 29 353 29 353 35.5 346 c 128,-1,181
 42 339 42 339 57 339 c 0,182,183
 76 339 76 339 89.5 347.5 c 128,-1,184
 103 356 103 356 111 367 c 128,-1,185
 119 378 119 378 122 385.5 c 128,-1,186
 125 393 125 393 124 392 c 1,187,188
 125 393 125 393 123.5 381 c 128,-1,189
 122 369 122 369 113.5 354 c 128,-1,190
 105 339 105 339 88.5 325.5 c 128,-1,191
 72 312 72 312 43 310 c 0,192,193
 17 308 17 308 7 323 c 128,-1,194
 -3 338 -3 338 1 361.5 c 128,-1,195
 5 385 5 385 22.5 412.5 c 128,-1,196
 40 440 40 440 69.5 464 c 128,-1,197
 99 488 99 488 140.5 504 c 128,-1,198
 182 520 182 520 233 519 c 0,199,200
 266 519 266 519 295 507.5 c 128,-1,201
 324 496 324 496 346.5 478 c 128,-1,202
 369 460 369 460 383.5 438 c 128,-1,203
 398 416 398 416 403.5 396 c 128,-1,204
 409 376 409 376 402.5 359.5 c 128,-1,205
 396 343 396 343 377 336 c 0,206,207
 350 326 350 326 325.5 335.5 c 128,-1,208
 301 345 301 345 283.5 360.5 c 128,-1,209
 266 376 266 376 259.5 389 c 128,-1,210
 253 402 253 402 261 401 c 1,211,212
 258 402 258 402 268 394.5 c 128,-1,213
 278 387 278 387 292 380 c 128,-1,214
 306 373 306 373 323 370.5 c 128,-1,215
 340 368 340 368 352 379 c 0,216,217
 369 395 369 395 368 412.5 c 128,-1,218
 367 430 367 430 354 446 c 128,-1,219
 341 462 341 462 320.5 474.5 c 128,-1,220
 300 487 300 487 280.5 495 c 128,-1,221
 261 503 261 503 246.5 504 c 128,-1,222
 232 505 232 505 230 498 c 2,223,-1
 199 365 l 2,46,47
EndSplineSet
Validated: 37
EndChar

StartChar: cent
Encoding: 162 162 93
Width: 275
Flags: W
LayerCount: 2
Fore
SplineSet
275 325 m 1,0,1
 236 279 236 279 195.5 242 c 128,-1,2
 155 205 155 205 128 179 c 0,3,4
 123 174 123 174 109 163 c 128,-1,5
 95 152 95 152 80.5 140.5 c 128,-1,6
 66 129 66 129 53.5 120 c 128,-1,7
 41 111 41 111 38 109 c 2,8,-1
 140 109 l 1,9,-1
 158 169 l 1,10,-1
 262 241 l 1,11,-1
 226 109 l 1,12,-1
 264 109 l 1,13,-1
 260 91 l 1,14,-1
 222 91 l 2,15,16
 221 90 221 90 219.5 83.5 c 128,-1,17
 218 77 218 77 216.5 68.5 c 128,-1,18
 215 60 215 60 214 51.5 c 128,-1,19
 213 43 213 43 213 39 c 0,20,21
 213 34 213 34 217 30 c 128,-1,22
 221 26 221 26 226 23 c 128,-1,23
 231 20 231 20 235.5 18.5 c 128,-1,24
 240 17 240 17 241 17 c 2,25,-1
 236 0 l 1,26,-1
 74 0 l 1,27,-1
 79 17 l 2,28,29
 80 17 80 17 85.5 18.5 c 128,-1,30
 91 20 91 20 97.5 23.5 c 128,-1,31
 104 27 104 27 110 30.5 c 128,-1,32
 116 34 116 34 118 38 c 256,33,34
 120 42 120 42 123 50.5 c 128,-1,35
 126 59 126 59 128.5 68 c 128,-1,36
 131 77 131 77 133 83.5 c 128,-1,37
 135 90 135 90 135 91 c 2,38,-1
 1 91 l 2,39,40
 1 93 1 93 2 96 c 128,-1,41
 3 99 3 99 4 102 c 2,42,-1
 6 109 l 1,43,44
 49 135 49 135 80 171 c 128,-1,45
 111 207 111 207 131.5 240 c 128,-1,46
 152 273 152 273 163 298 c 128,-1,47
 174 323 174 323 179 325 c 2,48,-1
 275 325 l 1,0,1
EndSplineSet
Validated: 1
EndChar

StartChar: sterling
Encoding: 163 163 94
Width: 291
Flags: W
LayerCount: 2
Fore
SplineSet
109 173 m 2,0,1
 113 173 113 173 114.5 173 c 128,-1,2
 116 173 116 173 126 176 c 0,3,4
 141 181 141 181 156.5 185.5 c 128,-1,5
 172 190 172 190 185 197 c 128,-1,6
 198 204 198 204 207 214 c 128,-1,7
 216 224 216 224 220 241 c 0,8,9
 224 256 224 256 221 270 c 128,-1,10
 218 284 218 284 209.5 294 c 128,-1,11
 201 304 201 304 189 309.5 c 128,-1,12
 177 315 177 315 165 315 c 0,13,14
 150 315 150 315 135.5 310 c 128,-1,15
 121 305 121 305 111 299 c 128,-1,16
 101 293 101 293 98 288 c 128,-1,17
 95 283 95 283 102 283 c 0,18,19
 116 283 116 283 123.5 279 c 128,-1,20
 131 275 131 275 134 269.5 c 128,-1,21
 137 264 137 264 136.5 257 c 128,-1,22
 136 250 136 250 134 243 c 0,23,24
 129 226 129 226 114 214 c 128,-1,25
 99 202 99 202 79 202 c 0,26,27
 63 202 63 202 53 214.5 c 128,-1,28
 43 227 43 227 49 250 c 0,29,30
 57 283 57 283 94 309 c 128,-1,31
 131 335 131 335 201 335 c 0,32,33
 223 335 223 335 241 326.5 c 128,-1,34
 259 318 259 318 272 305.5 c 128,-1,35
 285 293 285 293 290 275.5 c 128,-1,36
 295 258 295 258 290 240 c 0,37,38
 282 208 282 208 262 188.5 c 128,-1,39
 242 169 242 169 211 167 c 1,40,41
 234 152 234 152 246 139 c 128,-1,42
 258 126 258 126 251 95 c 0,43,44
 245 71 245 71 230 53.5 c 128,-1,45
 215 36 215 36 195.5 24 c 128,-1,46
 176 12 176 12 153.5 6 c 128,-1,47
 131 0 131 0 110 0 c 0,48,49
 75 0 75 0 53 7 c 128,-1,50
 31 14 31 14 18.5 25.5 c 128,-1,51
 6 37 6 37 3 52.5 c 128,-1,52
 0 68 0 68 4 85 c 0,53,54
 10 108 10 108 24.5 120.5 c 128,-1,55
 39 133 39 133 60 133 c 0,56,57
 80 133 80 133 90 121.5 c 128,-1,58
 100 110 100 110 95 92 c 0,59,60
 91 78 91 78 80 65 c 128,-1,61
 69 52 69 52 40 52 c 0,62,63
 33 52 33 52 33.5 47 c 128,-1,64
 34 42 34 42 40 35.5 c 128,-1,65
 46 29 46 29 58 23.5 c 128,-1,66
 70 18 70 18 85 18 c 0,67,68
 98 18 98 18 113 24.5 c 128,-1,69
 128 31 128 31 142 41 c 128,-1,70
 156 51 156 51 166.5 65 c 128,-1,71
 177 79 177 79 181 94 c 0,72,73
 184 106 184 106 180 116 c 128,-1,74
 176 126 176 126 167 134 c 128,-1,75
 158 142 158 142 145.5 148 c 128,-1,76
 133 154 133 154 121 159 c 0,77,78
 112 162 112 162 110.5 162 c 128,-1,79
 109 162 109 162 103 162 c 1,80,-1
 109 173 l 2,0,1
EndSplineSet
Validated: 33
EndChar

StartChar: currency
Encoding: 164 164 95
Width: 275
Flags: W
LayerCount: 2
Fore
SplineSet
174 88 m 0,0,1
 177 100 177 100 178.5 114.5 c 128,-1,2
 180 129 180 129 178 141.5 c 128,-1,3
 176 154 176 154 170 162 c 128,-1,4
 164 170 164 170 152 170 c 0,5,6
 121 170 121 170 105.5 145.5 c 128,-1,7
 90 121 90 121 82 91 c 0,8,9
 79 80 79 80 78.5 66 c 128,-1,10
 78 52 78 52 81 40.5 c 128,-1,11
 84 29 84 29 90.5 21 c 128,-1,12
 97 13 97 13 110 13 c 0,13,14
 124 13 124 13 134.5 20 c 128,-1,15
 145 27 145 27 152.5 37 c 128,-1,16
 160 47 160 47 165 60.5 c 128,-1,17
 170 74 170 74 174 88 c 0,0,1
238 301 m 0,18,19
 241 301 241 301 235.5 305.5 c 128,-1,20
 230 310 230 310 221 314.5 c 128,-1,21
 212 319 212 319 199.5 321.5 c 128,-1,22
 187 324 187 324 174 318 c 0,23,24
 152 309 152 309 136.5 284.5 c 128,-1,25
 121 260 121 260 111 233 c 128,-1,26
 101 206 101 206 97.5 183.5 c 128,-1,27
 94 161 94 161 98 156 c 1,28,29
 112 178 112 178 133.5 182.5 c 128,-1,30
 155 187 155 187 181 187 c 0,31,32
 203 187 203 187 216 178.5 c 128,-1,33
 229 170 229 170 236 156.5 c 128,-1,34
 243 143 243 143 244 127.5 c 128,-1,35
 245 112 245 112 241 98 c 0,36,37
 228 51 228 51 190 25 c 128,-1,38
 152 -1 152 -1 102 0 c 0,39,40
 67 0 67 0 46 16.5 c 128,-1,41
 25 33 25 33 14 57.5 c 128,-1,42
 3 82 3 82 2 111.5 c 128,-1,43
 1 141 1 141 8 169 c 0,44,45
 18 204 18 204 37.5 234 c 128,-1,46
 57 264 57 264 83 286 c 128,-1,47
 109 308 109 308 138.5 320.5 c 128,-1,48
 168 333 168 333 199 333 c 256,49,50
 230 333 230 333 246 324.5 c 128,-1,51
 262 316 262 316 268.5 304.5 c 128,-1,52
 275 293 275 293 275.5 280.5 c 128,-1,53
 276 268 276 268 274 260 c 0,54,55
 269 243 269 243 252.5 230.5 c 128,-1,56
 236 218 236 218 220 216 c 0,57,58
 204 215 204 215 191.5 226 c 128,-1,59
 179 237 179 237 184 260 c 0,60,61
 187 271 187 271 194 279 c 128,-1,62
 201 287 201 287 209.5 292 c 128,-1,63
 218 297 218 297 226 299 c 128,-1,64
 234 301 234 301 238 301 c 0,18,19
EndSplineSet
Validated: 33
EndChar

StartChar: yen
Encoding: 165 165 96
Width: 270
Flags: W
LayerCount: 2
Fore
SplineSet
96 159 m 0,0,1
 88 159 88 159 78.5 154.5 c 128,-1,2
 69 150 69 150 59.5 142.5 c 128,-1,3
 50 135 50 135 43 124.5 c 128,-1,4
 36 114 36 114 33 101 c 0,5,6
 30 87 30 87 32.5 72 c 128,-1,7
 35 57 35 57 42.5 45.5 c 128,-1,8
 50 34 50 34 64 26 c 128,-1,9
 78 18 78 18 98 18 c 0,10,11
 137 18 137 18 158.5 35 c 128,-1,12
 180 52 180 52 183 67 c 0,13,14
 186 80 186 80 173 95.5 c 128,-1,15
 160 111 160 111 142 123 c 0,16,17
 114 142 114 142 106 150 c 128,-1,18
 98 158 98 158 96 159 c 0,0,1
179 197 m 0,19,20
 196 198 196 198 213 215.5 c 128,-1,21
 230 233 230 233 236 251 c 0,22,23
 243 281 243 281 228.5 299 c 128,-1,24
 214 317 214 317 179 317 c 0,25,26
 151 317 151 317 130 301 c 128,-1,27
 109 285 109 285 103 267 c 0,28,29
 100 254 100 254 114.5 243 c 128,-1,30
 129 232 129 232 140 225 c 0,31,32
 164 210 164 210 170.5 203.5 c 128,-1,33
 177 197 177 197 179 197 c 0,19,20
195 184 m 1,34,35
 196 183 196 183 205 177 c 128,-1,36
 214 171 214 171 223 161 c 128,-1,37
 232 151 232 151 239 137.5 c 128,-1,38
 246 124 246 124 243 109 c 0,39,40
 236 79 236 79 219 58.5 c 128,-1,41
 202 38 202 38 180.5 25 c 128,-1,42
 159 12 159 12 135.5 6 c 128,-1,43
 112 0 112 0 92 0 c 256,44,45
 72 0 72 0 53.5 7.5 c 128,-1,46
 35 15 35 15 21.5 29.5 c 128,-1,47
 8 44 8 44 2.5 64 c 128,-1,48
 -3 84 -3 84 3 109 c 0,49,50
 6 120 6 120 16.5 131 c 128,-1,51
 27 142 27 142 39 151 c 128,-1,52
 51 160 51 160 63 166 c 128,-1,53
 75 172 75 172 81 172 c 1,54,55
 77 175 77 175 70 181.5 c 128,-1,56
 63 188 63 188 57.5 197.5 c 128,-1,57
 52 207 52 207 49 219 c 128,-1,58
 46 231 46 231 50 248 c 0,59,60
 55 267 55 267 69.5 283 c 128,-1,61
 84 299 84 299 103 310.5 c 128,-1,62
 122 322 122 322 143.5 328.5 c 128,-1,63
 165 335 165 335 184 335 c 0,64,65
 206 335 206 335 224 328.5 c 128,-1,66
 242 322 242 322 253.5 310.5 c 128,-1,67
 265 299 265 299 269 283 c 128,-1,68
 273 267 273 267 267 248 c 0,69,70
 264 238 264 238 255 226.5 c 128,-1,71
 246 215 246 215 234.5 206 c 128,-1,72
 223 197 223 197 212.5 190.5 c 128,-1,73
 202 184 202 184 195 184 c 1,34,35
EndSplineSet
Validated: 33
EndChar

StartChar: section
Encoding: 167 167 97
Width: 854
Flags: W
LayerCount: 2
Fore
SplineSet
786 282 m 1,0,-1
 786 245 l 1,1,-1
 580 49 l 2,2,3
 581 49 581 49 586 52 c 128,-1,4
 591 55 591 55 597.5 58 c 128,-1,5
 604 61 604 61 612.5 64 c 128,-1,6
 621 67 621 67 629 67 c 0,7,8
 645 66 645 66 662.5 58 c 128,-1,9
 680 50 680 50 694.5 44 c 128,-1,10
 709 38 709 38 718 37.5 c 128,-1,11
 727 37 727 37 727 50 c 0,12,13
 727 54 727 54 723.5 57 c 128,-1,14
 720 60 720 60 715.5 63 c 128,-1,15
 711 66 711 66 707 69.5 c 128,-1,16
 703 73 703 73 703 78 c 0,17,18
 703 86 703 86 710 89.5 c 128,-1,19
 717 93 717 93 725 93.5 c 128,-1,20
 733 94 733 94 740.5 93 c 128,-1,21
 748 92 748 92 750 91 c 0,22,23
 765 82 765 82 768 59 c 128,-1,24
 771 36 771 36 760 15 c 0,25,26
 756 6 756 6 746.5 -2 c 128,-1,27
 737 -10 737 -10 726 -16.5 c 128,-1,28
 715 -23 715 -23 703 -25.5 c 128,-1,29
 691 -28 691 -28 682 -25 c 0,30,31
 654 -17 654 -17 638.5 -9.5 c 128,-1,32
 623 -2 623 -2 613 3.5 c 128,-1,33
 603 9 603 9 595 12 c 128,-1,34
 587 15 587 15 574 15 c 0,35,36
 554 15 554 15 542 6.5 c 128,-1,37
 530 -2 530 -2 523 -7 c 1,38,-1
 486 -7 l 1,39,-1
 734 233 l 1,40,-1
 577 233 l 2,41,42
 570 233 570 233 574 233.5 c 128,-1,43
 578 234 578 234 575 233 c 0,44,45
 570 231 570 231 567.5 228.5 c 128,-1,46
 565 226 565 226 563 223 c 0,47,48
 560 219 560 219 559 215 c 1,49,-1
 545 215 l 1,50,-1
 574 282 l 1,51,-1
 786 282 l 1,0,-1
521 249 m 1,52,-1
 433 249 l 2,53,54
 433 247 433 247 429.5 233 c 128,-1,55
 426 219 426 219 423 207 c 0,56,57
 409 151 409 151 393.5 99 c 128,-1,58
 378 47 378 47 356.5 3 c 128,-1,59
 335 -41 335 -41 307 -76.5 c 128,-1,60
 279 -112 279 -112 239 -135 c 0,61,62
 221 -146 221 -146 200.5 -149.5 c 128,-1,63
 180 -153 180 -153 162.5 -150 c 128,-1,64
 145 -147 145 -147 131.5 -140 c 128,-1,65
 118 -133 118 -133 112 -122 c 0,66,67
 101 -103 101 -103 102 -85 c 128,-1,68
 103 -67 103 -67 111.5 -53.5 c 128,-1,69
 120 -40 120 -40 133 -33.5 c 128,-1,70
 146 -27 146 -27 159 -29 c 0,71,72
 188 -34 188 -34 194.5 -50.5 c 128,-1,73
 201 -67 201 -67 194 -87 c 0,74,75
 190 -100 190 -100 183.5 -106 c 128,-1,76
 177 -112 177 -112 164 -115 c 0,77,78
 158 -117 158 -117 157 -120 c 128,-1,79
 156 -123 156 -123 158.5 -126.5 c 128,-1,80
 161 -130 161 -130 166.5 -132.5 c 128,-1,81
 172 -135 172 -135 181 -134 c 0,82,83
 193 -132 193 -132 206 -117.5 c 128,-1,84
 219 -103 219 -103 227 -92 c 0,85,86
 246 -64 246 -64 260 -28.5 c 128,-1,87
 274 7 274 7 285 44.5 c 128,-1,88
 296 82 296 82 304.5 119 c 128,-1,89
 313 156 313 156 323 186 c 0,90,91
 329 210 329 210 331.5 228.5 c 128,-1,92
 334 247 334 247 334 249 c 2,93,-1
 273 249 l 1,94,-1
 273 267 l 1,95,-1
 341 267 l 2,96,97
 341 270 341 270 346.5 294.5 c 128,-1,98
 352 319 352 319 369.5 350.5 c 128,-1,99
 387 382 387 382 417 412 c 128,-1,100
 447 442 447 442 497 455 c 0,101,102
 524 462 524 462 547.5 460 c 128,-1,103
 571 458 571 458 589.5 448 c 128,-1,104
 608 438 608 438 619 422.5 c 128,-1,105
 630 407 630 407 630 386 c 0,106,107
 630 368 630 368 623.5 356.5 c 128,-1,108
 617 345 617 345 608 339 c 128,-1,109
 599 333 599 333 589 332.5 c 128,-1,110
 579 332 579 332 571 335 c 0,111,112
 561 339 561 339 556 347.5 c 128,-1,113
 551 356 551 356 550.5 366 c 128,-1,114
 550 376 550 376 553.5 385 c 128,-1,115
 557 394 557 394 564 401 c 0,116,117
 568 405 568 405 574.5 406.5 c 128,-1,118
 581 408 581 408 587 408.5 c 128,-1,119
 593 409 593 409 597.5 410.5 c 128,-1,120
 602 412 602 412 603 416 c 0,121,122
 605 425 605 425 597.5 430 c 128,-1,123
 590 435 590 435 578 435.5 c 128,-1,124
 566 436 566 436 552.5 433.5 c 128,-1,125
 539 431 539 431 528 427 c 0,126,127
 496 413 496 413 478.5 386 c 128,-1,128
 461 359 461 359 453 333 c 0,129,130
 442 301 442 301 439 267 c 1,131,-1
 521 267 l 1,132,-1
 521 249 l 1,52,-1
150 65 m 0,133,134
 148 85 148 85 132 104 c 128,-1,135
 116 123 116 123 96.5 141.5 c 128,-1,136
 77 160 77 160 61 178.5 c 128,-1,137
 45 197 45 197 45 218 c 0,138,139
 45 235 45 235 53 250 c 128,-1,140
 61 265 61 265 75.5 276 c 128,-1,141
 90 287 90 287 108.5 293.5 c 128,-1,142
 127 300 127 300 147 300 c 0,143,144
 163 300 163 300 180.5 294 c 128,-1,145
 198 288 198 288 211.5 277.5 c 128,-1,146
 225 267 225 267 234 255 c 128,-1,147
 243 243 243 243 243 230 c 0,148,149
 243 197 243 197 213 199 c 0,150,151
 198 200 198 200 194 209.5 c 128,-1,152
 190 219 190 219 189 231.5 c 128,-1,153
 188 244 188 244 184.5 254.5 c 128,-1,154
 181 265 181 265 166 268 c 0,155,156
 150 271 150 271 137.5 268 c 128,-1,157
 125 265 125 265 117 259 c 128,-1,158
 109 253 109 253 105 245 c 128,-1,159
 101 237 101 237 103 230 c 0,160,161
 108 211 108 211 125 194 c 128,-1,162
 142 177 142 177 160 159.5 c 128,-1,163
 178 142 178 142 193.5 122.5 c 128,-1,164
 209 103 209 103 211 79 c 0,165,166
 212 57 212 57 203.5 40.5 c 128,-1,167
 195 24 195 24 179.5 12.5 c 128,-1,168
 164 1 164 1 144.5 -4.5 c 128,-1,169
 125 -10 125 -10 105 -10 c 0,170,171
 87 -10 87 -10 69.5 -3 c 128,-1,172
 52 4 52 4 39 16 c 128,-1,173
 26 28 26 28 18 41.5 c 128,-1,174
 10 55 10 55 11 70 c 0,175,176
 12 82 12 82 18.5 89.5 c 128,-1,177
 25 97 25 97 32.5 100 c 128,-1,178
 40 103 40 103 48.5 102 c 128,-1,179
 57 101 57 101 63 96 c 0,180,181
 75 85 75 85 74.5 75 c 128,-1,182
 74 65 74 65 71.5 55 c 128,-1,183
 69 45 69 45 69.5 36.5 c 128,-1,184
 70 28 70 28 84 22 c 256,185,186
 98 16 98 16 110.5 19 c 128,-1,187
 123 22 123 22 132 30 c 128,-1,188
 141 38 141 38 146 48 c 128,-1,189
 151 58 151 58 150 65 c 0,133,134
EndSplineSet
Validated: 33
EndChar

StartChar: dieresis
Encoding: 168 168 98
Width: 433
Flags: W
LayerCount: 2
Fore
SplineSet
206 84 m 0,0,1
 231 91 231 91 247.5 109 c 128,-1,2
 264 127 264 127 275.5 146 c 128,-1,3
 287 165 287 165 292.5 180.5 c 128,-1,4
 298 196 298 196 299 199 c 2,5,-1
 339 368 l 1,6,7
 320 334 320 334 278 320.5 c 128,-1,8
 236 307 236 307 186 321 c 0,9,10
 159 328 159 328 140 347.5 c 128,-1,11
 121 367 121 367 121 399 c 0,12,13
 121 428 121 428 141.5 447.5 c 128,-1,14
 162 467 162 467 190 467 c 0,15,16
 220 467 220 467 240.5 446 c 128,-1,17
 261 425 261 425 261 399 c 0,18,19
 261 393 261 393 254.5 375 c 128,-1,20
 248 357 248 357 229 346 c 1,21,22
 232 346 232 346 235 344 c 128,-1,23
 238 342 238 342 241.5 341 c 128,-1,24
 245 340 245 340 251 340 c 128,-1,25
 257 340 257 340 267 343 c 0,26,27
 291 351 291 351 309.5 371 c 128,-1,28
 328 391 328 391 340.5 412 c 128,-1,29
 353 433 353 433 362 449.5 c 128,-1,30
 371 466 371 466 375 466 c 2,31,-1
 386 466 l 1,32,-1
 156 -523 l 1,33,-1
 126 -523 l 1,34,-1
 216 -152 l 1,35,36
 197 -186 197 -186 156 -199 c 128,-1,37
 115 -212 115 -212 65 -199 c 0,38,39
 38 -192 38 -192 19 -172.5 c 128,-1,40
 0 -153 0 -153 0 -120 c 0,41,42
 0 -91 0 -91 20.5 -71.5 c 128,-1,43
 41 -52 41 -52 70 -52 c 0,44,45
 100 -52 100 -52 120 -73.5 c 128,-1,46
 140 -95 140 -95 140 -120 c 0,47,48
 140 -126 140 -126 133.5 -144 c 128,-1,49
 127 -162 127 -162 109 -173 c 1,50,51
 114 -174 114 -174 121 -177.5 c 128,-1,52
 128 -181 128 -181 145 -176 c 0,53,54
 164 -170 164 -170 180.5 -154.5 c 128,-1,55
 197 -139 197 -139 208.5 -124 c 128,-1,56
 220 -109 220 -109 226.5 -96 c 128,-1,57
 233 -83 233 -83 233 -81 c 2,58,-1
 279 109 l 1,59,60
 259 75 259 75 217 61 c 128,-1,61
 175 47 175 47 126 60 c 0,62,63
 99 67 99 67 79.5 87.5 c 128,-1,64
 60 108 60 108 60 140 c 0,65,66
 60 168 60 168 80.5 188 c 128,-1,67
 101 208 101 208 130 208 c 0,68,69
 160 208 160 208 180.5 186.5 c 128,-1,70
 201 165 201 165 201 140 c 0,71,72
 201 133 201 133 194 115.5 c 128,-1,73
 187 98 187 98 169 87 c 1,74,75
 174 85 174 85 180.5 81 c 128,-1,76
 187 77 187 77 206 84 c 0,0,1
EndSplineSet
Validated: 33
EndChar

StartChar: copyright
Encoding: 169 169 99
Width: 293
Flags: W
LayerCount: 2
Fore
SplineSet
153 47 m 1,0,1
 158 24 158 24 143.5 1 c 128,-1,2
 129 -22 129 -22 109 -33 c 0,3,4
 86 -46 86 -46 62 -47 c 128,-1,5
 38 -48 38 -48 20 -29 c 0,6,7
 10 -19 10 -19 9 -5 c 128,-1,8
 8 9 8 9 13.5 23 c 128,-1,9
 19 37 19 37 30.5 49 c 128,-1,10
 42 61 42 61 55 70 c 0,11,12
 75 81 75 81 99 83.5 c 128,-1,13
 123 86 123 86 140 70 c 1,14,-1
 140 467 l 1,15,-1
 153 467 l 1,16,-1
 153 47 l 1,0,1
EndSplineSet
Validated: 33
EndChar

StartChar: ordfeminine
Encoding: 170 170 100
Width: 329
Flags: W
LayerCount: 2
Fore
SplineSet
173 304 m 0,0,1
 160 304 160 304 149.5 300 c 128,-1,2
 139 296 139 296 133 291.5 c 128,-1,3
 127 287 127 287 126 283 c 128,-1,4
 125 279 125 279 131 279 c 0,5,6
 138 279 138 279 147 276.5 c 128,-1,7
 156 274 156 274 162 269 c 128,-1,8
 168 264 168 264 170.5 255 c 128,-1,9
 173 246 173 246 170 232 c 0,10,11
 165 208 165 208 146 195.5 c 128,-1,12
 127 183 127 183 106 183 c 0,13,14
 97 183 97 183 89.5 188 c 128,-1,15
 82 193 82 193 77 199.5 c 128,-1,16
 72 206 72 206 70 214.5 c 128,-1,17
 68 223 68 223 70 232 c 0,18,19
 74 248 74 248 86.5 265.5 c 128,-1,20
 99 283 99 283 118 296.5 c 128,-1,21
 137 310 137 310 160 319 c 128,-1,22
 183 328 183 328 208 328 c 256,23,24
 233 328 233 328 257 322 c 128,-1,25
 281 316 281 316 298.5 305.5 c 128,-1,26
 316 295 316 295 325 277.5 c 128,-1,27
 334 260 334 260 328 238 c 256,28,29
 322 215 322 215 300.5 198.5 c 128,-1,30
 279 182 279 182 251.5 169.5 c 128,-1,31
 224 157 224 157 197 146.5 c 128,-1,32
 170 136 170 136 153 126 c 0,33,34
 119 106 119 106 99.5 91.5 c 128,-1,35
 80 77 80 77 75 74 c 1,36,37
 104 92 104 92 132.5 95.5 c 128,-1,38
 161 99 161 99 191 84 c 0,39,40
 201 79 201 79 208 72.5 c 128,-1,41
 215 66 215 66 219.5 60 c 128,-1,42
 224 54 224 54 228.5 50 c 128,-1,43
 233 46 233 46 240 46 c 0,44,45
 257 46 257 46 268 53.5 c 128,-1,46
 279 61 279 61 284.5 70.5 c 128,-1,47
 290 80 290 80 292 87.5 c 128,-1,48
 294 95 294 95 294 96 c 2,49,-1
 304 96 l 1,50,51
 302 83 302 83 295.5 65 c 128,-1,52
 289 47 289 47 276 31 c 128,-1,53
 263 15 263 15 244.5 4 c 128,-1,54
 226 -7 226 -7 201 -7 c 256,55,56
 176 -7 176 -7 161.5 0.5 c 128,-1,57
 147 8 147 8 136 18 c 128,-1,58
 125 28 125 28 113 35.5 c 128,-1,59
 101 43 101 43 82 43 c 0,60,61
 60 43 60 43 47.5 37 c 128,-1,62
 35 31 35 31 28.5 23 c 128,-1,63
 22 15 22 15 19 8 c 128,-1,64
 16 1 16 1 15 0 c 2,65,-1
 0 0 l 1,66,67
 4 8 4 8 6 14 c 128,-1,68
 8 20 8 20 11 26.5 c 128,-1,69
 14 33 14 33 19 40 c 128,-1,70
 24 47 24 47 32 56 c 0,71,72
 48 75 48 75 84 100 c 128,-1,73
 120 125 120 125 157 149.5 c 128,-1,74
 194 174 194 174 223.5 197 c 128,-1,75
 253 220 253 220 257 236 c 0,76,77
 265 269 265 269 245.5 287.5 c 128,-1,78
 226 306 226 306 173 304 c 0,0,1
EndSplineSet
Validated: 37
EndChar

StartChar: logicalnot
Encoding: 172 172 101
Width: 303
Flags: W
LayerCount: 2
Fore
SplineSet
130 87 m 0,0,1
 147 87 147 87 160 74 c 128,-1,2
 173 61 173 61 173 43 c 0,3,4
 173 26 173 26 160 13 c 128,-1,5
 147 0 147 0 130 0 c 0,6,7
 112 0 112 0 99.5 13 c 128,-1,8
 87 26 87 26 87 43 c 0,9,10
 87 61 87 61 99.5 74 c 128,-1,11
 112 87 112 87 130 87 c 0,0,1
0 0 m 1,12,-1
 152 433 l 1,13,-1
 303 0 l 1,14,-1
 247 0 l 1,15,-1
 133 325 l 1,16,-1
 20 0 l 1,17,-1
 0 0 l 1,12,-1
EndSplineSet
Validated: 1
EndChar

StartChar: registered
Encoding: 174 174 102
Width: 130
Flags: W
LayerCount: 2
Fore
SplineSet
0 43 m 1,0,-1
 130 43 l 1,1,-1
 65 -87 l 1,2,-1
 0 43 l 1,0,-1
EndSplineSet
Validated: 1
EndChar

StartChar: macron
Encoding: 175 175 103
AltUni2: 0002c9.ffffffff.0
Width: 1534
Flags: W
LayerCount: 2
Fore
SplineSet
1411 269 m 256,0,1
 1399 274 1399 274 1384.5 266 c 128,-1,2
 1370 258 1370 258 1356.5 242.5 c 128,-1,3
 1343 227 1343 227 1331.5 208 c 128,-1,4
 1320 189 1320 189 1313 174 c 0,5,6
 1308 163 1308 163 1303.5 144.5 c 128,-1,7
 1299 126 1299 126 1297.5 107 c 128,-1,8
 1296 88 1296 88 1299 72.5 c 128,-1,9
 1302 57 1302 57 1310 53 c 0,10,11
 1320 48 1320 48 1333.5 54 c 128,-1,12
 1347 60 1347 60 1360.5 73.5 c 128,-1,13
 1374 87 1374 87 1386.5 105 c 128,-1,14
 1399 123 1399 123 1407 140 c 0,15,16
 1413 153 1413 153 1418.5 174 c 128,-1,17
 1424 195 1424 195 1426 214 c 128,-1,18
 1428 233 1428 233 1425.5 248.5 c 128,-1,19
 1423 264 1423 264 1411 269 c 256,0,1
1205 -130 m 1,20,-1
 1246 -130 l 1,21,-1
 1246 -152 l 1,22,-1
 1082 -152 l 1,23,-1
 1082 -130 l 1,24,-1
 1125 -130 l 1,25,-1
 1267 233 l 2,26,27
 1267 234 1267 234 1272 244 c 128,-1,28
 1277 254 1277 254 1271 261 c 0,29,30
 1260 274 1260 274 1247 270 c 128,-1,31
 1234 266 1234 266 1222 253 c 128,-1,32
 1210 240 1210 240 1199.5 220.5 c 128,-1,33
 1189 201 1189 201 1181.5 183.5 c 128,-1,34
 1174 166 1174 166 1169 153 c 0,35,-1
 1164 140 l 1,36,-1
 1151 141 l 1,37,38
 1155 154 l 0,39,40
 1159 167 1159 167 1167.5 185.5 c 128,-1,41
 1176 204 1176 204 1187.5 224.5 c 128,-1,42
 1199 245 1199 245 1214 260 c 128,-1,43
 1229 275 1229 275 1246.5 283 c 128,-1,44
 1264 291 1264 291 1283 283 c 0,45,46
 1292 279 1292 279 1295 265.5 c 128,-1,47
 1298 252 1298 252 1298 250 c 1,48,49
 1303 258 1303 258 1316.5 269.5 c 128,-1,50
 1330 281 1330 281 1348 289.5 c 128,-1,51
 1366 298 1366 298 1386.5 301.5 c 128,-1,52
 1407 305 1407 305 1426 299 c 0,53,54
 1454 290 1454 290 1468 269 c 128,-1,55
 1482 248 1482 248 1486 221.5 c 128,-1,56
 1490 195 1490 195 1486 167 c 128,-1,57
 1482 139 1482 139 1473 117 c 0,58,59
 1465 94 1465 94 1449 73 c 128,-1,60
 1433 52 1433 52 1414 35.5 c 128,-1,61
 1395 19 1395 19 1374.5 9 c 128,-1,62
 1354 -1 1354 -1 1337 -1 c 0,63,64
 1314 -1 1314 -1 1299.5 13 c 128,-1,65
 1285 27 1285 27 1273 59 c 1,66,-1
 1205 -130 l 1,20,-1
1051 269 m 256,67,68
 1039 274 1039 274 1024.5 266 c 128,-1,69
 1010 258 1010 258 996.5 242.5 c 128,-1,70
 983 227 983 227 971 208 c 128,-1,71
 959 189 959 189 952 174 c 0,72,73
 947 163 947 163 943 144.5 c 128,-1,74
 939 126 939 126 937.5 107 c 128,-1,75
 936 88 936 88 938.5 72.5 c 128,-1,76
 941 57 941 57 949 53 c 0,77,78
 959 48 959 48 972.5 54 c 128,-1,79
 986 60 986 60 1000 73.5 c 128,-1,80
 1014 87 1014 87 1026 105 c 128,-1,81
 1038 123 1038 123 1047 140 c 0,82,83
 1053 153 1053 153 1058.5 174 c 128,-1,84
 1064 195 1064 195 1066 214 c 128,-1,85
 1068 233 1068 233 1065.5 248.5 c 128,-1,86
 1063 264 1063 264 1051 269 c 256,67,68
844 -130 m 1,87,-1
 886 -130 l 1,88,-1
 886 -152 l 1,89,-1
 722 -152 l 1,90,-1
 722 -130 l 1,91,-1
 765 -130 l 1,92,-1
 906 233 l 2,93,94
 906 234 906 234 911 244 c 128,-1,95
 916 254 916 254 910 261 c 0,96,97
 899 274 899 274 886 270 c 128,-1,98
 873 266 873 266 861.5 253 c 128,-1,99
 850 240 850 240 839 220.5 c 128,-1,100
 828 201 828 201 820.5 183.5 c 128,-1,101
 813 166 813 166 808.5 153 c 0,102,-1
 804 140 l 1,103,-1
 791 141 l 1,104,-1
 795 154 l 0,105,106
 799 167 799 167 807 185.5 c 128,-1,107
 815 204 815 204 827 224.5 c 128,-1,108
 839 245 839 245 853 260 c 128,-1,109
 867 275 867 275 884.5 283 c 128,-1,110
 902 291 902 291 922 283 c 0,111,112
 932 279 932 279 934.5 265.5 c 128,-1,113
 937 252 937 252 938 250 c 1,114,115
 943 258 943 258 956.5 269.5 c 128,-1,116
 970 281 970 281 988 289.5 c 128,-1,117
 1006 298 1006 298 1026.5 301.5 c 128,-1,118
 1047 305 1047 305 1066 299 c 0,119,120
 1094 290 1094 290 1107.5 269 c 128,-1,121
 1121 248 1121 248 1125 221.5 c 128,-1,122
 1129 195 1129 195 1125 167 c 128,-1,123
 1121 139 1121 139 1112 117 c 0,124,125
 1104 94 1104 94 1088 73 c 128,-1,126
 1072 52 1072 52 1053 35.5 c 128,-1,127
 1034 19 1034 19 1013.5 9 c 128,-1,128
 993 -1 993 -1 977 -1 c 0,129,130
 953 -1 953 -1 939 13 c 128,-1,131
 925 27 925 27 912 59 c 1,132,-1
 844 -130 l 1,87,-1
690 269 m 256,133,134
 678 274 678 274 663.5 266 c 128,-1,135
 649 258 649 258 636 242.5 c 128,-1,136
 623 227 623 227 611 208 c 128,-1,137
 599 189 599 189 592 174 c 0,138,139
 587 163 587 163 583 144.5 c 128,-1,140
 579 126 579 126 577 107 c 128,-1,141
 575 88 575 88 578 72.5 c 128,-1,142
 581 57 581 57 589 53 c 0,143,144
 598 48 598 48 612 54 c 128,-1,145
 626 60 626 60 639.5 73.5 c 128,-1,146
 653 87 653 87 665.5 105 c 128,-1,147
 678 123 678 123 685 140 c 0,148,149
 691 153 691 153 697 174 c 128,-1,150
 703 195 703 195 705.5 214 c 128,-1,151
 708 233 708 233 705 248.5 c 128,-1,152
 702 264 702 264 690 269 c 256,133,134
483 -130 m 1,153,-1
 525 -130 l 1,154,-1
 525 -152 l 1,155,-1
 361 -152 l 1,156,-1
 361 -130 l 1,157,-1
 404 -130 l 1,158,-1
 546 233 l 2,159,160
 546 234 546 234 551 244 c 128,-1,161
 556 254 556 254 550 261 c 0,162,163
 539 274 539 274 526 270 c 128,-1,164
 513 266 513 266 501 253 c 128,-1,165
 489 240 489 240 478.5 220.5 c 128,-1,166
 468 201 468 201 460.5 183.5 c 128,-1,167
 453 166 453 166 448 153 c 0,168,-1
 443 140 l 1,169,-1
 430 141 l 1,170,-1
 434 154 l 0,171,172
 438 167 438 167 446.5 185.5 c 128,-1,173
 455 204 455 204 466.5 224.5 c 128,-1,174
 478 245 478 245 492.5 260 c 128,-1,175
 507 275 507 275 524.5 283 c 128,-1,176
 542 291 542 291 561 283 c 0,177,178
 571 279 571 279 574 265.5 c 128,-1,179
 577 252 577 252 578 250 c 1,180,181
 583 258 583 258 596 269.5 c 128,-1,182
 609 281 609 281 627 289.5 c 128,-1,183
 645 298 645 298 665.5 301.5 c 128,-1,184
 686 305 686 305 706 299 c 0,185,186
 734 290 734 290 747.5 269 c 128,-1,187
 761 248 761 248 765 221.5 c 128,-1,188
 769 195 769 195 765 167 c 128,-1,189
 761 139 761 139 752 117 c 0,190,191
 744 94 744 94 728 73 c 128,-1,192
 712 52 712 52 693 35.5 c 128,-1,193
 674 19 674 19 653.5 9 c 128,-1,194
 633 -1 633 -1 616 -1 c 0,195,196
 592 -1 592 -1 578 13 c 128,-1,197
 564 27 564 27 551 59 c 1,198,-1
 483 -130 l 1,153,-1
329 269 m 256,199,200
 317 274 317 274 302.5 266 c 128,-1,201
 288 258 288 258 274.5 242.5 c 128,-1,202
 261 227 261 227 249.5 208 c 128,-1,203
 238 189 238 189 230 174 c 0,204,205
 225 163 225 163 221 144.5 c 128,-1,206
 217 126 217 126 215.5 107 c 128,-1,207
 214 88 214 88 217 72.5 c 128,-1,208
 220 57 220 57 228 53 c 0,209,210
 237 48 237 48 251 54 c 128,-1,211
 265 60 265 60 279 73.5 c 128,-1,212
 293 87 293 87 305 105 c 128,-1,213
 317 123 317 123 325 140 c 0,214,215
 331 153 331 153 336.5 174 c 128,-1,216
 342 195 342 195 344 214 c 128,-1,217
 346 233 346 233 343.5 248.5 c 128,-1,218
 341 264 341 264 329 269 c 256,199,200
123 -130 m 1,219,-1
 165 -130 l 1,220,-1
 165 -152 l 1,221,-1
 0 -152 l 1,222,-1
 0 -130 l 1,223,-1
 43 -130 l 1,224,-1
 184 233 l 2,225,226
 184 234 184 234 189.5 244 c 128,-1,227
 195 254 195 254 189 261 c 0,228,229
 177 274 177 274 165 270 c 128,-1,230
 153 266 153 266 140.5 253 c 128,-1,231
 128 240 128 240 117 220.5 c 128,-1,232
 106 201 106 201 98.5 183.5 c 128,-1,233
 91 166 91 166 86.5 153 c 0,234,-1
 82 140 l 1,235,-1
 70 141 l 1,236,-1
 74 154 l 0,237,238
 78 167 78 167 86 185.5 c 128,-1,239
 94 204 94 204 106 224.5 c 128,-1,240
 118 245 118 245 132 260 c 128,-1,241
 146 275 146 275 163.5 283 c 128,-1,242
 181 291 181 291 201 283 c 0,243,244
 210 279 210 279 213 265.5 c 128,-1,245
 216 252 216 252 216 250 c 1,246,247
 221 258 221 258 234.5 269.5 c 128,-1,248
 248 281 248 281 266 289.5 c 128,-1,249
 284 298 284 298 304.5 301.5 c 128,-1,250
 325 305 325 305 345 299 c 0,251,252
 373 290 373 290 386.5 269 c 128,-1,253
 400 248 400 248 404 221.5 c 128,-1,254
 408 195 408 195 403.5 167 c 128,-1,255
 399 139 399 139 391 117 c 0,256,257
 382 94 382 94 366 73 c 128,-1,258
 350 52 350 52 331 35.5 c 128,-1,259
 312 19 312 19 291.5 9 c 128,-1,260
 271 -1 271 -1 255 -1 c 0,261,262
 232 -1 232 -1 217.5 13 c 128,-1,263
 203 27 203 27 190 59 c 1,264,-1
 123 -130 l 1,219,-1
EndSplineSet
Validated: 33
EndChar

StartChar: degree
Encoding: 176 176 104
Width: 282
Flags: W
LayerCount: 2
Fore
SplineSet
88 335 m 2,0,1
 89 335 89 335 97 333.5 c 128,-1,2
 105 332 105 332 116.5 331 c 128,-1,3
 128 330 128 330 142 329 c 128,-1,4
 156 328 156 328 169 328 c 0,5,6
 181 328 181 328 199.5 329 c 128,-1,7
 218 330 218 330 236 331 c 128,-1,8
 254 332 254 332 267.5 333.5 c 128,-1,9
 281 335 281 335 283 335 c 1,10,11
 278 321 278 321 266.5 306 c 128,-1,12
 255 291 255 291 241 283 c 0,13,14
 230 277 230 277 206.5 275 c 128,-1,15
 183 273 183 273 159.5 274 c 128,-1,16
 136 275 136 275 118 277.5 c 128,-1,17
 100 280 100 280 98 282 c 2,18,-1
 74 187 l 1,19,20
 91 204 91 204 113 210 c 128,-1,21
 135 216 135 216 152 216 c 0,22,23
 207 216 207 216 230 190.5 c 128,-1,24
 253 165 253 165 247 127 c 0,25,26
 242 94 242 94 222.5 68.5 c 128,-1,27
 203 43 203 43 176.5 26 c 128,-1,28
 150 9 150 9 118 2 c 128,-1,29
 86 -5 86 -5 55 0 c 0,30,31
 44 1 44 1 33 6.5 c 128,-1,32
 22 12 22 12 13.5 22 c 128,-1,33
 5 32 5 32 2 46.5 c 128,-1,34
 -1 61 -1 61 4 82 c 0,35,36
 8 96 8 96 23.5 111.5 c 128,-1,37
 39 127 39 127 62 127 c 0,38,39
 81 127 81 127 91 115 c 128,-1,40
 101 103 101 103 96 84 c 0,41,42
 92 64 92 64 80.5 56 c 128,-1,43
 69 48 69 48 57.5 45 c 128,-1,44
 46 42 46 42 39.5 40.5 c 128,-1,45
 33 39 33 39 38 33 c 0,46,47
 56 10 56 10 85 13 c 0,48,49
 114 15 114 15 143 41 c 128,-1,50
 172 67 172 67 184 116 c 0,51,52
 187 129 187 129 185 143.5 c 128,-1,53
 183 158 183 158 176.5 169.5 c 128,-1,54
 170 181 170 181 159 189 c 128,-1,55
 148 197 148 197 135 197 c 0,56,57
 117 197 117 197 98 190.5 c 128,-1,58
 79 184 79 184 68 166 c 1,59,-1
 43 166 l 1,60,-1
 88 335 l 2,0,1
EndSplineSet
Validated: 33
EndChar

StartChar: plusminus
Encoding: 177 177 105
Width: 352
Flags: W
LayerCount: 2
Fore
SplineSet
33 -114 m 1,0,-1
 312 -114 l 1,1,-1
 243 -9 l 2,2,3
 212 37 212 37 173 96 c 1,4,-1
 33 -114 l 1,0,-1
173 136 m 1,5,-1
 352 -133 l 1,6,-1
 -6 -133 l 1,7,-1
 173 136 l 1,5,-1
EndSplineSet
Validated: 1
EndChar

StartChar: acute
Encoding: 180 180 106
Width: 257
Flags: W
LayerCount: 2
Fore
SplineSet
133 -127 m 1,0,1
 125 -114 125 -114 112 -96 c 128,-1,2
 99 -78 99 -78 81 -59.5 c 128,-1,3
 63 -41 63 -41 41 -24 c 128,-1,4
 19 -7 19 -7 -6 5 c 1,5,-1
 116 126 l 1,6,7
 127 110 127 110 145 90.5 c 128,-1,8
 163 71 163 71 183 52.5 c 128,-1,9
 203 34 203 34 222.5 19 c 128,-1,10
 242 4 242 4 257 -3 c 1,11,-1
 133 -127 l 1,0,1
228 -4 m 1,12,13
 216 2 216 2 200.5 14.5 c 128,-1,14
 185 27 185 27 170 41 c 128,-1,15
 155 55 155 55 140.5 70.5 c 128,-1,16
 126 86 126 86 117 99 c 1,17,-1
 23 5 l 1,18,19
 42 -5 42 -5 59 -18.5 c 128,-1,20
 76 -32 76 -32 90 -46 c 128,-1,21
 104 -60 104 -60 115.5 -74 c 128,-1,22
 127 -88 127 -88 133 -98 c 1,23,-1
 228 -4 l 1,12,13
EndSplineSet
Validated: 1
EndChar

StartChar: mu
Encoding: 181 181 107
AltUni2: 0003bc.ffffffff.0
Width: 808
Flags: W
LayerCount: 2
Fore
SplineSet
490 29 m 1,0,1
 486 25.5 l 0,2,3
 482 22 482 22 477.5 18 c 128,-1,4
 473 14 473 14 468.5 10.5 c 128,-1,5
 464 7 464 7 462 7 c 256,6,7
 460 7 460 7 455.5 10.5 c 128,-1,8
 451 14 451 14 446.5 19 c 128,-1,9
 442 24 442 24 438.5 28 c 0,10,-1
 435 32 l 1,11,-1
 368 105 l 2,12,13
 368 106 368 106 364.5 110 c 128,-1,14
 361 114 361 114 357 118 c 128,-1,15
 353 122 353 122 349.5 125 c 128,-1,16
 346 128 346 128 345 128 c 0,17,18
 340 128 340 128 329.5 118 c 128,-1,19
 319 108 319 108 317 105 c 2,20,-1
 243 32 l 2,21,22
 235 25 235 25 227.5 16.5 c 128,-1,23
 220 8 220 8 215 8 c 256,24,25
 210 8 210 8 204.5 16 c 128,-1,26
 199 24 199 24 194 31 c 2,27,-1
 111 121 l 2,28,29
 111 122 111 122 107 126.5 c 128,-1,30
 103 131 103 131 98.5 136 c 128,-1,31
 94 141 94 141 90 145.5 c 128,-1,32
 86 150 86 150 84 150 c 256,33,34
 82 150 82 150 77 146.5 c 128,-1,35
 72 143 72 143 66.5 139 c 128,-1,36
 61 135 61 135 57 131 c 128,-1,37
 53 127 53 127 52 126 c 2,38,-1
 0 77 l 1,39,-1
 0 114 l 1,40,-1
 135 243 l 2,41,42
 141 249 141 249 147 253 c 0,43,44
 152 257 152 257 157.5 260.5 c 128,-1,45
 163 264 163 264 165 264 c 256,46,47
 167 264 167 264 171 260 c 128,-1,48
 175 256 175 256 180 251 c 0,49,50
 185 245 185 245 191 238 c 2,51,-1
 268 158 l 2,52,53
 269 156 269 156 277 147 c 128,-1,54
 285 138 285 138 289 138 c 256,55,56
 293 138 293 138 300 146 c 128,-1,57
 307 154 307 154 314 160 c 2,58,-1
 398 238 l 2,59,60
 401 241 401 241 411 250.5 c 128,-1,61
 421 260 421 260 424 260 c 0,62,63
 429 260 429 260 435.5 251 c 128,-1,64
 442 242 442 242 449 233 c 2,65,-1
 509 162 l 2,66,67
 510 161 510 161 513.5 157 c 128,-1,68
 517 153 517 153 521 148 c 128,-1,69
 525 143 525 143 530 139 c 128,-1,70
 535 135 535 135 537 135 c 0,71,72
 540 135 540 135 544.5 138 c 128,-1,73
 549 141 549 141 553.5 145.5 c 128,-1,74
 558 150 558 150 562 153.5 c 128,-1,75
 566 157 566 157 567 158 c 2,76,-1
 652 236 l 2,77,78
 660 243 660 243 668 250.5 c 128,-1,79
 676 258 676 258 681 258 c 0,80,81
 685 258 685 258 691 250 c 128,-1,82
 697 242 697 242 702 236 c 2,83,-1
 780 147 l 2,84,85
 780 146 780 146 784 142 c 128,-1,86
 788 138 788 138 793.5 133 c 128,-1,87
 799 128 799 128 804 124 c 128,-1,88
 809 120 809 120 811 120 c 256,89,90
 813 120 813 120 817 123 c 128,-1,91
 821 126 821 126 825.5 130 c 128,-1,92
 830 134 830 134 834 137.5 c 128,-1,93
 838 141 838 141 840 142 c 2,94,-1
 891 191 l 1,95,-1
 891 155 l 1,96,-1
 753 26 l 1,97,-1
 749 22.5 l 0,98,99
 745 19 745 19 741 15.5 c 128,-1,100
 737 12 737 12 733 9 c 128,-1,101
 729 6 729 6 727 6 c 256,102,103
 725 6 725 6 720.5 9.5 c 128,-1,104
 716 13 716 13 711.5 18 c 128,-1,105
 707 23 707 23 703 27 c 0,106,-1
 699 31 l 1,107,-1
 636 99 l 2,108,109
 636 100 636 100 632 104.5 c 128,-1,110
 628 109 628 109 623 114 c 128,-1,111
 618 119 618 119 612.5 123 c 128,-1,112
 607 127 607 127 604 127 c 0,113,114
 596 127 596 127 588 118 c 128,-1,115
 580 109 580 109 574 103 c 2,116,-1
 490 29 l 1,0,1
EndSplineSet
Validated: 1
EndChar

